<svg width="20" height="20" viewBox="0 0 20 20" fill="none" xmlns="http://www.w3.org/2000/svg">
<path d="M15.8333 0H4.16667C1.86917 0 0 1.86917 0 4.16667V5C0 7.2975 1.86917 9.16667 4.16667 9.16667H15.8333C18.1308 9.16667 20 7.2975 20 5V4.16667C20 1.86917 18.1308 0 15.8333 0ZM15.8333 6.66667H4.16667C3.70583 6.66667 3.33333 6.29333 3.33333 5.83333C3.33333 5.37333 3.70583 5 4.16667 5H15.8333C16.2942 5 16.6667 5.37333 16.6667 5.83333C16.6667 6.29333 16.2942 6.66667 15.8333 6.66667ZM10.8333 11.6667V19.1667C10.8333 19.6267 10.4608 20 10 20C9.53917 20 9.16667 19.6267 9.16667 19.1667V11.6667C9.16667 11.2067 9.53917 10.8333 10 10.8333C10.4608 10.8333 10.8333 11.2067 10.8333 11.6667ZM7.5 11.6667V16.6667C7.5 18.505 6.005 20 4.16667 20C2.32833 20 0.833333 18.505 0.833333 16.6667C0.833333 15.2175 1.7675 13.8358 3.05583 13.3808C3.49 13.2275 3.96583 13.4558 4.11917 13.8892C4.2725 14.3233 4.04417 14.7992 3.61083 14.9525C2.98833 15.1725 2.5 15.925 2.5 16.6667C2.5 17.5858 3.2475 18.3333 4.16667 18.3333C5.08583 18.3333 5.83333 17.5858 5.83333 16.6667V11.6667C5.83333 11.2067 6.20583 10.8333 6.66667 10.8333C7.1275 10.8333 7.5 11.2067 7.5 11.6667ZM19.1667 16.6667C19.1667 18.505 17.6717 20 15.8333 20C13.995 20 12.5 18.505 12.5 16.6667V11.6667C12.5 11.2067 12.8725 10.8333 13.3333 10.8333C13.7942 10.8333 14.1667 11.2067 14.1667 11.6667V16.6667C14.1667 17.5858 14.9142 18.3333 15.8333 18.3333C16.7525 18.3333 17.5 17.5858 17.5 16.6667C17.5 15.925 17.0117 15.1725 16.3892 14.9525C15.955 14.7992 15.7275 14.3233 15.8808 13.8892C16.035 13.455 16.51 13.2275 16.9442 13.3808C18.2325 13.8358 19.1667 15.2175 19.1667 16.6667Z" fill="currentColor"/>
</svg>
