<svg width="20" height="20" viewBox="0 0 20 20" fill="none" xmlns="http://www.w3.org/2000/svg">
<path d="M19.7556 1.42268L15.2516 5.92675L17.304 7.97921C17.7257 8.40087 17.4198 9.12752 16.8207 9.13168L11.5025 9.16668C11.1308 9.16918 10.8308 8.87002 10.8333 8.49753L10.8683 3.17931C10.8725 2.57932 11.5991 2.27433 12.0208 2.69599L14.0732 4.74844L18.5773 0.24437C18.9031 -0.0814566 19.4298 -0.0814566 19.7556 0.24437C20.0815 0.570196 20.0815 1.09685 19.7556 1.42268ZM8.49753 10.8333L3.17931 10.8683C2.57932 10.8725 2.27433 11.5991 2.69599 12.0208L4.74844 14.0732L0.24437 18.5773C-0.0814566 18.9031 -0.0814566 19.4298 0.24437 19.7556C0.406866 19.9181 0.620195 19.9998 0.833524 19.9998C1.04685 19.9998 1.26018 19.9181 1.42268 19.7556L5.92675 15.2516L7.97921 17.304C8.40087 17.7257 9.12752 17.4207 9.13168 16.8207L9.16668 11.5025C9.16918 11.1308 8.87002 10.8308 8.49753 10.8333Z" fill="currentColor"/>
</svg>
