<svg width="20" height="20" viewBox="0 0 20 20" fill="none" xmlns="http://www.w3.org/2000/svg">
<path d="M16.6667 18.3331V4.16646C16.6667 2.78813 15.545 1.66646 14.1667 1.66646H13.175C13.025 1.24396 12.775 0.859798 12.4183 0.567298C11.8375 0.0906316 11.0817 -0.096035 10.3433 0.048965L5.3425 1.04896C4.17833 1.2823 3.33333 2.31396 3.33333 3.4998V18.3331H0V19.9998H20V18.3331H16.6667ZM10.4167 11.0415C9.72667 11.0415 9.16667 10.4815 9.16667 9.79146C9.16667 9.10146 9.72667 8.54146 10.4167 8.54146C11.1067 8.54146 11.6667 9.10146 11.6667 9.79146C11.6667 10.4815 11.1067 11.0415 10.4167 11.0415ZM15 18.3331H13.3333V3.33313H14.1667C14.6258 3.33313 15 3.70646 15 4.16646V18.3331Z" fill="currentColor"/>
</svg>
