<svg width="20" height="20" viewBox="0 0 20 20" fill="none" xmlns="http://www.w3.org/2000/svg">
<path d="M13.3333 7.5H0V2.5C0 1.83696 0.263392 1.20107 0.732233 0.732233C1.20107 0.263392 1.83696 0 2.5 0L10.8333 0C11.4964 0 12.1323 0.263392 12.6011 0.732233C13.0699 1.20107 13.3333 1.83696 13.3333 2.5V7.5ZM19.5117 3.33333L16.4225 0.244167L15.2442 1.4225L16.6667 2.845V5C16.6667 5.44203 16.8423 5.86595 17.1548 6.17851C17.4674 6.49107 17.8913 6.66667 18.3333 6.66667V15C18.3333 15.221 18.2455 15.433 18.0893 15.5893C17.933 15.7455 17.721 15.8333 17.5 15.8333C17.279 15.8333 17.067 15.7455 16.9107 15.5893C16.7545 15.433 16.6667 15.221 16.6667 15V14.1667C16.6667 13.5036 16.4033 12.8677 15.9344 12.3989C15.4656 11.9301 14.8297 11.6667 14.1667 11.6667H13.3333V9.16667H0V20H13.3333V13.3333H14.1667C14.3877 13.3333 14.5996 13.4211 14.7559 13.5774C14.9122 13.7337 15 13.9457 15 14.1667V15C15 15.663 15.2634 16.2989 15.7322 16.7678C16.2011 17.2366 16.837 17.5 17.5 17.5C18.163 17.5 18.7989 17.2366 19.2678 16.7678C19.7366 16.2989 20 15.663 20 15V4.51167C19.9989 4.06988 19.8234 3.64639 19.5117 3.33333Z" fill="currentColor"/>
</svg>
