<svg width="19" height="20" viewBox="0 0 19 20" fill="none" xmlns="http://www.w3.org/2000/svg">
<path d="M11.8433 0.988402C11.0965 0.350484 10.1466 0 9.16437 0C8.18217 0 7.23222 0.350484 6.48538 0.988402C1.41507 5.2024 -3.03406 11.2558 2.67911 17.3316C4.40471 19.041 6.73542 20 9.16437 20C11.5933 20 13.924 19.041 15.6496 17.3316C21.3678 11.2149 16.9187 5.22408 11.8433 0.988402ZM5.82918 8.34498C5.82918 8.12384 5.91703 7.91176 6.0734 7.75539C6.22976 7.59903 6.44184 7.51118 6.66298 7.51118C6.88412 7.51118 7.0962 7.59903 7.25256 7.75539C7.40893 7.91176 7.49678 8.12384 7.49678 8.34498C7.49678 8.56611 7.40893 8.77819 7.25256 8.93456C7.0962 9.09092 6.88412 9.17877 6.66298 9.17877C6.44184 9.17877 6.22976 9.09092 6.0734 8.93456C5.91703 8.77819 5.82918 8.56611 5.82918 8.34498ZM8.19049 13.8105C8.06776 13.9945 7.87697 14.1222 7.66009 14.1655C7.44321 14.2088 7.218 14.1642 7.03402 14.0415C6.85003 13.9187 6.72234 13.7279 6.67903 13.5111C6.63571 13.2942 6.68033 13.069 6.80306 12.885L10.1382 7.88222C10.261 7.69823 10.4518 7.57054 10.6686 7.52723C10.8855 7.48391 11.1107 7.52853 11.2947 7.65126C11.4787 7.77399 11.6064 7.96478 11.6497 8.18166C11.693 8.39854 11.6484 8.62375 11.5257 8.80773L8.19049 13.8105ZM11.6658 14.1815C11.4446 14.1815 11.2325 14.0937 11.0762 13.9373C10.9198 13.781 10.832 13.5689 10.832 13.3477C10.832 13.1266 10.9198 12.9145 11.0762 12.7582C11.2325 12.6018 11.4446 12.514 11.6658 12.514C11.8869 12.514 12.099 12.6018 12.2553 12.7582C12.4117 12.9145 12.4995 13.1266 12.4995 13.3477C12.4995 13.5689 12.4117 13.781 12.2553 13.9373C12.099 14.0937 11.8869 14.1815 11.6658 14.1815Z" fill="currentColor"/>
</svg>
