<svg width="20" height="19" viewBox="0 0 20 19" fill="none" xmlns="http://www.w3.org/2000/svg">
<path d="M16.6783 2.51141C14.7202 0.783402 12.1657 -0.113371 9.55711 0.0114887C6.94854 0.136348 4.49135 1.27301 2.70723 3.18014C0.92311 5.08727 -0.0474349 7.61469 0.00165325 10.2258C0.0507414 12.8369 1.1156 15.326 2.97014 17.1648C3.75349 17.9332 4.8078 18.3626 5.90516 18.36H14.0745C15.1132 18.3741 16.1176 17.9884 16.8799 17.2827C17.8827 16.3253 18.6773 15.1714 19.214 13.8931C19.7506 12.6147 20.0179 11.2394 19.9989 9.85311C19.98 8.46681 19.6754 7.09931 19.104 5.83608C18.5327 4.57285 17.7069 3.44105 16.6783 2.51141ZM16.1924 12.6631C16.1046 12.8667 15.9397 13.0271 15.7338 13.1091C15.5278 13.1911 15.2978 13.188 15.0941 13.1006L10.9814 11.334C10.6867 11.5547 10.3273 11.672 9.9591 11.6677C9.59089 11.6634 9.23439 11.5377 8.94489 11.3101C8.65539 11.0826 8.44908 10.7658 8.35793 10.409C8.26679 10.0522 8.29592 9.67536 8.4408 9.33682C8.58567 8.99828 8.83821 8.717 9.15923 8.53661C9.48026 8.35622 9.85184 8.28679 10.2163 8.33909C10.5808 8.3914 10.9179 8.56251 11.1753 8.8259C11.4326 9.08928 11.5959 9.43022 11.6397 9.79584L15.7507 11.564C15.8516 11.6075 15.943 11.6704 16.0195 11.7491C16.0961 11.8279 16.1565 11.9209 16.1971 12.023C16.2377 12.125 16.2578 12.2341 16.2563 12.3439C16.2548 12.4538 16.2316 12.5622 16.1882 12.6631H16.1924ZM16.7302 9.99575C16.5101 10.0232 16.2882 9.96213 16.1132 9.82599C15.9381 9.68985 15.8243 9.48976 15.7967 9.26973C15.6384 7.97679 15.0491 6.7749 14.1239 5.85795C13.0258 4.75987 11.5365 4.14298 9.98357 4.14298C8.43065 4.14298 6.94134 4.75987 5.84326 5.85795C4.74518 6.95603 4.12829 8.44534 4.12829 9.99826C4.12829 11.5512 4.74518 13.0405 5.84326 14.1386C5.9269 14.2264 6.02058 14.3059 6.11175 14.3895C6.27813 14.5363 6.37935 14.7433 6.39316 14.9648C6.40696 15.1863 6.33221 15.4042 6.18536 15.5705C6.0385 15.7369 5.83157 15.8381 5.61009 15.8519C5.3886 15.8657 5.1707 15.791 5.00433 15.6441C4.88639 15.5404 4.77264 15.4325 4.66055 15.3204C3.24858 13.9082 2.45543 11.993 2.45559 9.99599C2.45575 7.99901 3.2492 6.08387 4.66139 4.6719C6.07359 3.25993 7.98884 2.46678 9.98583 2.46693C11.9828 2.46709 13.898 3.26054 15.3099 4.67274C16.4976 5.85276 17.2538 7.39796 17.457 9.05979C17.471 9.169 17.4632 9.27989 17.4342 9.3861C17.4052 9.49231 17.3555 9.59174 17.288 9.6787C17.2204 9.76565 17.1364 9.83842 17.0407 9.89283C16.945 9.94724 16.8394 9.98221 16.7302 9.99575Z" fill="currentColor"/>
</svg>
