<svg width="14" height="20" viewBox="0 0 14 20" fill="none" xmlns="http://www.w3.org/2000/svg">
<path d="M9.19822 13.3384C9.19902 13.778 9.0841 14.2101 8.86502 14.5913C8.64593 14.9725 8.3304 15.2893 7.95012 15.5099C7.56983 15.7305 7.13819 15.8471 6.69855 15.8481C6.25891 15.8491 5.82675 15.7343 5.4455 15.5154C5.06424 15.2965 4.74731 14.9811 4.52654 14.6009C4.30578 14.2207 4.18895 13.7891 4.1878 13.3495C4.18664 12.9098 4.30121 12.4776 4.51998 12.0963C4.73875 11.7149 5.05402 11.3979 5.43412 11.1769V6.64664C5.43412 6.31387 5.56631 5.99473 5.80161 5.75943C6.03692 5.52413 6.35605 5.39194 6.68882 5.39194C7.02159 5.39194 7.34073 5.52413 7.57603 5.75943C7.81133 5.99473 7.94352 6.31387 7.94352 6.64664V11.1769C8.32401 11.3953 8.64029 11.7101 8.86054 12.0895C9.08079 12.4689 9.19726 12.8997 9.19822 13.3384ZM13.3806 13.3074C13.3786 15.0816 12.6729 16.7825 11.4184 18.037C10.1639 19.2915 8.46297 19.9972 6.68882 19.9992C1.02343 20.0736 -2.14678 13.0883 1.67002 8.89841V4.9737C1.88164 -1.66032 11.4985 -1.65614 11.7076 4.9737V8.89841C12.7885 10.1123 13.3841 11.682 13.3806 13.3074ZM10.8712 13.3074C10.8713 12.7456 10.757 12.1897 10.5354 11.6734C10.3138 11.1572 9.9895 10.6914 9.58216 10.3045C9.46073 10.1875 9.36415 10.0471 9.29818 9.89192C9.23222 9.7367 9.19822 9.56978 9.19822 9.40113V4.9737C9.19822 4.30817 8.93384 3.66989 8.46324 3.19929C7.99263 2.72869 7.35436 2.4643 6.68882 2.4643C6.02329 2.4643 5.38501 2.72869 4.91441 3.19929C4.4438 3.66989 4.17942 4.30817 4.17942 4.9737V9.40113C4.17942 9.56978 4.14543 9.7367 4.07946 9.89192C4.01349 10.0471 3.91691 10.1875 3.79548 10.3045C3.29824 10.7836 2.92752 11.3784 2.71646 12.0359C2.5054 12.6933 2.4606 13.3928 2.58606 14.0718C2.71153 14.7508 3.00334 15.3881 3.43539 15.9266C3.86745 16.4652 4.42628 16.8883 5.06188 17.1581C5.69748 17.4278 6.39004 17.5358 7.0776 17.4724C7.76515 17.409 8.42626 17.1761 9.00179 16.7946C9.57731 16.4131 10.0493 15.8949 10.3755 15.2864C10.7017 14.6778 10.872 13.9979 10.8712 13.3074Z" fill="currentColor"/>
</svg>
