<svg width="18" height="32" viewBox="0 0 18 32" fill="none" xmlns="http://www.w3.org/2000/svg">
<path d="M9.04229 13.2078C9.04229 13.2078 9.0242 13.2078 9.01615 13.2078C7.43567 13.2038 5.91751 13.4153 4.50593 13.8363C4.57832 14.4003 4.64066 15.0046 4.70299 15.7359C4.70299 15.7359 4.70299 15.7359 4.70299 15.7399C4.75527 16.9666 4.77739 18.7735 4.77136 21.2552C4.78342 21.928 4.76935 22.6431 4.72913 23.4407C4.72913 23.5133 4.67082 23.9423 4.59843 24.5164C4.58033 24.9334 4.56224 25.3463 4.54414 25.4732C4.5743 26.9296 6.23723 27.7998 8.99001 27.7998L9.03827 27.7998C11.773 27.7938 13.4238 26.9256 13.454 25.4732C13.4379 25.3463 13.4178 24.9334 13.3997 24.5164C13.3273 23.9423 13.267 23.5133 13.269 23.4407C13.2288 22.6431 13.2147 21.928 13.2268 21.2552C13.2207 18.7735 13.2428 16.9666 13.2951 15.7399C13.2951 15.7399 13.2951 15.7399 13.2951 15.7359C13.3575 15.0046 13.4198 14.4003 13.4922 13.8363C12.0967 13.4194 10.5966 13.2078 9.03425 13.2078L9.04229 13.2078ZM9.04229 14.0237C7.56034 14.0357 6.20908 14.1667 5.16548 14.3782C5.64204 13.9693 7.18834 13.6691 9.04229 13.651C10.8621 13.6772 12.3702 13.9753 12.8407 14.3782C11.8172 14.1707 10.4941 14.0418 9.04229 14.0237Z" fill="#0066FF"/>
<path d="M9.04222 27.9431L9.01205 27.9431L8.99195 27.9431C6.48448 27.9431 4.85372 27.224 4.48374 25.9932C4.42743 26.4847 4.36912 27.0648 4.33695 27.6067C4.34298 28.0196 4.38923 28.3137 4.50385 28.3701C6.00993 29.051 7.07968 29.0691 8.72853 29.0651C8.83309 29.0651 8.93564 29.0651 9.0402 29.0651C9.11863 29.0651 9.19504 29.0651 9.27346 29.0651C10.9223 29.0691 11.9921 29.051 13.4981 28.3701C13.6128 28.3117 13.659 28.0196 13.665 27.6067C13.6329 27.0648 13.5766 26.4847 13.5183 25.9932C13.1483 27.2199 11.5296 27.937 9.0402 27.9411L9.04222 27.9431Z" fill="#364258"/>
<path d="M9.04247 27.8003L9.01231 27.8003L8.9922 27.8003C6.23942 27.8003 4.5785 26.9301 4.54632 25.4738C4.56241 25.3469 4.58252 24.9339 4.60062 24.5169C4.48198 25.4516 4.32715 26.777 4.33921 27.607C4.37138 27.0651 4.42769 26.485 4.486 25.9935C4.85599 27.2242 6.48674 27.9434 8.99421 27.9434L9.04247 27.9434C11.5338 27.9373 13.1525 27.2202 13.5205 25.9935C13.5768 26.485 13.6351 27.0651 13.6673 27.607C13.6794 26.777 13.5245 25.4516 13.4059 24.5169C13.424 24.9339 13.4421 25.3469 13.4602 25.4738C13.43 26.9261 11.7792 27.7923 9.04448 27.8003L9.04247 27.8003Z" fill="#1A1F29"/>
<path d="M13.8177 17.4866C13.8177 17.4866 13.8177 17.5027 13.8198 17.5107C14.0309 17.4765 14.6583 17.2871 15.1248 17.1461C15.348 17.0797 15.547 17.0172 15.6777 16.981C15.6536 14.5396 15.6295 12.1284 15.6154 11.2078C15.4183 11.1333 15.2132 11.0588 15.0061 10.9883C15.0001 11.5261 15.0021 12.078 15.0061 12.6139C15.0142 13.9715 15.0202 15.3775 14.8875 16.709L14.8875 16.7272L14.8674 16.7352C14.5678 16.8903 14.2279 17.0636 13.8479 17.1663C13.7956 17.2589 13.8057 17.3738 13.8177 17.4866Z" fill="#0066FF"/>
<path d="M13.8558 22.2405C13.8558 22.2405 13.8558 22.2445 13.8558 22.2465C13.9885 22.3875 14.1011 22.5447 14.2077 22.6998C14.2962 22.8287 14.3887 22.9596 14.4932 23.0825C14.5475 23.0986 14.6139 23.0906 14.6762 23.0825C14.6863 22.8891 14.6943 22.6978 14.7043 22.5044C14.7828 20.9433 14.8632 19.3277 14.827 17.7686C14.8129 17.7686 14.8009 17.7686 14.7848 17.7706C14.4872 17.8633 14.1494 17.9278 13.8136 17.962L13.8136 21.2595C13.8136 21.2595 13.8136 21.2615 13.8136 21.2635C13.8196 21.3784 13.8176 21.4972 13.8136 21.612C13.8075 21.8235 13.8015 22.0411 13.8578 22.2425L13.8558 22.2405Z" fill="#364258"/>
<path d="M15.4422 24.1055C15.5367 23.9322 15.579 23.7328 15.6212 23.5414C15.6554 23.3863 15.6916 23.2252 15.7539 23.0781C15.7378 23.064 15.7539 22.923 15.7539 22.9009C15.7499 21.8997 15.7036 19.5228 15.6795 17.0452C15.5508 17.0814 15.3598 17.1398 15.1466 17.2043C14.648 17.3554 14.0367 17.5387 13.8235 17.5729C13.8135 17.6434 13.8135 17.7139 13.8155 17.7905C13.8155 17.8247 13.8155 17.859 13.8155 17.8932C14.1433 17.861 14.473 17.7965 14.7686 17.7059C14.7907 17.7018 14.8088 17.6998 14.8249 17.6998C14.839 17.6998 14.8531 17.6998 14.8671 17.7018L14.8993 17.7018L14.8993 17.7341C14.9375 19.3053 14.8571 20.9329 14.7787 22.5061C14.7686 22.7095 14.7586 22.911 14.7485 23.1124L14.7485 23.1406L14.6982 23.1466C14.6218 23.1567 14.5354 23.1668 14.4569 23.1406L14.4469 23.1366L14.4409 23.1285C14.3323 23.0016 14.2358 22.8646 14.1433 22.7337C14.0467 22.5967 13.9462 22.4557 13.8336 22.3288C13.8135 22.4497 13.8235 22.5826 13.8698 22.7035C13.8698 22.7075 13.8698 22.7095 13.8698 22.7135C13.8698 22.7135 13.8698 22.7176 13.8698 22.7196C14.2257 23.197 14.5112 23.6623 14.7204 24.1075C14.7204 24.1075 14.7324 24.1075 14.7485 24.1115L14.7988 24.1115C14.7988 24.1115 14.8048 24.1014 14.8088 24.0974C14.8088 24.0974 14.8309 24.1095 14.8631 24.1256C14.8812 24.1276 14.8953 24.1296 14.8953 24.1316C14.9375 24.1397 14.9797 24.1518 15.022 24.1639C15.1386 24.1981 15.2492 24.2304 15.3598 24.18C15.3759 24.1679 15.39 24.1538 15.406 24.1397C15.4181 24.1296 15.4302 24.1175 15.4442 24.1075L15.4422 24.1055Z" fill="#0066FF"/>
<path d="M13.846 17.0918C14.2019 16.9931 14.5256 16.8299 14.8112 16.6829C14.9439 15.3595 14.9358 13.9635 14.9278 12.6119C14.9258 12.068 14.9218 11.506 14.9278 10.9601C14.9077 10.9541 14.8876 10.946 14.8675 10.94C14.8011 11.1897 14.7348 11.4395 14.6664 11.6893C14.3145 12.9906 13.9505 14.3341 13.8701 15.6938C13.8701 15.6938 13.8721 15.6959 13.8721 15.6979C13.8862 15.8671 13.8721 16.0947 13.854 16.3364C13.8359 16.6104 13.8178 16.8924 13.844 17.0918L13.846 17.0918Z" fill="#364258"/>
<path d="M15.8146 23.1572C15.8026 23.1693 15.7885 23.1914 15.7724 23.2297C15.7382 23.3365 15.7141 23.4473 15.6899 23.554C15.6477 23.7514 15.6035 23.9569 15.5029 24.1402L15.4949 24.1503C15.4808 24.1624 15.4667 24.1744 15.4547 24.1865C15.4386 24.2006 15.4205 24.2167 15.4044 24.2308L15.3984 24.2349C15.2596 24.3013 15.1289 24.2631 15.0023 24.2248C14.96 24.2127 14.9198 24.2026 14.8816 24.1946C14.8695 24.2006 14.8374 24.1825 14.8153 24.1704C14.8052 24.1664 14.7992 24.1644 14.7972 24.1603L14.7409 24.1603C14.1638 23.6608 14.6323 27.8063 14.6303 27.8043C14.6262 27.8023 14.0672 24.9238 13.8702 23.4191C13.84 23.2277 13.8179 23.0343 13.8078 22.843C13.8058 22.8027 13.8038 22.7644 13.8018 22.7302C13.7455 22.5791 13.7375 22.4099 13.7737 22.2648C13.7737 22.2648 13.7737 22.2648 13.7716 22.2628C13.7133 22.0493 13.7194 21.8257 13.7254 21.6102C13.7294 21.4974 13.7314 21.3785 13.7254 21.2657C13.7254 21.2657 13.7234 21.2617 13.7234 21.2597L13.7234 17.934C13.7254 17.8877 13.7234 17.8413 13.7234 17.795C13.7234 17.7124 13.7194 17.6258 13.7355 17.5432C13.7355 17.5291 13.7334 17.515 13.7314 17.4989C13.7194 17.38 13.7073 17.2471 13.7737 17.1323C13.7415 16.9248 13.7616 16.6287 13.7817 16.3386C13.7978 16.0989 13.8119 15.8733 13.7998 15.7101C13.7998 15.7081 13.8018 15.7041 13.8018 15.7021C13.8822 14.3343 14.2462 12.9847 14.6001 11.6794C14.6705 11.4216 14.7388 11.1658 14.8072 10.9099C14.8032 10.8999 14.8012 10.8898 14.8072 10.8817C14.8112 10.8737 14.8173 10.8697 14.8253 10.8636C14.8776 10.5977 14.946 10.3238 15.0244 10.074L15.0284 10.0619L15.0405 10.0559C15.0565 10.0478 15.0807 10.0357 15.1068 10.0337L15.1289 10.0337L15.139 10.0498C15.2194 10.2009 15.4527 10.352 15.6598 10.358C15.6638 10.1445 15.6517 9.92895 15.6397 9.72148C15.6296 9.55025 15.6196 9.37299 15.6176 9.19573C15.5291 9.22796 15.4426 9.26825 15.3541 9.31256C15.1551 9.41126 14.948 9.50997 14.7026 9.50393C14.5458 10.0659 14.4111 10.6541 14.2804 11.2262C14.0833 12.0924 13.8782 12.9888 13.5907 13.8146C13.5907 13.8187 13.5947 13.8207 13.5947 13.8247C13.5203 14.3948 13.458 15.0051 13.3956 15.7444L13.3956 15.7464C13.3433 16.9711 13.3192 18.774 13.3273 21.2516C13.3273 21.2556 13.3313 21.2577 13.3313 21.2617C13.3192 21.9405 13.3333 22.6617 13.3755 23.4694C13.3755 23.4755 13.3715 23.4815 13.3675 23.4876C13.4137 23.8542 13.468 24.2308 13.5223 24.5934C13.647 25.4475 13.7777 26.3278 13.8099 27.194C13.8099 27.194 13.8099 27.194 13.8099 27.196C13.8099 27.198 13.8139 27.2 13.8139 27.202C13.8199 27.9634 13.6952 28.8699 13.5746 29.7441C13.5364 30.0241 13.5002 30.292 13.468 30.5479L13.5022 30.5418C14.1638 30.435 14.6282 30.2376 14.8132 29.9879C15.1068 29.587 15.1973 29.452 15.322 29.2647C15.3562 29.2144 15.3923 29.1579 15.4366 29.0935C15.4607 28.9525 15.4828 28.8135 15.5029 28.6745C15.5512 28.3583 15.6015 28.0299 15.6739 27.7157C15.6739 27.7076 15.6819 27.7036 15.6859 27.6975C15.694 27.6552 15.7 27.6109 15.706 27.5666C15.7442 27.3047 15.7824 26.9422 15.8146 26.5373C15.889 25.4173 15.8669 24.0999 15.8227 23.1592L15.8146 23.1572Z" fill="#0066FF"/>
<path d="M13.7596 31.4158L13.7656 31.4078L13.7154 31.4219L13.7395 31.4178L13.7596 31.4158Z" fill="#0066FF"/>
<path d="M13.1903 30.9889C13.2547 30.9084 13.5 29.3251 13.5 28.5777C12.6917 29.0451 10.8618 29.2908 9.04206 29.2908C7.19615 29.3009 5.32611 29.0531 4.5057 28.5777C4.5057 29.3251 4.75303 30.9104 4.81536 30.9889C5.04057 31.2709 6.35564 31.2931 7.44951 31.2709C7.55005 31.2689 8.20557 31.2709 9.04206 31.2649C9.84035 31.2709 10.4597 31.2689 10.5562 31.2709C11.6481 31.2931 12.9631 31.2709 13.1903 30.9889Z" fill="#0066FF"/>
<path d="M12.4163 1.56738C12.4002 1.47271 12.366 1.38408 12.3278 1.2894C12.2896 1.19674 12.2514 1.10005 12.2353 0.999334L12.2353 0.993291L12.2353 0.987249C12.2413 0.971134 12.2474 0.95502 12.2574 0.934877L12.2634 0.924804L12.2755 0.920775C12.3077 0.910703 12.3398 0.906676 12.37 0.906676C12.4665 0.906676 12.553 0.948977 12.6395 0.991278C12.6998 1.02149 12.7561 1.04969 12.8164 1.06178C12.6978 0.856315 12.4605 0.799914 12.2494 0.75157L12.2152 0.743514C11.2158 0.55215 10.2124 0.479632 9.07632 0.511861C9.0723 0.511861 9.06828 0.515891 9.06225 0.515891C9.05621 0.515891 9.05018 0.515891 9.04415 0.515891C9.04415 0.515891 9.02806 0.515891 9.02002 0.515891C8.99589 0.515891 8.97176 0.515891 8.94763 0.515891C8.9416 0.515891 8.93959 0.513876 8.93356 0.511861C7.79544 0.479632 6.79206 0.554164 5.7947 0.743513L5.76052 0.751569C5.54737 0.799914 5.31211 0.8543 5.19347 1.06178C5.25179 1.04768 5.3101 1.01948 5.37042 0.991278C5.45488 0.948976 5.54335 0.906675 5.63987 0.906675C5.67003 0.906675 5.7022 0.910702 5.73438 0.920774L5.74443 0.924804L5.75046 0.934876C5.76253 0.95502 5.76856 0.971133 5.77258 0.987248L5.77258 0.993291L5.77258 0.999334C5.7565 1.10005 5.71829 1.19674 5.68009 1.2894C5.64188 1.38206 5.6077 1.47271 5.59161 1.56738C6.69755 1.36192 7.83968 1.25516 8.98584 1.25516C8.9979 1.25516 9.00796 1.25516 9.02002 1.25516C9.02806 1.25516 9.03611 1.25516 9.04415 1.25516C10.1843 1.25516 11.3184 1.36192 12.4183 1.56738L12.4163 1.56738Z" fill="#0052CC"/>
<path d="M16.9401 11.5972L17.0527 11.6455C17.0366 11.2265 16.6385 11.015 16.2162 10.7894C16.0393 10.6947 15.8543 10.596 15.7035 10.4812L15.6492 10.4389L15.6492 10.4087C15.426 10.4027 15.1847 10.2516 15.0842 10.0884C15.0801 10.0884 15.0781 10.0904 15.0741 10.0924C15.052 10.1609 15.0339 10.2355 15.0138 10.306C14.9756 10.455 14.9414 10.6061 14.9153 10.7068C14.9092 10.735 14.9032 10.7612 14.8972 10.7894C14.8972 10.8539 15.7055 11.1097 15.7055 11.1097C15.7276 11.1097 15.7457 11.1177 15.7618 11.1278C15.7698 11.1318 15.7819 11.1359 15.79 11.1399L15.8543 11.148C16.2866 11.3172 16.6787 11.4844 16.9381 11.5951L16.9401 11.5972Z" fill="#0066FF"/>
<path d="M13.3476 2.11569C13.5085 2.23453 13.6713 2.36144 13.8262 2.48633C13.788 2.45208 13.7498 2.41985 13.7116 2.38561C13.5929 2.29094 13.4723 2.20029 13.3476 2.11569Z" fill="#0066FF"/>
<path d="M13.7712 1.00703C12.3314 0.33021 10.5921 0.269778 9.07192 0.265749L9.04176 0.265749L9.01159 0.265749L8.93317 0.265749C7.41502 0.269778 5.67367 0.33021 4.23394 1.00703C2.86056 1.99608 2.18293 3.02944 2.21309 4.08294C2.3458 3.87144 2.44031 3.63576 2.5308 3.40411C2.59313 3.24497 2.65546 3.0798 2.73187 2.92469L2.73187 2.91865L2.74193 2.91462C2.78617 2.88441 2.84046 2.88038 2.88671 2.87836C3.20642 2.25794 3.83982 1.8732 4.45312 1.50256C4.68034 1.36357 4.89549 1.23264 5.09657 1.09163C5.09657 1.09163 5.09657 1.09163 5.09657 1.0876C5.21722 0.80761 5.50677 0.743151 5.74003 0.688764L5.77622 0.680705C6.63081 0.517542 7.4854 0.43697 8.42444 0.43697C8.61748 0.43697 8.81655 0.440998 9.01763 0.449056C9.02567 0.449056 9.03371 0.449056 9.04176 0.449056C9.22474 0.443013 9.40571 0.438984 9.58065 0.438984C10.5197 0.438984 11.3743 0.517545 12.2289 0.682722L12.2651 0.690778C12.4983 0.743151 12.7899 0.809627 12.9085 1.08962C12.9085 1.08962 12.9085 1.09163 12.9085 1.09365C13.1096 1.23667 13.3248 1.3676 13.552 1.50458C14.1653 1.87522 14.7987 2.25996 15.1184 2.88038C15.1646 2.88239 15.2189 2.88642 15.2632 2.91664L15.2692 2.92067L15.2732 2.92671C15.3496 3.08181 15.414 3.24498 15.4743 3.40613C15.5648 3.63778 15.6573 3.87547 15.792 4.08496C15.8222 3.03146 15.1445 1.99809 13.7712 1.00905L13.7712 1.00703Z" fill="#00317A"/>
<path d="M15.0481 3.05207C15.0542 3.00373 15.0622 2.95538 15.0723 2.90704C14.7626 2.29468 14.1312 1.91195 13.5219 1.54333C13.3028 1.41038 13.0776 1.2734 12.8745 1.13038C12.8664 1.13038 12.8604 1.12837 12.8544 1.12434C12.7679 1.11628 12.6875 1.08002 12.611 1.04175C12.5085 0.991393 12.412 0.945061 12.3054 0.971248C12.2994 0.98132 12.2974 0.989377 12.2933 0.999449C12.3094 1.09211 12.3456 1.18477 12.3818 1.27139C12.422 1.37211 12.4643 1.47685 12.4763 1.58764C12.4763 1.58764 12.4783 1.58965 12.4783 1.59167C12.5346 1.61383 12.595 1.64203 12.6553 1.67426C13.0373 1.85756 13.3792 2.1013 13.7069 2.38734C13.7451 2.41957 13.7833 2.45381 13.8215 2.48805C14.3584 2.92517 14.8028 3.3502 14.8249 3.37034C14.8591 3.40459 14.8853 3.42473 14.9174 3.42271C14.9295 3.41063 14.9396 3.39854 14.9536 3.38646C15.0119 3.28775 15.03 3.16891 15.0461 3.0561L15.0481 3.05207ZM14.7184 3.07624C14.4952 2.93323 14.3102 2.69151 14.1071 2.51827C13.8075 2.26245 13.3752 2.01468 13.162 1.69642C13.4415 1.6944 13.8195 2.01065 14.0267 2.16374C14.2961 2.36316 14.5957 2.63107 14.7566 2.91308L14.7365 2.89495C14.7887 2.96143 14.7887 3.03394 14.7164 3.07624L14.7184 3.07624Z" fill="#D7DEEB"/>
<path d="M15.7283 10.4423C15.7022 10.4423 15.6801 10.4282 15.668 10.408C15.664 10.408 15.658 10.408 15.6539 10.408L15.6539 10.4382L15.7082 10.4805C15.859 10.5954 16.042 10.6941 16.221 10.7887C16.6433 11.0123 17.0414 11.2258 17.0575 11.6448L16.9449 11.5965C16.6855 11.4857 16.2934 11.3185 15.8611 11.1493L15.7967 11.1412C16.032 11.2379 16.6855 11.5401 16.9228 11.6408L17.0615 11.6992C17.0615 11.6992 17.0695 11.6992 17.0736 11.6992C17.0897 11.6992 17.1017 11.6952 17.1158 11.6932C17.1319 11.2117 16.6835 10.9741 16.2511 10.7444C16.0742 10.6497 15.8932 10.5531 15.7464 10.4402C15.7424 10.4402 15.7384 10.4402 15.7344 10.4402L15.7283 10.4423Z" fill="#1A1F29"/>
<path d="M15.7617 11.1318C15.7476 11.1197 15.7275 11.1137 15.7054 11.1137C15.7114 11.1137 15.7316 11.1197 15.7617 11.1318Z" fill="#1A1F29"/>
<path d="M15.7822 4.25814L15.7822 4.27023C15.7661 4.78389 15.7842 5.31769 15.8043 5.83337C15.8425 6.91306 15.8827 8.03102 15.5992 9.06237L15.5831 9.12079L15.5911 9.13086C15.5911 9.13086 15.6072 9.12482 15.6133 9.1228C15.6153 9.10266 15.6293 9.08654 15.6474 9.07446C15.933 8.03707 15.8948 6.91709 15.8566 5.83135C15.8385 5.31366 15.8184 4.77785 15.8365 4.26217C15.8365 4.25815 15.8365 4.25411 15.8365 4.25009C15.8184 4.22793 15.8043 4.20376 15.7882 4.1816C15.7882 4.20577 15.7882 4.22994 15.7842 4.25412L15.7842 4.26217L15.7822 4.25814Z" fill="#1A1F29"/>
<path d="M15.6514 10.3516C15.6514 10.3516 15.6535 10.3516 15.6555 10.3516C15.6595 10.138 15.6474 9.9225 15.6333 9.71503C15.6233 9.54381 15.6132 9.36654 15.6112 9.18928C15.6112 9.18928 15.6092 9.18928 15.6072 9.18928C15.6072 9.36654 15.6193 9.54179 15.6293 9.71503C15.6414 9.92452 15.6535 10.1401 15.6494 10.3516L15.6514 10.3516Z" fill="#1A1F29"/>
<path d="M14.4449 7.65302C14.4228 7.73964 14.4831 7.82625 14.5796 7.8464C14.6761 7.86654 14.7707 7.81215 14.7928 7.72352C14.9858 6.95605 14.9275 6.13823 14.8652 5.27407C14.831 4.8148 14.4409 3.32418 14.4409 3.83985C14.4409 4.35553 14.4751 4.83091 14.5093 5.29623L14.4469 7.65302L14.4449 7.65302Z" fill="#3385FF"/>
<path d="M13.5787 30.6702C13.5626 30.7689 13.5626 30.9885 13.4882 31.2061C13.8159 31.2061 14.1135 31.0751 14.3709 30.8878C14.4151 30.7287 14.4513 30.5695 14.4795 30.4084C14.202 30.5393 13.8702 30.6199 13.5807 30.6702L13.5787 30.6702Z" fill="#F5222D"/>
<path d="M14.4788 30.4093C14.4507 30.5704 14.4145 30.7295 14.3702 30.8887C14.7804 30.5905 15.0861 30.1494 15.2389 29.8755C15.2831 29.7949 15.249 29.8573 15.2831 29.7828C15.3093 29.6821 15.3334 29.5793 15.3535 29.4746C15.261 29.6116 15.1544 29.7626 14.9353 30.0628C14.8307 30.2058 14.6678 30.3186 14.4768 30.4072L14.4788 30.4093Z" fill="#FAAD14"/>
<path d="M15.7139 29.0432C15.7078 29.0835 15.6998 29.1238 15.6938 29.1641C15.7038 29.1218 15.7098 29.0835 15.7139 29.0432Z" fill="#1A1F29"/>
<path d="M14.8046 29.9843C14.6196 30.2361 14.1551 30.4335 13.4936 30.5382L13.4594 30.5443C13.4433 30.6752 13.4272 30.8041 13.4152 30.929C13.4252 30.9411 13.4292 30.9552 13.4192 30.9693L13.4051 30.9874C13.3508 31.1526 13.4654 31.3379 13.3327 31.344C13.6665 31.3802 13.9742 31.2916 14.2416 31.1486C14.0646 31.2714 13.8837 31.3681 13.7148 31.4225L13.765 31.4104L13.761 31.4165L13.7389 31.4165L13.7148 31.4225C13.6866 31.4286 13.6605 31.4346 13.6343 31.4406L13.6243 31.4286L13.2362 31.5434C12.3454 31.63 11.4908 31.6783 10.6382 31.7025C10.1174 31.7186 9.59665 31.7247 9.06982 31.7267L8.9351 31.7267C8.40827 31.7247 7.88747 31.7186 7.36668 31.7025C6.51611 31.6783 5.65951 31.63 4.76873 31.5434L4.38064 31.4286L4.36858 31.4406C4.34445 31.4346 4.3163 31.4286 4.29016 31.4225L4.26603 31.4185L4.24391 31.4185L4.23989 31.4104L4.29016 31.4225C4.12125 31.3701 3.94028 31.2735 3.76333 31.1486C4.03076 31.2916 4.33842 31.3802 4.67221 31.344C4.5395 31.3399 4.65411 31.1526 4.59982 30.9874L4.58574 30.9693C4.57569 30.9572 4.57971 30.9411 4.58976 30.929C4.5777 30.8041 4.56161 30.6752 4.54553 30.5443L4.51134 30.5382C3.84979 30.4315 3.3853 30.234 3.2003 29.9843C2.90673 29.5834 2.81624 29.4484 2.69157 29.2611C2.65739 29.2108 2.62119 29.1544 2.57696 29.0899C2.59907 29.2188 2.6232 29.3457 2.64934 29.4746C2.74184 29.6116 2.84841 29.7627 3.06759 30.0628C3.17215 30.2058 3.33503 30.3186 3.52605 30.4073C3.80354 30.5382 4.13532 30.6188 4.42488 30.6691C4.44097 30.7678 4.44096 30.9874 4.51536 31.205C4.1876 31.205 3.89001 31.074 3.63262 30.8867C3.22242 30.5886 2.91678 30.1474 2.76396 29.8735C2.71972 29.7929 2.75391 29.8553 2.71972 29.7808C2.74988 29.8936 2.78206 30.0044 2.81825 30.1112C2.81624 30.1051 2.81423 30.1031 2.81825 30.1132L2.70967 30.1978C2.94895 30.788 3.58638 31.2634 4.17353 31.4447C4.17755 31.4447 4.18157 31.4406 4.18559 31.4406C4.1876 31.4406 4.18962 31.4406 4.19163 31.4406C4.30423 31.4668 4.42689 31.491 4.55357 31.5152C4.60183 31.5232 4.67824 31.5373 4.74862 31.5494C4.82503 31.5635 4.90345 31.5756 4.98388 31.5877C6.17829 31.7025 7.43303 31.7549 9.01754 31.7549L9.03765 31.7549C10.594 31.7549 11.8327 31.7025 13.013 31.5877C13.0934 31.5756 13.1718 31.5635 13.2483 31.5494C13.3206 31.5373 13.395 31.5232 13.4433 31.5152C13.57 31.491 13.6926 31.4668 13.8053 31.4406C13.8073 31.4406 13.8093 31.4406 13.8113 31.4406C13.8153 31.4406 13.8193 31.4447 13.8233 31.4447C14.4105 31.2634 15.0479 30.788 15.2872 30.1978L15.1786 30.1132C15.1847 30.1011 15.1826 30.1051 15.1786 30.1112C15.2168 30.0024 15.249 29.8916 15.2772 29.7808C15.243 29.8553 15.2772 29.7909 15.2329 29.8735C15.0821 30.1474 14.7745 30.5886 14.3643 30.8867C14.1069 31.074 13.8093 31.205 13.4815 31.205C13.5539 30.9874 13.5559 30.7679 13.572 30.6691C13.8616 30.6188 14.1953 30.5382 14.4708 30.4073C14.6598 30.3166 14.8247 30.2038 14.9293 30.0628C15.1485 29.7627 15.255 29.6096 15.3475 29.4746C15.3737 29.3477 15.3978 29.2188 15.4199 29.0899C15.3757 29.1544 15.3395 29.2087 15.3053 29.2611C15.1806 29.4485 15.0902 29.5834 14.7966 29.9843L14.8046 29.9843Z" fill="#1A1F29"/>
<path d="M14.7604 2.91301C14.6015 2.631 14.2999 2.36309 14.0305 2.16367C13.8213 2.01058 13.4453 1.69433 13.1658 1.69634C13.377 2.01461 13.8113 2.26238 14.1109 2.5182C14.312 2.69143 14.497 2.93315 14.7222 3.07617C14.7946 3.03387 14.7946 2.95934 14.7423 2.89488L14.7624 2.91301L14.7604 2.91301Z" fill="white"/>
<path d="M3.13991 16.7352L3.12181 16.7272L3.12181 16.709C2.98508 15.3755 2.99312 13.9715 3.00117 12.6139C3.00318 12.078 3.0072 11.5261 3.00117 10.9883C2.79406 11.0588 2.58895 11.1333 2.3919 11.2078C2.37782 12.1304 2.35168 14.5396 2.32956 16.981C2.46026 17.0172 2.66134 17.0777 2.88253 17.1461C3.35105 17.2871 3.9764 17.4765 4.18754 17.5107C4.18754 17.5027 4.18754 17.4946 4.18955 17.4866C4.20161 17.3738 4.21167 17.2589 4.15939 17.1663C3.78136 17.0656 3.44153 16.8903 3.13991 16.7352Z" fill="#0066FF"/>
<path d="M3.47208 8.92788C3.39768 9.0286 3.39567 9.15148 3.39366 9.28442C3.39366 9.34687 3.39366 9.41133 3.3816 9.47377C3.3816 9.47377 3.37958 9.47579 3.37958 9.4778C3.53643 10.0418 3.67115 10.634 3.80185 11.2081C3.9969 12.0683 4.19999 12.9546 4.48552 13.7744C5.88303 13.3574 7.38107 13.1439 8.94547 13.1419L8.94748 13.1419C8.94748 13.1419 8.96357 13.1419 8.97161 13.1419C8.98569 13.1419 9.00178 13.1419 9.01786 13.1419C9.02591 13.1419 9.03395 13.1419 9.04199 13.1419C9.04199 13.1419 9.05204 13.1419 9.05808 13.1419L9.06009 13.1419C10.6245 13.1439 12.1245 13.3574 13.52 13.7744C13.8036 12.9566 14.0067 12.0683 14.2037 11.2081C14.3344 10.634 14.4691 10.0418 14.626 9.4778C14.626 9.4778 14.624 9.47579 14.624 9.47377C14.6139 9.41133 14.6139 9.34687 14.6119 9.28442C14.6119 9.15148 14.6079 9.02659 14.5335 8.92789C14.5315 8.92587 14.5335 8.92184 14.5315 8.91781C13.0053 7.9892 11.0628 7.47755 9.04199 7.47151C9.04199 7.47151 9.02591 7.47151 9.01786 7.47151C6.9769 7.46748 5.01235 7.97912 3.47208 8.91781C3.47208 8.92184 3.47208 8.92386 3.47007 8.92788L3.47208 8.92788ZM5.73825 12.0864C6.93266 12.2637 7.84155 12.2798 9.04199 12.2536C10.2022 12.2777 11.099 12.2596 12.2673 12.0864C13.4778 11.9071 13.9142 10.0801 14.2942 9.34284C14.1434 9.96729 13.89 11.2001 13.6568 11.8084C13.4999 13.5448 11.5153 12.7129 9.04199 12.7411C6.53252 12.6927 4.50764 13.5629 4.34879 11.8084C4.11554 11.2021 3.86218 9.96729 3.71137 9.34284C4.09141 10.0821 4.52976 11.9071 5.73825 12.0864Z" fill="#364258"/>
<path d="M4.19443 21.608C4.19041 21.4932 4.1884 21.3763 4.19443 21.2595C4.19443 21.2595 4.19443 21.2575 4.19443 21.2555L4.19443 17.958C3.85863 17.9257 3.52081 17.8593 3.22322 17.7666C3.20914 17.7646 3.19506 17.7646 3.18099 17.7646C3.14479 19.3237 3.22523 20.9392 3.30365 22.5003C3.3137 22.6937 3.32375 22.8871 3.3318 23.0785C3.39614 23.0865 3.46049 23.0926 3.51478 23.0785C3.61934 22.9576 3.71184 22.8246 3.80031 22.6957C3.9089 22.5406 4.0215 22.3835 4.1522 22.2425C4.1522 22.2425 4.1522 22.2385 4.1522 22.2365C4.20851 22.035 4.20247 21.8155 4.19644 21.606L4.19443 21.608Z" fill="#364258"/>
<path d="M4.17211 22.3289C4.05951 22.4558 3.95897 22.5968 3.86245 22.7338C3.76995 22.8667 3.67343 23.0037 3.56485 23.1286L3.55882 23.1366L3.54876 23.1406C3.47034 23.1668 3.38388 23.1568 3.30747 23.1467L3.25921 23.1406L3.25921 23.1124C3.24915 22.911 3.23709 22.7076 3.22704 22.5061C3.14862 20.9329 3.06818 19.3053 3.10639 17.7341L3.10639 17.7039L3.14057 17.7019C3.15465 17.7019 3.16872 17.6999 3.1828 17.6999C3.2009 17.6999 3.21899 17.6999 3.2391 17.7059C3.53469 17.7966 3.86446 17.861 4.19222 17.8933C4.19222 17.859 4.19222 17.8248 4.19222 17.7905C4.19222 17.716 4.19423 17.6435 4.18418 17.573C3.96902 17.5408 3.35975 17.3554 2.86107 17.2044C2.64793 17.1399 2.4569 17.0815 2.32821 17.0452C2.30408 19.5229 2.25783 21.8998 2.25381 22.9009C2.25381 22.9231 2.2699 23.0641 2.25381 23.0782C2.31614 23.2253 2.35234 23.3864 2.38652 23.5415C2.42674 23.7329 2.47098 23.9323 2.56548 24.1055C2.57755 24.1156 2.59162 24.1277 2.60369 24.1378C2.61777 24.1519 2.63385 24.1639 2.64994 24.178C2.75852 24.2284 2.87112 24.1962 2.98775 24.1619C3.02998 24.1498 3.0722 24.1378 3.11443 24.1297C3.11443 24.1297 3.12851 24.1277 3.1466 24.1237C3.17878 24.1075 3.19888 24.0955 3.2009 24.0955C3.20693 24.0995 3.20894 24.1055 3.21095 24.1096L3.26122 24.1096C3.27731 24.1096 3.28937 24.1055 3.28937 24.1055C3.49849 23.6604 3.78403 23.193 4.13994 22.7176C4.13994 22.7176 4.13994 22.7136 4.13994 22.7116C4.13994 22.7076 4.13793 22.7055 4.13994 22.7015C4.18418 22.5786 4.19624 22.4477 4.17613 22.3269L4.17211 22.3289Z" fill="#0066FF"/>
<path d="M4.13563 15.6938C4.05519 14.3341 3.69124 12.9886 3.33935 11.6893C3.27098 11.4395 3.20463 11.1897 3.13827 10.94C3.11816 10.946 3.09805 10.9541 3.07795 10.9601C3.08398 11.506 3.08197 12.068 3.07795 12.6119C3.0699 13.9635 3.06387 15.3595 3.19457 16.6829C3.48212 16.8319 3.80586 16.9931 4.15976 17.0918C4.1859 16.8924 4.1678 16.6104 4.1497 16.3364C4.13361 16.0947 4.11753 15.8651 4.1316 15.6979C4.1316 15.6979 4.1316 15.6959 4.13361 15.6938L4.13563 15.6938Z" fill="#364258"/>
<path d="M5.05252 7.52929C4.58401 7.6985 4.05517 7.91001 3.73344 8.27662C3.73344 8.27662 3.73143 8.27662 3.72942 8.27662C3.69926 8.35316 3.65904 8.42568 3.61882 8.49618C3.55247 8.611 3.49415 8.72179 3.47606 8.84668C4.99823 7.93015 6.92659 7.42455 8.93135 7.41246L8.98765 7.41246C8.98765 7.41246 8.99369 7.41246 8.9957 7.41246L9.03591 7.41246C9.03591 7.41246 9.03792 7.41246 9.03993 7.41246L9.0701 7.41246C11.0749 7.42253 13.0032 7.93015 14.5254 8.84668C14.5073 8.72179 14.449 8.611 14.3826 8.49618C14.3424 8.42568 14.3022 8.35316 14.272 8.27662C14.272 8.27662 14.27 8.27662 14.268 8.27662C13.9463 7.91001 13.4174 7.6985 12.9489 7.52929C12.5528 7.38627 12.1366 7.26944 11.7123 7.1788C10.8738 7.00153 9.97294 6.91089 9.03792 6.9129C9.03792 6.9129 9.02184 6.9129 9.01379 6.9129C8.05866 6.90887 7.13973 6.99952 6.28514 7.18081C5.86086 7.27146 5.44463 7.38829 5.0485 7.53131L5.05252 7.52929Z" fill="#0052CC"/>
<path d="M3.20251 29.984C3.3875 30.2357 3.85199 30.4332 4.51355 30.5379L4.54773 30.5439C4.51556 30.2861 4.47936 30.0182 4.44116 29.7402C4.32051 28.864 4.19584 27.9595 4.20187 27.1981C4.20187 27.1961 4.20388 27.1941 4.20589 27.1921C4.20589 27.1921 4.20589 27.1921 4.20589 27.1901C4.24008 26.3259 4.36877 25.4436 4.49344 24.5895C4.54773 24.2269 4.60202 23.8503 4.64827 23.4836C4.64425 23.4776 4.64023 23.4736 4.64023 23.4655C4.68245 22.6578 4.69653 21.9366 4.68447 21.2578C4.68447 21.2538 4.68849 21.2497 4.68849 21.2477C4.69452 18.7701 4.6724 16.9672 4.62012 15.7425C4.62012 15.7425 4.62012 15.7425 4.62012 15.7405C4.55779 15.0012 4.49344 14.3909 4.42105 13.8208C4.42105 13.8168 4.42306 13.8148 4.42507 13.8107C4.13753 12.9848 3.93243 12.0905 3.73537 11.2223C3.60467 10.6502 3.47196 10.06 3.3131 9.50002C3.06779 9.50606 2.86067 9.40736 2.6616 9.30865C2.57313 9.26434 2.48666 9.22607 2.39819 9.19182C2.39819 9.36909 2.38612 9.54433 2.37607 9.71757C2.36401 9.92706 2.34993 10.1426 2.35395 10.3541C2.56307 10.3481 2.79432 10.197 2.87475 10.0459L2.8848 10.0278L2.90692 10.0278C2.93306 10.0318 2.95719 10.0439 2.97328 10.052L2.98534 10.058L2.98936 10.0701C3.06779 10.3199 3.13615 10.5938 3.18843 10.8597C3.19447 10.8637 3.20251 10.8698 3.20653 10.8778C3.21055 10.8879 3.20854 10.898 3.20653 10.906C3.2749 11.1619 3.34326 11.4197 3.41364 11.6755C3.76754 12.9808 4.1315 14.3304 4.21193 15.6982C4.21193 15.7022 4.21595 15.7042 4.21394 15.7062C4.19986 15.8694 4.21394 16.095 4.23204 16.3347C4.25214 16.6248 4.27024 16.9229 4.24008 17.1284C4.30644 17.2432 4.29437 17.3761 4.28231 17.495C4.28231 17.5091 4.2803 17.5232 4.27828 17.5393C4.29437 17.6239 4.29236 17.7085 4.29035 17.7911C4.29035 17.8374 4.29035 17.8837 4.29035 17.9301L4.29035 21.2558C4.29035 21.2558 4.28834 21.2598 4.28834 21.2618C4.28231 21.3746 4.28432 21.4935 4.28834 21.6063C4.29437 21.8238 4.3004 22.0474 4.24209 22.2589C4.24209 22.2589 4.24209 22.2589 4.24008 22.2609C4.27627 22.406 4.26823 22.5752 4.21193 22.7262C4.21193 22.7605 4.20791 22.7988 4.20589 22.8391C4.19584 23.0304 4.17372 23.2238 4.14356 23.4152C3.94449 24.9199 3.3875 27.7964 3.38348 27.8004C3.38147 27.8004 3.84998 23.6569 3.27288 24.1564L3.21658 24.1564C3.21658 24.1585 3.20653 24.1625 3.19849 24.1665C3.17637 24.1786 3.14419 24.1947 3.13213 24.1907C3.09191 24.1987 3.0517 24.2088 3.01148 24.2209C2.8848 24.2572 2.75209 24.2974 2.61535 24.231L2.60932 24.2269C2.59122 24.2128 2.57514 24.1987 2.55905 24.1826C2.54498 24.1705 2.53291 24.1585 2.51884 24.1464L2.51079 24.1363C2.41025 23.953 2.36601 23.7475 2.32379 23.5501C2.29966 23.4413 2.27553 23.3326 2.24135 23.2258C2.22526 23.1875 2.2132 23.1654 2.19912 23.1533C2.15488 24.094 2.13276 25.4114 2.20716 26.5314C2.23934 26.9362 2.27754 27.2968 2.31575 27.5607C2.32178 27.605 2.32982 27.6493 2.33585 27.6916C2.33987 27.6977 2.34591 27.7017 2.34792 27.7098C2.42031 28.024 2.47058 28.3523 2.51883 28.6686C2.53894 28.8076 2.56106 28.9466 2.58519 29.0876C2.62943 29.152 2.66562 29.2064 2.69981 29.2588C2.82448 29.4461 2.91496 29.5811 3.20854 29.9819L3.20251 29.984Z" fill="#0066FF"/>
<path d="M4.24678 31.4158L4.2689 31.4178L4.29102 31.4219L4.24276 31.4078L4.24678 31.4158Z" fill="#0066FF"/>
<path d="M3.76392 31.1484C3.94087 31.2713 4.12184 31.368 4.29075 31.4224C4.3189 31.4284 4.34504 31.4345 4.36917 31.4405L4.38124 31.4284L4.76932 31.5433C5.6601 31.6299 6.51469 31.6782 7.36727 31.7024C7.89611 31.7165 8.41892 31.7245 8.93569 31.7266L9.07042 31.7266C9.58719 31.7245 10.11 31.7185 10.6388 31.7024C11.4894 31.6782 12.346 31.6299 13.2368 31.5433L13.6249 31.4284L13.6349 31.4405C13.6591 31.4345 13.6872 31.4284 13.7154 31.4224C13.8843 31.37 14.0652 31.2733 14.2422 31.1484C13.9748 31.2915 13.6671 31.3801 13.3333 31.3438C12.2897 31.3821 10.6348 31.4063 9.04226 31.4123C7.42558 31.4063 5.7345 31.3821 4.6728 31.3438C4.33901 31.3801 4.03337 31.2915 3.76392 31.1484Z" fill="#0066FF"/>
<path d="M2.30213 10.4812C2.15132 10.596 1.96833 10.6947 1.78937 10.7894C1.36711 11.013 0.968967 11.2265 0.95288 11.6455L1.06549 11.5972C1.32488 11.4864 1.71698 11.3192 2.14931 11.15L2.21365 11.1419C2.21365 11.1419 2.23376 11.1339 2.2418 11.1298C2.25789 11.1177 2.27599 11.1117 2.2981 11.1117C2.2981 11.1117 3.10645 10.8559 3.10645 10.7914C3.10041 10.7632 3.09438 10.737 3.08835 10.7088C3.06221 10.6061 3.02802 10.457 2.98982 10.308C2.96971 10.2355 2.95161 10.1629 2.92949 10.0945C2.92547 10.0945 2.92346 10.0924 2.91944 10.0904C2.8189 10.2536 2.5776 10.4047 2.35441 10.4107L2.35441 10.4409L2.30012 10.4832L2.30213 10.4812Z" fill="#0066FF"/>
<path d="M4.18159 2.48633C4.33642 2.36144 4.49728 2.23454 4.66016 2.11569C4.53549 2.20029 4.41484 2.29094 4.2962 2.38561C4.258 2.41784 4.21979 2.45208 4.18159 2.48633Z" fill="#0066FF"/>
<path d="M2.2233 4.25845L2.2233 4.27053C2.23938 4.78419 2.22128 5.318 2.20319 5.83367C2.16498 6.91336 2.12477 8.03133 2.40829 9.06268L2.42437 9.12109L2.41633 9.13116C2.51084 9.16541 2.60334 9.21174 2.69382 9.25605C2.88284 9.34871 3.07789 9.44339 3.30309 9.44137C3.30913 9.39101 3.31114 9.34066 3.31114 9.28627C3.31315 9.14929 3.31516 9.00627 3.40363 8.88944C3.40363 8.88944 3.40766 8.88743 3.40967 8.88541C3.41972 8.73232 3.49211 8.6034 3.56249 8.4765C3.6027 8.40801 3.64292 8.33549 3.67107 8.26096C3.67107 8.25492 3.67107 8.24686 3.6771 8.24082C4.0109 7.86212 4.54778 7.64659 5.02635 7.47335C5.4265 7.33033 5.84474 7.21149 6.27304 7.12084C7.11959 6.94156 8.02646 6.85092 8.96952 6.85092C8.98561 6.85092 9.0017 6.85092 9.01778 6.85092L9.04191 6.85092C9.98296 6.85092 10.8878 6.94156 11.7324 7.12084C12.1607 7.21149 12.5789 7.33033 12.9791 7.47335C13.4576 7.64659 13.9945 7.86212 14.3283 8.24082C14.3343 8.24686 14.3343 8.25291 14.3343 8.26096C14.3625 8.3355 14.4027 8.40801 14.4429 8.4765C14.5133 8.60139 14.5857 8.73232 14.5957 8.88541C14.5977 8.88541 14.5998 8.88743 14.6018 8.88944C14.6902 9.00829 14.6923 9.14929 14.6943 9.28627C14.6943 9.34066 14.6963 9.39102 14.7023 9.44137C14.9275 9.44339 15.1226 9.34871 15.3116 9.25605C15.4021 9.21174 15.4926 9.16742 15.5891 9.13116L15.581 9.12109L15.5971 9.06268C15.8806 8.03133 15.8404 6.91336 15.8022 5.83367C15.7841 5.318 15.766 4.78621 15.7821 4.27053L15.7821 4.25845L15.7821 4.25039C15.7841 4.22622 15.7841 4.20205 15.7861 4.17787C15.6253 3.94622 15.5187 3.68234 15.4182 3.42249C15.3578 3.26739 15.2955 3.10624 15.2211 2.95516C15.1929 2.93905 15.1588 2.93703 15.1266 2.93502C15.1185 2.97732 15.1105 3.01962 15.1045 3.06192C15.0864 3.18077 15.0683 3.30566 15.0039 3.41444L14.9979 3.42048C14.9838 3.43256 14.9718 3.44465 14.9577 3.46076L14.9516 3.46681L14.9416 3.46681C14.8933 3.47755 14.8015 3.44062 14.6661 3.35602C14.6661 3.35602 14.6601 3.35602 14.6561 3.35602C14.654 3.35602 14.652 3.35602 14.648 3.35602C14.644 3.35602 14.8813 3.59573 14.6319 3.34595C13.9583 2.66711 13.2968 1.98223 12.4522 1.63778C12.4482 1.63778 12.4462 1.63979 12.4422 1.63778C11.3342 1.42828 10.1881 1.32152 9.0399 1.32152C9.0399 1.32152 9.0218 1.32152 9.01577 1.32152C7.8475 1.31951 6.68526 1.42627 5.55921 1.63979C5.55519 1.63979 5.55318 1.63979 5.54916 1.63979C4.70462 1.98425 4.04307 2.67114 3.36945 3.34796C3.12011 3.59774 3.35739 3.35602 3.35337 3.35803C3.35135 3.35803 3.34934 3.35803 3.34532 3.35803C3.3413 3.35803 3.33929 3.35803 3.33527 3.35803C3.19987 3.44398 3.10805 3.48158 3.05979 3.47084L3.04973 3.47084L3.0437 3.46278C3.02963 3.44667 3.01756 3.43458 3.00349 3.42249L2.99745 3.41645C2.9311 3.30767 2.91501 3.1848 2.89691 3.06394C2.89088 3.02163 2.88284 2.97934 2.87479 2.93703C2.84061 2.93703 2.80643 2.94307 2.78029 2.95718C2.70589 3.10825 2.64355 3.2694 2.58323 3.42451C2.48269 3.68436 2.37612 3.94824 2.21525 4.17989C2.21525 4.20406 2.21525 4.22823 2.21927 4.25241L2.21927 4.26046L2.2233 4.25845ZM14.8632 5.2757C14.9255 6.13985 14.9858 6.95768 14.7908 7.72515C14.7687 7.81176 14.6742 7.86817 14.5776 7.84802C14.4811 7.82788 14.4208 7.74126 14.4429 7.65465L14.5052 5.29786C14.4711 4.83254 14.4369 4.35111 14.4369 3.84148C14.4369 3.33185 14.827 4.81643 14.8612 5.2757L14.8632 5.2757ZM3.14223 5.2757C3.17641 4.81642 3.56651 3.3258 3.56651 3.84148C3.56651 4.35715 3.53233 4.83254 3.49814 5.29785L3.56048 7.65464C3.5826 7.74126 3.52227 7.82788 3.42575 7.84802C3.32924 7.86817 3.23473 7.81378 3.21261 7.72515C3.01957 6.95768 3.07789 6.13985 3.14022 5.2757L3.14223 5.2757Z" fill="#0066FF"/>
<path d="M5.71191 0.999236C5.71191 0.999236 5.70588 0.981107 5.69985 0.971035C5.59328 0.942834 5.49676 0.99118 5.39421 1.04154C5.3178 1.07981 5.23737 1.11607 5.1509 1.12413C5.14487 1.12816 5.13884 1.13017 5.13079 1.13017C4.9277 1.27319 4.70048 1.41218 4.48332 1.54311C3.87203 1.91174 3.24266 2.29446 2.93299 2.90683C2.94305 2.95517 2.95109 3.00352 2.95712 3.05186C2.97321 3.16668 2.9913 3.28351 3.04962 3.38221C3.06168 3.3943 3.07375 3.40639 3.0838 3.41847C3.11799 3.4225 3.14212 3.40034 3.1763 3.3661C3.19641 3.34596 3.6428 2.92294 4.17969 2.48381C4.21789 2.44957 4.2561 2.41734 4.2943 2.3831C4.62206 2.09907 4.9639 1.85332 5.34595 1.67002C5.40627 1.63779 5.4666 1.60958 5.5229 1.58743C5.5229 1.58743 5.5229 1.58541 5.52491 1.5834C5.53899 1.47261 5.5792 1.36786 5.62143 1.26715C5.65762 1.17851 5.69382 1.08787 5.7099 0.99521L5.71191 0.999236ZM3.89817 2.51806C3.69709 2.69129 3.5121 2.93301 3.28689 3.07603C3.2145 3.03373 3.2145 2.9592 3.26678 2.89474L3.24668 2.91287C3.40754 2.63086 3.70715 2.36295 3.9766 2.16353C4.18572 2.01044 4.56174 1.69419 4.84124 1.6962C4.63011 2.01447 4.19577 2.26224 3.89616 2.51806L3.89817 2.51806Z" fill="#D7DEEB"/>
<path d="M0.952793 11.7011L1.09154 11.6427C1.3268 11.542 1.98232 11.2398 2.21759 11.1431L2.15324 11.1512C1.72092 11.3204 1.32881 11.4876 1.06942 11.5984L0.956816 11.6467C0.972902 11.2277 1.37104 11.0162 1.79331 10.7906C1.97227 10.6959 2.15525 10.5972 2.30606 10.4824L2.36035 10.4401L2.36035 10.4099C2.36035 10.4099 2.3503 10.4099 2.34427 10.4099C2.3322 10.4301 2.31008 10.4421 2.28394 10.4442C2.28394 10.4442 2.2759 10.4442 2.27188 10.4442C2.12509 10.557 1.94412 10.6536 1.76717 10.7483C1.33485 10.978 0.888448 11.2177 0.902523 11.6971C0.916599 11.7011 0.928665 11.7011 0.944751 11.7031C0.948773 11.7031 0.952794 11.7031 0.956816 11.7031L0.952793 11.7011Z" fill="#1A1F29"/>
<path d="M2.2998 11.1137C2.27769 11.1137 2.25959 11.1218 2.2435 11.1318C2.27366 11.1197 2.29377 11.1137 2.2998 11.1137Z" fill="#1A1F29"/>
<path d="M2.21359 4.08282C2.18342 3.02931 2.86106 1.99595 4.23444 1.0069C5.67417 0.330082 7.41351 0.269649 8.93367 0.265621L8.994 0.265621L9.0141 0.265621L9.07443 0.265621C10.5926 0.26965 12.3339 0.330082 13.7737 1.0069C15.147 1.99595 15.8247 3.02931 15.7945 4.08282C15.8106 4.10699 15.8267 4.12915 15.8428 4.15332C15.9051 3.05953 15.2214 1.98789 13.8018 0.966618C12.3741 0.29181 10.675 0.219293 9.04427 0.217279C9.04427 0.217279 9.02818 0.217279 9.02014 0.217279C7.37329 0.217278 5.65004 0.285766 4.2083 0.966617C2.78867 1.98789 2.10299 3.05953 2.16734 4.15332C2.18342 4.12915 2.20152 4.10699 2.2156 4.08282L2.21359 4.08282Z" fill="#1A1F29"/>
<path d="M2.39459 9.12085C2.39459 9.12085 2.41067 9.12488 2.41871 9.12891L2.42676 9.11883L2.41067 9.06042C2.12715 8.02907 2.16736 6.91111 2.20557 5.83141C2.22367 5.31574 2.24176 4.78395 2.22568 4.26828L2.22568 4.25619L2.22568 4.24813C2.22367 4.22396 2.22367 4.19979 2.22166 4.17562C2.20557 4.19777 2.18948 4.22195 2.1734 4.2441C2.1734 4.24813 2.1734 4.25216 2.1734 4.25619C2.18948 4.77186 2.17139 5.30768 2.15329 5.82537C2.11508 6.91111 2.07688 8.0331 2.36241 9.06848C2.38051 9.07855 2.39458 9.09466 2.3966 9.11682L2.39459 9.12085Z" fill="#1A1F29"/>
<path d="M2.39844 9.18928C2.39844 9.18928 2.39643 9.18928 2.39442 9.18928C2.39442 9.36654 2.38436 9.54381 2.3723 9.71503C2.36023 9.92452 2.34616 10.1401 2.35018 10.3516C2.35018 10.3516 2.35219 10.3516 2.3542 10.3516C2.35018 10.138 2.36224 9.92251 2.37632 9.71503C2.38637 9.54381 2.39643 9.36654 2.39844 9.18928Z" fill="#1A1F29"/>
<path d="M3.4276 7.84552C3.52412 7.82538 3.58445 7.73876 3.56233 7.65214L3.49999 5.29535C3.53418 4.83004 3.56836 4.34861 3.56836 3.83898C3.56836 3.32935 3.17827 4.81392 3.14408 5.27319C3.08175 6.13735 3.02142 6.95518 3.21647 7.72265C3.23859 7.80926 3.3331 7.86566 3.42961 7.84552L3.4276 7.84552Z" fill="#3385FF"/>
<path d="M4.51752 31.2061C4.44513 30.9885 4.44312 30.7689 4.42704 30.6702C4.13748 30.6199 3.80369 30.5393 3.52821 30.4084C3.55636 30.5695 3.59255 30.7287 3.63679 30.8878C3.89417 31.0751 4.19177 31.2061 4.51953 31.2061L4.51752 31.2061Z" fill="#F5222D"/>
<path d="M3.63477 30.8886C3.59053 30.7295 3.55433 30.5703 3.52618 30.4092C3.33717 30.3185 3.17228 30.2057 3.06772 30.0647C2.84854 29.7646 2.74197 29.6115 2.64947 29.4766C2.67159 29.5793 2.69371 29.682 2.71985 29.7847C2.75404 29.8593 2.71985 29.7948 2.76409 29.8774C2.9149 30.1514 3.22255 30.5925 3.63275 30.8906L3.63477 30.8886Z" fill="#FAAD14"/>
<path d="M2.31152 29.1641C2.30549 29.1238 2.29745 29.0835 2.29142 29.0432C2.29544 29.0815 2.30147 29.1218 2.31152 29.1641Z" fill="#1A1F29"/>
<path d="M0.656908 11.7337C0.656908 11.7337 0.739349 11.9634 0.952494 11.915C1.01282 11.9009 1.19178 11.8425 1.19178 11.8425C1.40693 11.7519 1.71258 11.6209 2.05642 11.4819C2.02626 13.732 1.95789 20.8426 1.94985 22.9154C1.87143 24.3335 1.82317 26.2089 2.03631 27.4698C2.03028 27.496 2.06245 27.7398 2.06849 27.766C2.13886 28.0701 2.18913 28.3944 2.23538 28.7067C2.25348 28.8174 2.26956 28.9302 2.28766 29.0431C2.29369 29.0833 2.30174 29.1236 2.30777 29.1639C2.36809 29.5205 2.44249 29.877 2.56314 30.2174C2.57319 30.2476 2.59129 30.2738 2.61743 30.296C3.10606 31.4744 4.43922 31.7181 4.46938 31.708C5.14501 31.8571 7.53383 31.988 8.91324 31.9961L8.96351 31.9961L8.99166 31.9961L9.04193 31.9961L9.0922 31.9961C10.4716 31.9901 12.8604 31.8571 13.532 31.7101C13.5622 31.7201 14.8974 31.4764 15.386 30.298C15.4101 30.2758 15.4282 30.2497 15.4403 30.2194C15.5609 29.877 15.6353 29.5205 15.6957 29.1659C15.7017 29.1256 15.7097 29.0854 15.7158 29.0451C15.7339 28.9323 15.752 28.8195 15.768 28.7087C15.8163 28.3964 15.8646 28.0721 15.9349 27.768C15.941 27.7418 15.9732 27.498 15.9671 27.4719C16.1803 26.2109 16.132 24.3355 16.0536 22.9174C16.0455 20.8446 15.9772 13.734 15.947 11.484C16.2909 11.6209 16.5985 11.7519 16.8117 11.8445C16.8117 11.8445 16.9906 11.9029 17.0509 11.917C17.2641 11.9654 17.3465 11.7357 17.3465 11.7357C17.3867 11.1032 16.8438 10.8152 16.3653 10.5594C16.2144 10.4788 16.0697 10.4022 15.947 10.3176C15.947 10.1102 15.937 9.90269 15.9229 9.70327C15.9108 9.51593 15.8988 9.32256 15.9008 9.13522C15.9008 9.11911 15.9008 9.10501 15.8947 9.08889C16.1762 8.03337 16.136 6.91137 16.0978 5.82765C16.0797 5.314 16.0616 4.78221 16.0777 4.27459L16.0777 4.26855C16.1923 3.06397 15.4765 1.89564 13.9463 0.795807L13.9141 0.777677C12.4221 0.0706401 10.6445 0.00618113 9.0922 0.000136607L8.91123 0.000136591C7.3589 0.00416478 5.58135 0.0706395 4.08934 0.777676L4.05717 0.795806C2.52695 1.89564 1.8091 3.06397 1.92572 4.26855L1.92572 4.27459C1.94181 4.78221 1.92371 5.31399 1.90561 5.82765C1.86741 6.91339 1.82719 8.03337 2.1087 9.08889C2.10468 9.105 2.10267 9.1191 2.10267 9.13522C2.10267 9.32255 2.0906 9.51593 2.08055 9.70327C2.06849 9.9047 2.05642 10.1102 2.05642 10.3176C1.93577 10.4022 1.791 10.4788 1.63818 10.5594C1.15961 10.8152 0.614681 11.1032 0.656908 11.7357L0.656908 11.7337ZM4.14966 16.3385C4.16776 16.6125 4.18586 16.8945 4.15972 17.0939C3.8038 16.9952 3.48007 16.8321 3.19453 16.685C3.06182 15.3616 3.06986 13.9656 3.07791 12.614C3.07992 12.0701 3.08394 11.5081 3.07791 10.9622C3.09801 10.9562 3.11812 10.9481 3.13823 10.9421C3.20459 11.1919 3.27094 11.4417 3.33931 11.6914C3.6912 12.9927 4.05515 14.3363 4.13559 15.696C4.13559 15.696 4.13559 15.698 4.13357 15.7C4.1195 15.8692 4.13358 16.0968 4.15167 16.3385L4.14966 16.3385ZM4.13559 22.716C4.13559 22.716 4.13559 22.72 4.13559 22.722C3.77967 23.1994 3.49414 23.6647 3.28502 24.1099C3.28502 24.1099 3.27295 24.1099 3.25687 24.1139C3.22469 24.118 3.17442 24.124 3.14225 24.128C3.12415 24.1301 3.11008 24.1321 3.11008 24.1341C3.06785 24.1421 3.02563 24.1542 2.9834 24.1663C2.86677 24.2006 2.75618 24.2328 2.64558 24.1824C2.6295 24.1703 2.61542 24.1562 2.59934 24.1421C2.58727 24.1321 2.57521 24.12 2.56113 24.1099C2.46662 23.9367 2.4244 23.7373 2.38217 23.5459C2.34799 23.3908 2.31179 23.2296 2.24946 23.0826C2.26554 23.0685 2.24946 22.9275 2.24946 22.9053C2.25348 21.9042 2.29973 19.5273 2.32386 17.0496C2.45255 17.0859 2.64558 17.1443 2.85672 17.2087C3.3554 17.3598 3.96668 17.5431 4.17982 17.5774C4.18988 17.6479 4.18988 17.7184 4.18787 17.7949C4.18787 17.8292 4.18787 17.8634 4.18787 17.8976C3.86011 17.8654 3.53034 17.801 3.23475 17.7103C3.21263 17.7063 3.19453 17.7043 3.17845 17.7043C3.16437 17.7043 3.15029 17.7043 3.13622 17.7063L3.10405 17.7063L3.10405 17.7385C3.06584 19.3097 3.14627 20.9373 3.22469 22.5105C3.23475 22.714 3.2448 22.9154 3.25486 23.1168L3.25486 23.145L3.30513 23.1511C3.38154 23.1611 3.468 23.1712 3.54642 23.145L3.55648 23.141L3.56251 23.1329C3.67109 23.006 3.76761 22.8691 3.86011 22.7381C3.95663 22.6012 4.05515 22.4602 4.16977 22.3332C4.18988 22.4541 4.17982 22.5871 4.13357 22.7079C4.13357 22.7119 4.13357 22.714 4.13357 22.718L4.13559 22.716ZM4.14966 22.2406C4.14966 22.2406 4.14966 22.2446 4.14966 22.2466C4.01695 22.3876 3.90434 22.5448 3.79777 22.6999C3.7093 22.8288 3.6168 22.9597 3.51224 23.0826C3.45594 23.0987 3.39159 23.0906 3.32925 23.0826C3.3192 22.8892 3.31116 22.6978 3.3011 22.5045C3.22268 20.9433 3.14225 19.3278 3.17845 17.7687C3.19252 17.7687 3.20459 17.7687 3.22067 17.7707C3.51827 17.8634 3.85609 17.9279 4.19189 17.9621L4.19189 21.2596C4.19189 21.2596 4.19189 21.2616 4.19189 21.2636C4.18585 21.3784 4.18787 21.4973 4.19189 21.6121C4.19792 21.8236 4.20395 22.0412 4.14765 22.2426L4.14966 22.2406ZM4.18787 17.4867C4.18787 17.4867 4.18787 17.5028 4.18586 17.5109C3.97472 17.4766 3.34735 17.2873 2.88085 17.1463C2.65765 17.0798 2.45858 17.0174 2.32788 16.9811C2.35201 14.5397 2.37614 12.1285 2.39021 11.208C2.58727 11.1335 2.79237 11.0589 2.99949 10.9884C3.00552 11.5263 3.00351 12.0782 2.99949 12.614C2.99144 13.9717 2.98541 15.3777 3.11812 16.7092L3.11812 16.7273L3.13823 16.7354C3.43784 16.8905 3.77766 17.0637 4.1577 17.1664C4.20999 17.2591 4.19993 17.3739 4.18787 17.4867ZM15.6977 27.5645C15.6916 27.6088 15.6836 27.6532 15.6776 27.6955C15.6735 27.7015 15.6675 27.7055 15.6655 27.7136C15.5931 28.0278 15.5428 28.3562 15.4946 28.6724C15.4725 28.8114 15.4524 28.9504 15.4282 29.0914C15.4061 29.2203 15.382 29.3472 15.3558 29.4761C15.3337 29.5789 15.3116 29.6816 15.2855 29.7843C15.2553 29.8971 15.2251 30.0079 15.1869 30.1147C15.1889 30.1086 15.191 30.1066 15.1869 30.1167L15.2955 30.2013C15.0562 30.7915 14.4188 31.2669 13.8317 31.4482C13.8276 31.4482 13.5079 31.5086 13.5019 31.5086C13.5019 31.5086 13.4818 31.5126 13.4496 31.5167C13.4013 31.5247 13.3249 31.5388 13.2546 31.5509C13.158 31.5691 13.0696 31.5852 13.0675 31.5852C13.0515 31.5852 13.0354 31.5872 13.0193 31.5892C11.839 31.704 10.6003 31.7544 9.04394 31.7564C9.04394 31.7564 9.02987 31.7564 9.02383 31.7564C7.43932 31.7564 6.18459 31.706 4.99017 31.5892C4.97409 31.5892 4.958 31.5872 4.94191 31.5852C4.94191 31.5852 4.85143 31.5691 4.75491 31.5509C4.68252 31.5388 4.60812 31.5247 4.55986 31.5167C4.5297 31.5106 4.50758 31.5086 4.50758 31.5086C4.50356 31.5086 4.18384 31.4462 4.17781 31.4482C3.59066 31.2669 2.95525 30.7915 2.71395 30.2013L2.82253 30.1167C2.8165 30.1046 2.81851 30.1086 2.82253 30.1147C2.78433 30.0059 2.75216 29.8951 2.72401 29.7843C2.69786 29.6836 2.67374 29.5809 2.65363 29.4761C2.62749 29.3492 2.60336 29.2203 2.58124 29.0914C2.55711 28.9504 2.53499 28.8114 2.51488 28.6724C2.46662 28.3562 2.41635 28.0278 2.34396 27.7136C2.34396 27.7055 2.33592 27.7015 2.3319 27.6955C2.32386 27.6532 2.31782 27.6088 2.31179 27.5645C2.26353 27.2563 2.22734 26.9078 2.20321 26.5352C2.12881 25.4152 2.15093 24.0978 2.19517 23.1571C2.19517 23.145 2.19517 23.1309 2.19517 23.1188C2.20924 23.1551 2.22332 23.1914 2.23538 23.2296C2.26957 23.3364 2.29369 23.4472 2.31782 23.5539C2.36005 23.7514 2.40429 23.9568 2.50483 24.1401L2.51287 24.1502C2.52695 24.1623 2.54102 24.1744 2.55309 24.1865C2.56917 24.2006 2.58727 24.2167 2.60336 24.2308L2.60939 24.2348C2.74814 24.3013 2.87884 24.263 3.00552 24.2247C3.0397 24.2147 3.15029 24.1885 3.19252 24.1703C3.20257 24.1663 3.20861 24.1643 3.21062 24.1603L3.26692 24.1603C3.84402 23.6607 3.3755 27.8062 3.37752 27.8042C3.38154 27.8022 3.94054 24.9237 4.1376 23.419C4.16776 23.1893 4.18988 22.9919 4.19993 22.8429C4.20194 22.8026 4.20395 22.7643 4.20596 22.7301C4.26227 22.579 4.27031 22.4098 4.23411 22.2648C4.23411 22.2648 4.23411 22.2648 4.23612 22.2627C4.29444 22.0492 4.28841 21.8256 4.28237 21.6101C4.27835 21.4973 4.27634 21.3784 4.28237 21.2656C4.28237 21.2656 4.28438 21.2616 4.28438 21.2596L4.28438 17.9339C4.28438 17.8876 4.28438 17.8412 4.28438 17.7949C4.2864 17.7123 4.28841 17.6257 4.27232 17.5431C4.27232 17.529 4.27433 17.5149 4.27634 17.4988C4.28841 17.38 4.30047 17.247 4.23411 17.1322C4.26629 16.9247 4.24618 16.6286 4.22607 16.3385C4.20999 16.0988 4.19591 15.8732 4.20797 15.7101C4.20797 15.708 4.20596 15.704 4.20596 15.702C4.12553 14.3343 3.76158 12.9846 3.40768 11.6793C3.3373 11.4215 3.26893 11.1657 3.20057 10.9099C3.20459 10.8998 3.2066 10.8897 3.20057 10.8817C3.19654 10.8736 3.19051 10.8696 3.18247 10.8635C3.13019 10.5976 3.06182 10.3237 2.9834 10.0739L2.97938 10.0618L2.96731 10.0558C2.95123 10.0477 2.9271 10.0356 2.90096 10.0336L2.87884 10.0336L2.86878 10.0497C2.78835 10.2008 2.5551 10.3519 2.34799 10.3579C2.34799 10.3579 2.34598 10.3579 2.34397 10.3579C2.33994 10.1444 2.35201 9.92887 2.36609 9.72139C2.37614 9.55018 2.38619 9.37291 2.3882 9.19565C2.3882 9.19565 2.39022 9.19565 2.39223 9.19565C2.4807 9.22788 2.56716 9.26817 2.65564 9.31248C2.85471 9.41118 3.06182 9.50989 3.30714 9.50384C3.46398 10.0658 3.5987 10.654 3.72941 11.2261C3.92646 12.0923 4.13157 12.9887 4.41911 13.8146C4.41911 13.8186 4.41509 13.8206 4.41509 13.8246C4.48949 14.3947 4.55182 15.005 4.61416 15.7443L4.61416 15.7463C4.66644 16.971 4.69057 18.7739 4.68252 21.2515C4.68252 21.2556 4.6785 21.2576 4.6785 21.2616C4.69057 21.9405 4.67649 22.6616 4.63426 23.4693C4.63426 23.4754 4.63828 23.4814 4.64231 23.4875C4.59606 23.8541 4.54177 24.2308 4.48747 24.5934C4.3628 25.4474 4.23411 26.3277 4.19993 27.1939C4.19993 27.1939 4.19993 27.1939 4.19993 27.1959C4.19993 27.1979 4.19591 27.1999 4.19591 27.2019C4.18988 27.9634 4.31455 28.8698 4.43519 29.744C4.4734 30.024 4.50959 30.292 4.54177 30.5478C4.55785 30.6787 4.57394 30.8076 4.586 30.9325C4.57595 30.9446 4.57193 30.9587 4.58198 30.9728L4.59606 30.9909C4.65035 31.1561 4.53573 31.3414 4.66845 31.3475C5.73015 31.3857 7.42123 31.4099 9.03791 31.416C10.6305 31.4099 12.2853 31.3857 13.329 31.3475C13.4617 31.3434 13.347 31.1561 13.4013 30.9909L13.4154 30.9728C13.4255 30.9607 13.4214 30.9446 13.4114 30.9325C13.4235 30.8076 13.4395 30.6787 13.4556 30.5478C13.4878 30.2899 13.524 30.022 13.5622 29.744C13.6829 28.8678 13.8075 27.9634 13.8015 27.2019C13.8015 27.1999 13.7995 27.1979 13.7975 27.1959C13.7975 27.1959 13.7975 27.1959 13.7975 27.1939C13.7633 26.3297 13.6346 25.4474 13.5099 24.5934C13.4556 24.2308 13.4013 23.8541 13.3551 23.4875C13.3591 23.4814 13.3631 23.4774 13.3631 23.4693C13.3209 22.6616 13.3068 21.9405 13.3189 21.2616C13.3189 21.2576 13.3149 21.2536 13.3149 21.2515C13.3088 18.7739 13.331 16.971 13.3832 15.7463C13.3832 15.7463 13.3832 15.7463 13.3832 15.7443C13.4456 15.005 13.5099 14.3947 13.5823 13.8246C13.5823 13.8206 13.5803 13.8186 13.5783 13.8146C13.8658 12.9887 14.0709 12.0943 14.268 11.2261C14.3987 10.654 14.5314 10.0638 14.6903 9.50384C14.9356 9.50989 15.1427 9.41119 15.3418 9.31248C15.4302 9.26817 15.5167 9.22989 15.6052 9.19565C15.6052 9.19565 15.6072 9.19565 15.6092 9.19565C15.6092 9.37291 15.6193 9.55018 15.6313 9.7214C15.6434 9.93089 15.6575 10.1464 15.6534 10.3579C15.6534 10.3579 15.6514 10.3579 15.6494 10.3579C15.4403 10.3519 15.209 10.2008 15.1286 10.0497L15.1186 10.0316L15.0964 10.0316C15.0703 10.0356 15.0462 10.0477 15.0301 10.0558L15.018 10.0618L15.014 10.0739C14.9356 10.3237 14.8672 10.5976 14.8149 10.8635C14.8089 10.8676 14.8009 10.8736 14.7968 10.8817C14.7928 10.8917 14.7948 10.9018 14.7968 10.9099C14.7285 11.1657 14.6601 11.4235 14.5897 11.6793C14.2358 12.9846 13.8719 14.3343 13.7914 15.702C13.7914 15.706 13.7874 15.708 13.7894 15.7101C13.8035 15.8732 13.7894 16.0988 13.7713 16.3385C13.7512 16.6286 13.7331 16.9267 13.7633 17.1322C13.6969 17.247 13.709 17.38 13.7211 17.4988C13.7211 17.5129 13.7231 17.527 13.7251 17.5431C13.709 17.6277 13.711 17.7123 13.713 17.7949C13.713 17.8412 13.715 17.8876 13.713 17.9339L13.713 21.2596C13.713 21.2596 13.715 21.2636 13.715 21.2656C13.7211 21.3784 13.719 21.4973 13.715 21.6101C13.709 21.8276 13.703 22.0512 13.7613 22.2627C13.7613 22.2627 13.7613 22.2627 13.7633 22.2648C13.7271 22.4098 13.7351 22.579 13.7914 22.7301C13.7914 22.7643 13.7955 22.8026 13.7975 22.8429C13.8075 22.994 13.8296 23.1914 13.8598 23.419C14.0589 24.9237 14.6159 27.8002 14.6199 27.8042C14.6219 27.8042 14.1534 23.6607 14.7305 24.1603L14.7868 24.1603C14.7868 24.1623 14.7968 24.1663 14.8049 24.1703C14.8491 24.1885 14.9577 24.2147 14.9919 24.2247C15.1186 24.261 15.2513 24.3013 15.388 24.2348L15.394 24.2308C15.4121 24.2167 15.4282 24.2026 15.4443 24.1865C15.4584 24.1744 15.4705 24.1623 15.4845 24.1502L15.4926 24.1401C15.5931 23.9568 15.6373 23.7514 15.6796 23.5539C15.7037 23.4452 15.7278 23.3364 15.762 23.2296C15.7741 23.1914 15.7861 23.1551 15.8022 23.1188C15.8022 23.1309 15.8022 23.145 15.8022 23.1571C15.8465 24.0978 15.8686 25.4152 15.7942 26.5352C15.7701 26.9078 15.7339 27.2563 15.6856 27.5645L15.6977 27.5645ZM9.0178 6.91339C9.0178 6.91339 9.03389 6.91339 9.04193 6.91339C9.97896 6.91339 10.8778 7.00202 11.7163 7.1813C12.1406 7.27194 12.5568 7.38878 12.9529 7.5318C13.4215 7.701 13.9503 7.91251 14.272 8.27912C14.272 8.27912 14.274 8.27912 14.276 8.27912C14.3062 8.35567 14.3464 8.42818 14.3866 8.49869C14.453 8.6135 14.5113 8.72429 14.5294 8.84918C13.0072 7.93265 11.0789 7.42705 9.07411 7.41496L9.04394 7.41496L9.03992 7.41496L8.99971 7.41496C8.99971 7.41496 8.99367 7.41496 8.99166 7.41496L8.93536 7.41496C6.9306 7.42503 5.00224 7.93265 3.48007 8.84918C3.49816 8.72429 3.55648 8.6135 3.62283 8.49868C3.66305 8.42818 3.70327 8.35567 3.73343 8.27912C3.73343 8.27912 3.73544 8.27912 3.73745 8.27912C4.05918 7.91251 4.58802 7.701 5.05653 7.5318C5.45266 7.38878 5.86889 7.27194 6.29317 7.1813C7.14776 7.00001 8.0667 6.90936 9.02183 6.91339L9.0178 6.91339ZM9.0178 7.47338C9.0178 7.47338 9.03389 7.47338 9.04193 7.47338C11.0628 7.47942 13.0052 7.98906 14.5314 8.91969C14.5314 8.92371 14.5314 8.92573 14.5334 8.92976C14.6078 9.03047 14.6098 9.15335 14.6118 9.2863C14.6118 9.34874 14.6118 9.4132 14.6239 9.47564C14.6239 9.47564 14.6259 9.47766 14.6259 9.47968C14.4691 10.0437 14.3323 10.6359 14.2037 11.21C14.0086 12.0701 13.8055 12.9564 13.52 13.7763C12.1225 13.3593 10.6244 13.1458 9.06003 13.1438L9.05802 13.1438C9.05802 13.1438 9.04796 13.1438 9.04193 13.1438C9.04193 13.1438 9.02585 13.1438 9.0178 13.1438C9.00172 13.1438 8.98764 13.1438 8.97155 13.1438C8.96351 13.1438 8.95547 13.1438 8.94742 13.1438L8.94541 13.1438C7.38101 13.1458 5.88096 13.3593 4.48546 13.7763C4.20194 12.9585 3.99885 12.0701 3.80179 11.21C3.67109 10.6359 3.53637 10.0437 3.37953 9.47967C3.37953 9.47967 3.38154 9.47766 3.38154 9.47564C3.39159 9.4132 3.39159 9.34874 3.3936 9.2863C3.3936 9.15335 3.39763 9.02846 3.47202 8.92975C3.47404 8.92774 3.47202 8.92371 3.47403 8.91968C5.01431 7.981 6.97885 7.46935 9.01981 7.47338L9.0178 7.47338ZM13.2988 15.7403C13.2465 16.967 13.2244 18.7739 13.2304 21.2556C13.2184 21.9284 13.2324 22.6435 13.2727 23.4411C13.2727 23.5137 13.331 23.9427 13.4034 24.5168C13.522 25.4515 13.6768 26.7769 13.6648 27.6068C13.6587 28.0198 13.6125 28.3139 13.4979 28.3703C11.9918 29.0511 10.922 29.0692 9.27317 29.0652C9.19475 29.0652 9.11834 29.0652 9.03992 29.0652C8.93536 29.0652 8.83281 29.0652 8.72825 29.0652C7.07939 29.0692 6.00965 29.0511 4.50356 28.3703C4.38894 28.3118 4.3427 28.0198 4.33666 27.6068C4.3246 26.7769 4.47943 25.4515 4.59807 24.5168C4.67046 23.9427 4.73078 23.5137 4.72877 23.4411C4.76899 22.6435 4.78306 21.9284 4.771 21.2556C4.77703 18.7739 4.75491 16.967 4.70263 15.7403C4.70263 15.7403 4.70263 15.7403 4.70263 15.7362C4.6403 15.005 4.57796 14.4007 4.50557 13.8367C5.91715 13.4157 7.4353 13.2042 9.01579 13.2082C9.02383 13.2082 9.03389 13.2082 9.04193 13.2082C10.6043 13.2082 12.1044 13.4197 13.4999 13.8367C13.4275 14.4007 13.3651 15.005 13.3028 15.7362C13.3028 15.7362 13.3028 15.7362 13.3028 15.7403L13.2988 15.7403ZM9.04193 31.2669C8.20343 31.2729 7.54992 31.2709 7.44938 31.2729C6.35752 31.2951 5.04245 31.2729 4.81523 30.9909C4.75089 30.9104 4.50557 29.3271 4.50557 28.5798C5.32598 29.0531 7.19602 29.3009 9.04193 29.2928C10.8617 29.2928 12.6915 29.0471 13.4999 28.5798C13.4999 29.3271 13.2525 30.9124 13.1902 30.9909C12.965 31.2729 11.6499 31.2951 10.5561 31.2729C10.4595 31.2709 9.84223 31.2729 9.04193 31.2669ZM15.022 24.1643C14.9798 24.1522 14.9376 24.1401 14.8954 24.1321C14.8954 24.1321 14.8813 24.1301 14.8632 24.126C14.831 24.122 14.7807 24.116 14.7486 24.1119C14.7325 24.1119 14.7204 24.1079 14.7204 24.1079C14.5113 23.6627 14.2258 23.1954 13.8699 22.72C13.8699 22.72 13.8699 22.716 13.8699 22.714C13.8699 22.7099 13.8699 22.7079 13.8699 22.7039C13.8256 22.581 13.8136 22.4501 13.8337 22.3292C13.9463 22.4561 14.0468 22.5971 14.1433 22.7341C14.2358 22.8671 14.3323 23.004 14.4409 23.1289L14.447 23.137L14.457 23.141C14.5354 23.1672 14.6219 23.1571 14.6983 23.147L14.7466 23.141L14.7466 23.1128C14.7566 22.9114 14.7687 22.7079 14.7787 22.5065C14.8572 20.9333 14.9376 19.3057 14.8994 17.7345L14.8994 17.7043L14.8652 17.7023C14.8511 17.7023 14.8371 17.7002 14.823 17.7002C14.8049 17.7002 14.7868 17.7002 14.7667 17.7063C14.4711 17.7969 14.1413 17.8614 13.8136 17.8936C13.8136 17.8594 13.8136 17.8251 13.8136 17.7909C13.8136 17.7164 13.8136 17.6438 13.8216 17.5733C14.0368 17.5411 14.646 17.3558 15.1447 17.2047C15.3578 17.1403 15.5489 17.0818 15.6776 17.0456C15.7017 19.5232 15.7479 21.9002 15.752 22.9013C15.752 22.9235 15.7359 23.0645 15.752 23.0786C15.6896 23.2256 15.6534 23.3868 15.6193 23.5419C15.577 23.7332 15.5348 23.9326 15.4403 24.1059C15.4282 24.116 15.4141 24.128 15.4021 24.1381C15.388 24.1522 15.3719 24.1643 15.3558 24.1784C15.2452 24.2288 15.1346 24.1965 15.018 24.1623L15.022 24.1643ZM13.8719 15.698C13.8719 15.698 13.8719 15.696 13.8699 15.6939C13.9503 14.3343 14.3142 12.9887 14.6661 11.6894C14.7345 11.4396 14.8009 11.1899 14.8672 10.9401C14.8873 10.9461 14.9074 10.9542 14.9275 10.9602C14.9215 11.5061 14.9235 12.0681 14.9275 12.612C14.9356 13.9636 14.9416 15.3596 14.8109 16.683C14.5234 16.8321 14.1996 16.9932 13.8457 17.0919C13.8196 16.8925 13.8377 16.6105 13.8558 16.3365C13.8719 16.0948 13.888 15.8652 13.8739 15.698L13.8719 15.698ZM13.8477 17.1664C14.2258 17.0657 14.5656 16.8905 14.8672 16.7354L14.8853 16.7273L14.8853 16.7092C15.022 15.3757 15.014 13.9717 15.006 12.614C15.0039 12.0782 14.9999 11.5263 15.006 10.9884C15.2131 11.0589 15.4182 11.1335 15.6152 11.208C15.6293 12.1306 15.6554 14.5397 15.6776 16.9811C15.5469 17.0174 15.3458 17.0778 15.1246 17.1463C14.6581 17.2873 14.0307 17.4766 13.8196 17.5109C13.8196 17.5028 13.8196 17.4948 13.8176 17.4867C13.8055 17.3739 13.7955 17.2591 13.8477 17.1664ZM13.8115 21.6101C13.8156 21.4953 13.8176 21.3784 13.8115 21.2616C13.8115 21.2616 13.8115 21.2596 13.8115 21.2576L13.8115 17.9601C14.1473 17.9279 14.4852 17.8614 14.7828 17.7687C14.7968 17.7667 14.8109 17.7667 14.825 17.7667C14.8612 19.3258 14.7807 20.9413 14.7023 22.5025C14.6923 22.6958 14.6822 22.8892 14.6742 23.0806C14.6098 23.0886 14.5455 23.0947 14.4912 23.0806C14.3866 22.9597 14.2941 22.8268 14.2057 22.6978C14.0971 22.5427 13.9845 22.3856 13.8538 22.2446C13.8538 22.2446 13.8538 22.2406 13.8538 22.2386C13.7975 22.0371 13.8035 21.8176 13.8095 21.6081L13.8115 21.6101ZM16.2446 10.7447C16.6769 10.9743 17.1233 11.214 17.1093 11.6934C17.0952 11.6975 17.0831 11.6975 17.067 11.6995C17.063 11.6995 17.059 11.6995 17.055 11.6995L16.9162 11.6411C16.681 11.5404 16.0254 11.2382 15.7902 11.1415C15.7801 11.1375 15.7701 11.1335 15.762 11.1294C15.7319 11.1173 15.7117 11.1113 15.7057 11.1113C15.7057 11.1113 14.8974 10.8555 14.8974 10.791C14.8954 10.791 14.8934 10.791 14.8954 10.791C14.9014 10.7709 14.9094 10.7427 14.9175 10.7104C14.9436 10.6077 14.9778 10.4586 15.016 10.3096C15.0361 10.2351 15.0562 10.1625 15.0763 10.0961C15.0804 10.0961 15.0824 10.0941 15.0864 10.092C15.1869 10.2552 15.4282 10.4063 15.6514 10.4123C15.6575 10.4123 15.6615 10.4123 15.6655 10.4123C15.6776 10.4325 15.6997 10.4445 15.7258 10.4466C15.7258 10.4466 15.7339 10.4466 15.7379 10.4466C15.8847 10.5594 16.0656 10.6561 16.2426 10.7507L16.2446 10.7447ZM4.20596 0.967027C5.64771 0.286176 7.37096 0.219701 9.0178 0.217687C9.02585 0.217687 9.03389 0.217687 9.04193 0.217687C10.6727 0.219701 12.3718 0.292219 13.7995 0.967027C15.2191 1.9883 15.9048 3.05994 15.8404 4.15373C15.8244 4.12956 15.8063 4.1074 15.7922 4.08323C15.6595 3.87172 15.565 3.63604 15.4745 3.40439C15.4121 3.24526 15.3498 3.08008 15.2734 2.92497L15.2694 2.91893L15.2633 2.9149C15.2191 2.88469 15.1648 2.88066 15.1186 2.87864C14.7988 2.25822 14.1654 1.87348 13.5522 1.50284C13.3249 1.36385 13.1098 1.23292 12.9087 1.09191C12.9087 1.09191 12.9087 1.09191 12.9087 1.08789C12.788 0.807891 12.4985 0.743433 12.2652 0.689045L12.229 0.680986C11.3745 0.517824 10.5199 0.437251 9.58083 0.437251C9.40388 0.437251 9.22291 0.44128 9.04193 0.447324C9.04193 0.447324 9.02585 0.447324 9.0178 0.447324C8.81672 0.44128 8.61765 0.435237 8.42462 0.435237C7.48558 0.435237 6.63099 0.513795 5.7764 0.678973L5.7402 0.687032C5.50695 0.739404 5.21539 0.805877 5.09675 1.08587C5.09675 1.08587 5.09675 1.08789 5.09675 1.0899C4.89567 1.23292 4.68051 1.36385 4.45329 1.50083C3.84 1.87147 3.2066 2.25621 2.88688 2.87663C2.84063 2.87864 2.78634 2.88267 2.7421 2.91289L2.73607 2.91692L2.73607 2.92296C2.65564 3.07806 2.59331 3.24123 2.53097 3.40237C2.44049 3.63403 2.34799 3.87172 2.21326 4.08121C2.19718 4.10538 2.18109 4.12754 2.16501 4.15171C2.10267 3.05792 2.78634 1.98628 4.20596 0.96501L4.20596 0.967027ZM14.827 3.36813C14.8069 3.34799 14.3605 2.92497 13.8236 2.48585C13.6688 2.36096 13.5079 2.23405 13.345 2.11521C13.1058 1.93996 12.8685 1.78284 12.6573 1.67406C12.597 1.64183 12.5367 1.61363 12.4804 1.59147C12.4804 1.59147 12.4804 1.58946 12.4784 1.58744C12.4643 1.47666 12.4241 1.37191 12.3839 1.27119C12.3477 1.18256 12.3115 1.09191 12.2954 0.999254C12.2994 0.989183 12.3014 0.981124 12.3075 0.971054C12.414 0.942852 12.5106 0.991197 12.6131 1.04156C12.6895 1.07983 12.77 1.11609 12.8564 1.12415C12.8624 1.12818 12.8685 1.13019 12.8765 1.13019C13.0796 1.27321 13.3068 1.4122 13.524 1.54313C14.1353 1.91176 14.7647 2.29448 15.0743 2.90684C15.0643 2.95519 15.0562 3.00353 15.0502 3.05188C15.0341 3.1667 15.016 3.28353 14.9577 3.38223C14.9456 3.39432 14.9336 3.40641 14.9215 3.41849C14.8873 3.42252 14.8632 3.40036 14.829 3.36612L14.827 3.36813ZM9.0178 1.25709C9.00574 1.25709 8.99568 1.25709 8.98362 1.25709C7.83747 1.25709 6.69533 1.36184 5.58939 1.56932C5.60548 1.47464 5.63966 1.38601 5.67787 1.29134C5.71607 1.19868 5.75428 1.10199 5.77037 1.00127L5.77037 0.995227L5.77037 0.989184C5.76433 0.973069 5.7583 0.956952 5.74825 0.936809L5.74221 0.926736L5.73216 0.922709C5.69999 0.912639 5.66782 0.908608 5.63765 0.908608C5.54113 0.908608 5.45467 0.95091 5.36821 0.993211C5.30788 1.02343 5.25158 1.05163 5.19126 1.06371C5.30989 0.858251 5.54717 0.801846 5.7583 0.753503L5.79248 0.745446C6.79185 0.554084 7.79524 0.481568 8.93134 0.513797C8.93536 0.513797 8.93938 0.517823 8.94542 0.517823C8.96954 0.517823 8.99367 0.517823 9.0178 0.517823C9.02585 0.517823 9.03389 0.517823 9.04193 0.517823C9.04193 0.517823 9.054 0.517823 9.06003 0.517823C9.06606 0.517823 9.06807 0.515811 9.07411 0.513797C10.2102 0.481569 11.2156 0.556098 12.213 0.745447L12.2471 0.753503C12.4603 0.801847 12.6956 0.856237 12.8142 1.06371C12.7559 1.04961 12.6976 1.02141 12.6372 0.993211C12.5528 0.95091 12.4643 0.908609 12.3678 0.908609C12.3376 0.908609 12.3055 0.912639 12.2733 0.92271L12.2612 0.926736L12.2552 0.936809C12.2431 0.956953 12.2371 0.97307 12.2331 0.989185L12.2331 0.995227L12.2331 1.00127C12.2492 1.10199 12.2874 1.19868 12.3256 1.29134C12.3638 1.384 12.398 1.47464 12.414 1.56932C11.3141 1.36385 10.18 1.25911 9.03992 1.25709C9.03992 1.25709 9.02384 1.25709 9.01579 1.25709L9.0178 1.25709ZM5.52505 1.59147C5.46875 1.61363 5.40842 1.64183 5.3481 1.67406C5.13495 1.78485 4.89768 1.94197 4.6604 2.11521C4.49954 2.23405 4.33667 2.36096 4.18184 2.48585C3.64495 2.92296 3.20057 3.34799 3.17845 3.36813C3.14426 3.40238 3.12013 3.42252 3.08595 3.4205C3.07389 3.40842 3.06383 3.39633 3.05177 3.38425C2.99345 3.28554 2.97536 3.1667 2.95927 3.05389C2.95324 3.00555 2.94519 2.95721 2.93514 2.90886C3.2448 2.2965 3.87619 1.91377 4.48547 1.54514C4.70464 1.4122 4.92985 1.27522 5.13294 1.1322C5.14099 1.1322 5.14702 1.13019 5.15305 1.12616C5.23952 1.1181 5.31995 1.08184 5.39636 1.04357C5.49891 0.993211 5.59543 0.946883 5.702 0.973069C5.70602 0.98314 5.71004 0.991198 5.71406 1.00127C5.69798 1.09393 5.66178 1.18659 5.62559 1.27321C5.58537 1.37392 5.54314 1.47867 5.52907 1.58946C5.52907 1.58946 5.52706 1.59148 5.52706 1.59349L5.52505 1.59147ZM2.15093 5.82967C2.16903 5.31198 2.18914 4.77616 2.17104 4.26049C2.17104 4.25646 2.17104 4.25243 2.17104 4.2484C2.18914 4.22624 2.20321 4.20207 2.2193 4.17992C2.38016 3.94827 2.48673 3.68439 2.58727 3.42453C2.6476 3.26943 2.70993 3.10828 2.78433 2.9572C2.81248 2.94109 2.84667 2.93908 2.87884 2.93706C2.88688 2.97936 2.89492 3.02166 2.90096 3.06396C2.91905 3.18281 2.93715 3.3077 3.0015 3.41647L3.00753 3.42252C3.02161 3.4346 3.03367 3.44669 3.04775 3.46281L3.05378 3.46885L3.06383 3.46885C3.11209 3.47959 3.20392 3.44266 3.33931 3.35806C3.33931 3.35806 3.34534 3.35806 3.34937 3.35806C3.35138 3.35806 3.35339 3.35806 3.35741 3.35806C3.36143 3.35806 3.12416 3.59777 3.37349 3.34799C4.04711 2.66915 4.70866 1.98427 5.5532 1.63982C5.55722 1.63982 5.55923 1.64183 5.56325 1.63982C6.6893 1.4263 7.85154 1.31954 9.01981 1.32155C9.02786 1.32155 9.0359 1.32155 9.04394 1.32155C10.1941 1.32155 11.3383 1.42831 12.4462 1.6378C12.4502 1.6378 12.4522 1.6378 12.4563 1.6378C13.3008 1.98226 13.9624 2.66915 14.636 3.34598C14.8853 3.59575 14.648 3.35403 14.6521 3.35605C14.6541 3.35605 14.6561 3.35605 14.6601 3.35605C14.6641 3.35605 14.6661 3.35605 14.6702 3.35605C14.8055 3.44199 14.8974 3.47959 14.9456 3.46885L14.9557 3.46885L14.9617 3.46079C14.9758 3.44468 14.9879 3.43259 15.0019 3.42051L15.008 3.41446C15.0743 3.30569 15.0904 3.18281 15.1085 3.06195C15.1145 3.01965 15.1226 2.97735 15.1306 2.93505C15.1648 2.93505 15.199 2.94109 15.2251 2.95519C15.2995 3.10627 15.3619 3.26741 15.4222 3.42252C15.5227 3.68237 15.6293 3.94625 15.7902 4.1779C15.8063 4.20006 15.8223 4.22423 15.8384 4.24639C15.8384 4.25042 15.8384 4.25445 15.8384 4.25848C15.8223 4.77415 15.8404 5.30997 15.8585 5.82765C15.8967 6.91339 15.9349 8.03539 15.6494 9.07076C15.6313 9.08083 15.6172 9.09695 15.6152 9.11911C15.6072 9.12112 15.5991 9.12313 15.5931 9.12716C15.4986 9.16141 15.4061 9.20774 15.3156 9.25205C15.1266 9.34471 14.9316 9.43939 14.7064 9.43737C14.7003 9.38701 14.6983 9.33665 14.6983 9.28227C14.6963 9.14529 14.6943 9.00227 14.6058 8.88544C14.6058 8.88544 14.6018 8.88343 14.5998 8.88141C14.5897 8.72832 14.5173 8.5994 14.447 8.4725C14.4067 8.40401 14.3665 8.3315 14.3384 8.25696C14.3384 8.25092 14.3384 8.24286 14.3323 8.23682C13.9985 7.85812 13.4617 7.64259 12.9831 7.46935C12.5829 7.32633 12.1647 7.20748 11.7364 7.11684C10.8919 6.93756 9.98701 6.84692 9.04595 6.84692C9.04595 6.84692 9.02987 6.84692 9.02183 6.84692C9.00574 6.84692 8.98965 6.84692 8.97357 6.84692C8.0305 6.84692 7.12363 6.93756 6.27709 7.11684C5.84879 7.20748 5.43054 7.32633 5.03039 7.46935C4.55182 7.64258 4.01494 7.85812 3.68115 8.23682C3.67511 8.24286 3.67511 8.2489 3.67511 8.25696C3.64696 8.33149 3.60675 8.40401 3.56653 8.4725C3.49615 8.59739 3.42377 8.72832 3.41371 8.88141C3.4117 8.88141 3.40969 8.88343 3.40768 8.88544C3.3192 9.00429 3.31719 9.14529 3.31518 9.28227C3.31518 9.33665 3.31317 9.38701 3.30714 9.43737C3.08193 9.43939 2.88688 9.34471 2.69787 9.25205C2.60738 9.20774 2.51689 9.16342 2.42038 9.12716C2.41233 9.12515 2.40429 9.12112 2.39625 9.1191C2.39424 9.09896 2.38016 9.08285 2.36206 9.07076C2.07653 8.03337 2.11473 6.91339 2.15294 5.82765L2.15093 5.82967ZM1.76083 10.7447C1.93779 10.65 2.11876 10.5533 2.26555 10.4405C2.26957 10.4405 2.27359 10.4405 2.27761 10.4405C2.30375 10.4405 2.32587 10.4264 2.33793 10.4063C2.34397 10.4063 2.34799 10.4063 2.35402 10.4063C2.57923 10.4002 2.82053 10.2492 2.91905 10.086C2.92308 10.086 2.92509 10.088 2.92911 10.09C2.94922 10.1565 2.96932 10.229 2.98943 10.3035C3.02764 10.4526 3.06182 10.6037 3.08796 10.7044C3.096 10.7366 3.10405 10.7648 3.11008 10.785C3.11008 10.787 3.11008 10.785 3.10807 10.785C3.10807 10.8494 2.29973 11.1053 2.29973 11.1053C2.2937 11.1053 2.27359 11.1113 2.24343 11.1234C2.23538 11.1274 2.22533 11.1314 2.21528 11.1355C1.98001 11.2322 1.3265 11.5343 1.08923 11.635L0.950483 11.6934C0.950483 11.6934 0.94244 11.6934 0.938417 11.6934C0.922331 11.6934 0.910267 11.6894 0.896191 11.6874C0.880104 11.206 1.32851 10.9683 1.76083 10.7386L1.76083 10.7447Z" fill="#1A1F29"/>
<path d="M3.24718 2.91301L3.26728 2.89488C3.215 2.96135 3.215 3.03387 3.28739 3.07617C3.51059 2.93315 3.69558 2.69143 3.89867 2.5182C4.19828 2.26238 4.63262 2.01461 4.84375 1.69634C4.56425 1.69433 4.18622 2.01058 3.97911 2.16367C3.70966 2.36309 3.41005 2.631 3.24919 2.91301L3.24718 2.91301Z" fill="white"/>
<path d="M9.04242 13.6537C7.18847 13.6698 5.64216 13.9719 5.1656 14.3809C6.20921 14.1694 7.55845 14.0384 9.04242 14.0243C10.4942 14.0445 11.8153 14.1734 12.8408 14.3809C12.3723 13.978 10.8622 13.6799 9.04242 13.6557L9.04242 13.6537Z" fill="#3385FF"/>
<path d="M9.04174 12.741C11.515 12.7108 13.4997 13.5427 13.6565 11.8063C13.8898 11.2 14.1431 9.96521 14.2939 9.34077C13.9139 10.08 13.4756 11.905 12.2671 12.0843C11.0988 12.2575 10.202 12.2757 9.04174 12.2535C7.8413 12.2777 6.93242 12.2616 5.738 12.0843C4.5275 11.905 4.09116 10.078 3.71112 9.34077C3.86193 9.96521 4.11529 11.198 4.34854 11.8063C4.50739 13.5608 6.53227 12.6906 9.04174 12.741Z" fill="#93A3C0"/>
</svg>
