<svg width="18" height="32" viewBox="0 0 18 32" fill="none" xmlns="http://www.w3.org/2000/svg">
<path d="M9.3753 13.2078C9.3753 13.2078 9.3572 13.2078 9.34916 13.2078C7.76867 13.2038 6.25052 13.4153 4.83894 13.8363C4.91133 14.4003 4.97366 15.0046 5.036 15.7359C5.036 15.7359 5.036 15.7359 5.036 15.7399C5.08828 16.9666 5.1104 18.7735 5.10436 21.2552C5.11643 21.928 5.10235 22.6431 5.06214 23.4407C5.06214 23.5133 5.00383 23.9423 4.93144 24.5164C4.91334 24.9334 4.89524 25.3463 4.87714 25.4732C4.90731 26.9296 6.57024 27.7998 9.32302 27.7998H9.37128C12.106 27.7938 13.7568 26.9256 13.787 25.4732C13.7709 25.3463 13.7508 24.9334 13.7327 24.5164C13.6603 23.9423 13.6 23.5133 13.602 23.4407C13.5618 22.6431 13.5477 21.928 13.5598 21.2552C13.5537 18.7735 13.5759 16.9666 13.6281 15.7399C13.6281 15.7399 13.6281 15.7399 13.6281 15.7359C13.6905 15.0046 13.7528 14.4003 13.8252 13.8363C12.4297 13.4194 10.9296 13.2078 9.36726 13.2078H9.3753ZM9.3753 14.0237C7.89334 14.0357 6.54209 14.1667 5.49848 14.3782C5.97504 13.9693 7.52134 13.6691 9.3753 13.651C11.1951 13.6772 12.7032 13.9753 13.1737 14.3782C12.1502 14.1707 10.8271 14.0418 9.3753 14.0237Z" fill="#F5222D"/>
<path d="M9.37522 27.9431H9.34506H9.32495C6.81749 27.9431 5.18673 27.224 4.81674 25.9932C4.76044 26.4847 4.70213 27.0648 4.66996 27.6067C4.67599 28.0196 4.72224 28.3137 4.83685 28.3701C6.34294 29.051 7.41268 29.0691 9.06154 29.0651C9.1661 29.0651 9.26865 29.0651 9.37321 29.0651C9.45163 29.0651 9.52804 29.0651 9.60646 29.0651C11.2553 29.0691 12.3251 29.051 13.8312 28.3701C13.9458 28.3117 13.992 28.0196 13.998 27.6067C13.9659 27.0648 13.9096 26.4847 13.8513 25.9932C13.4813 27.2199 11.8626 27.937 9.37321 27.9411L9.37522 27.9431Z" fill="#364258"/>
<path d="M9.37548 27.8003H9.34532H9.32521C6.57243 27.8003 4.91151 26.9301 4.87933 25.4738C4.89542 25.3469 4.91553 24.9339 4.93362 24.5169C4.81499 25.4516 4.66016 26.7771 4.67222 27.607C4.70439 27.0651 4.7607 26.485 4.81901 25.9935C5.189 27.2242 6.81975 27.9434 9.32722 27.9434H9.37548C11.8669 27.9373 13.4855 27.2202 13.8535 25.9935C13.9098 26.485 13.9681 27.0651 14.0003 27.607C14.0124 26.7771 13.8575 25.4516 13.7389 24.5169C13.757 24.9339 13.7751 25.3469 13.7932 25.4738C13.763 26.9261 12.1122 27.7923 9.37749 27.8003H9.37548Z" fill="#1A1F29"/>
<path d="M14.1508 17.4866C14.1508 17.4866 14.1508 17.5027 14.1528 17.5107C14.3639 17.4765 14.9913 17.2871 15.4578 17.1461C15.681 17.0797 15.88 17.0172 16.0107 16.981C15.9866 14.5396 15.9625 12.1284 15.9484 11.2078C15.7513 11.1333 15.5462 11.0588 15.3391 10.9883C15.3331 11.5261 15.3351 12.078 15.3391 12.6139C15.3472 13.9715 15.3532 15.3775 15.2205 16.709V16.7272L15.2004 16.7352C14.9008 16.8903 14.561 17.0636 14.1809 17.1663C14.1286 17.2589 14.1387 17.3738 14.1508 17.4866Z" fill="#F5222D"/>
<path d="M14.1888 22.2405C14.1888 22.2405 14.1888 22.2445 14.1888 22.2465C14.3215 22.3875 14.4341 22.5447 14.5407 22.6998C14.6292 22.8287 14.7217 22.9596 14.8262 23.0825C14.8805 23.0986 14.9469 23.0906 15.0092 23.0825C15.0193 22.8891 15.0273 22.6978 15.0374 22.5044C15.1158 20.9433 15.1962 19.3277 15.16 17.7686C15.1459 17.7686 15.1339 17.7686 15.1178 17.7706C14.8202 17.8633 14.4824 17.9278 14.1466 17.962V21.2595C14.1466 21.2595 14.1466 21.2615 14.1466 21.2635C14.1526 21.3784 14.1506 21.4972 14.1466 21.612C14.1405 21.8235 14.1345 22.0411 14.1908 22.2425L14.1888 22.2405Z" fill="#364258"/>
<path d="M15.7752 24.1055C15.8697 23.9322 15.912 23.7328 15.9542 23.5414C15.9884 23.3863 16.0246 23.2252 16.0869 23.0781C16.0708 23.064 16.0869 22.923 16.0869 22.9009C16.0829 21.8997 16.0366 19.5228 16.0125 17.0452C15.8838 17.0814 15.6928 17.1398 15.4797 17.2043C14.981 17.3554 14.3697 17.5387 14.1565 17.5729C14.1465 17.6434 14.1465 17.7139 14.1485 17.7905C14.1485 17.8247 14.1485 17.859 14.1485 17.8932C14.4763 17.861 14.806 17.7965 15.1016 17.7059C15.1237 17.7018 15.1418 17.6998 15.1579 17.6998C15.172 17.6998 15.1861 17.6998 15.2002 17.7018H15.2323V17.7341C15.2705 19.3053 15.1901 20.9329 15.1117 22.5061C15.1016 22.7095 15.0916 22.911 15.0815 23.1124V23.1406L15.0312 23.1466C14.9548 23.1567 14.8684 23.1668 14.7899 23.1406L14.7799 23.1366L14.7739 23.1285C14.6653 23.0016 14.5688 22.8646 14.4763 22.7337C14.3797 22.5967 14.2792 22.4557 14.1666 22.3288C14.1465 22.4497 14.1565 22.5826 14.2028 22.7035C14.2028 22.7075 14.2028 22.7095 14.2028 22.7135C14.2028 22.7135 14.2028 22.7176 14.2028 22.7196C14.5587 23.197 14.8442 23.6623 15.0534 24.1075C15.0534 24.1075 15.0654 24.1075 15.0815 24.1115H15.1318C15.1318 24.1115 15.1378 24.1014 15.1418 24.0974C15.1418 24.0974 15.164 24.1095 15.1961 24.1256C15.2142 24.1276 15.2283 24.1296 15.2283 24.1316C15.2705 24.1397 15.3128 24.1518 15.355 24.1639C15.4716 24.1981 15.5822 24.2304 15.6928 24.18C15.7089 24.1679 15.723 24.1538 15.739 24.1397C15.7511 24.1296 15.7632 24.1175 15.7773 24.1075L15.7752 24.1055Z" fill="#F5222D"/>
<path d="M14.179 17.0918C14.5349 16.9931 14.8586 16.8299 15.1442 16.6829C15.2769 15.3595 15.2688 13.9635 15.2608 12.6119C15.2588 12.068 15.2548 11.506 15.2608 10.9601C15.2407 10.9541 15.2206 10.946 15.2005 10.94C15.1341 11.1897 15.0678 11.4395 14.9994 11.6893C14.6475 12.9906 14.2836 14.3341 14.2031 15.6938C14.2031 15.6938 14.2051 15.6959 14.2051 15.6979C14.2192 15.8671 14.2051 16.0947 14.187 16.3364C14.1689 16.6104 14.1508 16.8924 14.177 17.0918H14.179Z" fill="#364258"/>
<path d="M16.1476 23.1572C16.1356 23.1693 16.1215 23.1914 16.1054 23.2297C16.0712 23.3365 16.0471 23.4473 16.023 23.554C15.9807 23.7514 15.9365 23.9569 15.836 24.1402L15.8279 24.1503C15.8138 24.1624 15.7998 24.1744 15.7877 24.1865C15.7716 24.2006 15.7535 24.2167 15.7374 24.2308L15.7314 24.2349C15.5926 24.3013 15.4619 24.2631 15.3353 24.2248C15.293 24.2127 15.2528 24.2026 15.2146 24.1946C15.2025 24.2006 15.1704 24.1825 15.1483 24.1704C15.1382 24.1664 15.1322 24.1644 15.1302 24.1603H15.0739C14.4968 23.6608 14.9653 27.8063 14.9633 27.8043C14.9592 27.8023 14.4002 24.9238 14.2032 23.4191C14.173 23.2277 14.1509 23.0343 14.1408 22.843C14.1388 22.8027 14.1368 22.7644 14.1348 22.7302C14.0785 22.5791 14.0705 22.4099 14.1067 22.2648C14.1067 22.2648 14.1067 22.2648 14.1047 22.2628C14.0463 22.0493 14.0524 21.8257 14.0584 21.6102C14.0624 21.4974 14.0644 21.3785 14.0584 21.2657C14.0584 21.2657 14.0564 21.2617 14.0564 21.2597V17.934C14.0584 17.8877 14.0564 17.8413 14.0564 17.795C14.0564 17.7124 14.0524 17.6258 14.0685 17.5432C14.0685 17.5291 14.0664 17.515 14.0644 17.4989C14.0524 17.38 14.0403 17.2471 14.1067 17.1323C14.0745 16.9248 14.0946 16.6287 14.1147 16.3386C14.1308 16.0989 14.1449 15.8733 14.1328 15.7101C14.1328 15.7081 14.1348 15.7041 14.1348 15.7021C14.2152 14.3343 14.5792 12.9847 14.9331 11.6794C15.0035 11.4216 15.0718 11.1658 15.1402 10.9099C15.1362 10.8999 15.1342 10.8898 15.1402 10.8817C15.1442 10.8737 15.1503 10.8697 15.1583 10.8636C15.2106 10.5977 15.279 10.3238 15.3574 10.074L15.3614 10.0619L15.3735 10.0559C15.3896 10.0478 15.4137 10.0357 15.4398 10.0337H15.4619L15.472 10.0498C15.5524 10.2009 15.7857 10.352 15.9928 10.358C15.9968 10.1445 15.9847 9.92895 15.9727 9.72148C15.9626 9.55025 15.9526 9.37299 15.9506 9.19573C15.8621 9.22796 15.7756 9.26825 15.6872 9.31256C15.4881 9.41126 15.281 9.50997 15.0357 9.50393C14.8788 10.0659 14.7441 10.6541 14.6134 11.2262C14.4163 12.0924 14.2112 12.9888 13.9237 13.8146C13.9237 13.8187 13.9277 13.8207 13.9277 13.8247C13.8533 14.3948 13.791 15.0051 13.7286 15.7444V15.7464C13.6764 16.9711 13.6522 18.774 13.6603 21.2516C13.6603 21.2556 13.6643 21.2577 13.6643 21.2617C13.6522 21.9405 13.6663 22.6617 13.7085 23.4694C13.7085 23.4755 13.7045 23.4815 13.7005 23.4876C13.7467 23.8542 13.801 24.2308 13.8553 24.5934C13.98 25.4475 14.1107 26.3278 14.1429 27.194C14.1429 27.194 14.1429 27.194 14.1429 27.196C14.1429 27.198 14.1469 27.2 14.1469 27.202C14.1529 27.9634 14.0282 28.8699 13.9076 29.7441C13.8694 30.0241 13.8332 30.292 13.801 30.5479L13.8352 30.5418C14.4968 30.435 14.9613 30.2376 15.1462 29.9879C15.4398 29.587 15.5303 29.452 15.655 29.2647C15.6892 29.2144 15.7254 29.1579 15.7696 29.0935C15.7937 28.9525 15.8158 28.8135 15.836 28.6745C15.8842 28.3583 15.9345 28.0299 16.0069 27.7157C16.0069 27.7076 16.0149 27.7036 16.0189 27.6975C16.027 27.6552 16.033 27.6109 16.039 27.5666C16.0772 27.3047 16.1155 26.9422 16.1476 26.5373C16.222 25.4173 16.1999 24.0999 16.1557 23.1592L16.1476 23.1572Z" fill="#F5222D"/>
<path d="M14.0926 31.4158L14.0986 31.4078L14.0484 31.4219L14.0725 31.4178L14.0926 31.4158Z" fill="#F5222D"/>
<path d="M13.5233 30.9889C13.5877 30.9084 13.833 29.3251 13.833 28.5778C13.0247 29.0451 11.1948 29.2908 9.37507 29.2908C7.52916 29.3009 5.65911 29.0531 4.83871 28.5778C4.83871 29.3251 5.08604 30.9104 5.14837 30.9889C5.37358 31.2709 6.68864 31.2931 7.78252 31.2709C7.88306 31.2689 8.53858 31.2709 9.37507 31.2649C10.1734 31.2709 10.7927 31.2689 10.8892 31.2709C11.9811 31.2931 13.2961 31.2709 13.5233 30.9889Z" fill="#F5222D"/>
<path d="M12.7493 1.56738C12.7332 1.47271 12.699 1.38408 12.6608 1.2894C12.6226 1.19674 12.5844 1.10005 12.5683 0.999334V0.993291V0.987249C12.5743 0.971134 12.5804 0.95502 12.5904 0.934877L12.5964 0.924804L12.6085 0.920775C12.6407 0.910703 12.6729 0.906676 12.703 0.906676C12.7995 0.906676 12.886 0.948977 12.9725 0.991278C13.0328 1.02149 13.0891 1.04969 13.1494 1.06178C13.0308 0.856315 12.7935 0.799914 12.5824 0.75157L12.5482 0.743514C11.5488 0.55215 10.5454 0.479632 9.40933 0.511862C9.40531 0.511862 9.40129 0.515891 9.39525 0.515891C9.38922 0.515891 9.38319 0.515891 9.37716 0.515891C9.37716 0.515891 9.36107 0.515891 9.35303 0.515891C9.3289 0.515891 9.30477 0.515891 9.28064 0.515891C9.27461 0.515891 9.2726 0.513876 9.26656 0.511862C8.12845 0.479632 7.12506 0.554165 6.12771 0.743514L6.09352 0.75157C5.88038 0.799914 5.64512 0.8543 5.52648 1.06178C5.58479 1.04768 5.6431 1.01948 5.70343 0.991278C5.78788 0.948977 5.87636 0.906676 5.97288 0.906676C6.00304 0.906676 6.03521 0.910703 6.06738 0.920775L6.07744 0.924804L6.08347 0.934877C6.09553 0.95502 6.10157 0.971134 6.10559 0.987249V0.993291V0.999334C6.0895 1.10005 6.0513 1.19674 6.01309 1.2894C5.97489 1.38206 5.9407 1.47271 5.92462 1.56738C7.03056 1.36192 8.17269 1.25516 9.31884 1.25516C9.33091 1.25516 9.34096 1.25516 9.35303 1.25516C9.36107 1.25516 9.36911 1.25516 9.37716 1.25516C10.5173 1.25516 11.6514 1.36192 12.7513 1.56738H12.7493Z" fill="#CF1322"/>
<path d="M17.2731 11.5972L17.3857 11.6455C17.3697 11.2265 16.9715 11.015 16.5492 10.7894C16.3723 10.6947 16.1873 10.596 16.0365 10.4812L15.9822 10.4389V10.4087C15.759 10.4027 15.5177 10.2516 15.4172 10.0884C15.4131 10.0884 15.4111 10.0904 15.4071 10.0924C15.385 10.1609 15.3669 10.2355 15.3468 10.306C15.3086 10.455 15.2744 10.6061 15.2483 10.7068C15.2422 10.735 15.2362 10.7612 15.2302 10.7894C15.2302 10.8539 16.0385 11.1097 16.0385 11.1097C16.0606 11.1097 16.0787 11.1177 16.0948 11.1278C16.1029 11.1318 16.1149 11.1359 16.123 11.1399L16.1873 11.148C16.6196 11.3172 17.0117 11.4844 17.2711 11.5951L17.2731 11.5972Z" fill="#F5222D"/>
<path d="M13.6806 2.11569C13.8415 2.23453 14.0043 2.36144 14.1592 2.48633C14.121 2.45208 14.0828 2.41985 14.0446 2.38561C13.9259 2.29094 13.8053 2.20029 13.6806 2.11569Z" fill="#F5222D"/>
<path d="M14.1042 1.00703C12.6644 0.330211 10.9251 0.269778 9.40493 0.26575H9.37476H9.3446H9.26618C7.74803 0.269778 6.00668 0.330211 4.56695 1.00703C3.19357 1.99608 2.51593 3.02944 2.54609 4.08294C2.67881 3.87144 2.77332 3.63576 2.8638 3.40411C2.92614 3.24498 2.98847 3.0798 3.06488 2.92469V2.91865L3.07493 2.91462C3.11917 2.88441 3.17346 2.88038 3.21971 2.87836C3.53943 2.25794 4.17283 1.8732 4.78612 1.50256C5.01334 1.36357 5.2285 1.23264 5.42958 1.09163C5.42958 1.09163 5.42958 1.09163 5.42958 1.08761C5.55023 0.807611 5.83978 0.743152 6.07303 0.688765L6.10923 0.680706C6.96382 0.517543 7.81841 0.436971 8.75745 0.436971C8.95049 0.436971 9.14955 0.440999 9.35063 0.449056C9.35868 0.449056 9.36672 0.449056 9.37476 0.449056C9.55775 0.443013 9.73872 0.438984 9.91366 0.438984C10.8527 0.438984 11.7073 0.517545 12.5619 0.682722L12.5981 0.690778C12.8313 0.743151 13.1229 0.809627 13.2415 1.08962C13.2415 1.08962 13.2415 1.09163 13.2415 1.09365C13.4426 1.23667 13.6578 1.3676 13.885 1.50458C14.4983 1.87522 15.1317 2.25996 15.4514 2.88038C15.4976 2.88239 15.5519 2.88642 15.5962 2.91664L15.6022 2.92067L15.6062 2.92671C15.6826 3.08181 15.747 3.24498 15.8073 3.40613C15.8978 3.63778 15.9903 3.87547 16.125 4.08496C16.1552 3.03146 15.4775 1.99809 14.1042 1.00905V1.00703Z" fill="#820014"/>
<path d="M15.3811 3.05207C15.3872 3.00373 15.3952 2.95538 15.4053 2.90704C15.0956 2.29468 14.4642 1.91195 13.8549 1.54333C13.6358 1.41038 13.4106 1.2734 13.2075 1.13038C13.1994 1.13038 13.1934 1.12837 13.1874 1.12434C13.1009 1.11628 13.0205 1.08002 12.9441 1.04175C12.8415 0.991393 12.745 0.945062 12.6384 0.971248C12.6324 0.98132 12.6304 0.989377 12.6264 0.999449C12.6424 1.09211 12.6786 1.18477 12.7148 1.27139C12.755 1.37211 12.7973 1.47685 12.8093 1.58764C12.8093 1.58764 12.8113 1.58965 12.8113 1.59167C12.8676 1.61383 12.928 1.64203 12.9883 1.67426C13.3703 1.85756 13.7122 2.1013 14.0399 2.38734C14.0781 2.41957 14.1164 2.45381 14.1546 2.48805C14.6914 2.92517 15.1358 3.3502 15.1579 3.37034C15.1921 3.40459 15.2183 3.42473 15.2504 3.42271C15.2625 3.41063 15.2726 3.39854 15.2866 3.38646C15.3449 3.28775 15.363 3.16891 15.3791 3.0561L15.3811 3.05207ZM15.0514 3.07624C14.8282 2.93323 14.6432 2.69151 14.4401 2.51827C14.1405 2.26245 13.7082 2.01468 13.495 1.69642C13.7745 1.6944 14.1525 2.01065 14.3597 2.16374C14.6291 2.36316 14.9287 2.63107 15.0896 2.91308L15.0695 2.89495C15.1218 2.96143 15.1218 3.03394 15.0494 3.07624H15.0514Z" fill="#D7DEEB"/>
<path d="M16.0613 10.4423C16.0352 10.4423 16.0131 10.4282 16.001 10.408C15.997 10.408 15.991 10.408 15.9869 10.408V10.4382L16.0412 10.4805C16.192 10.5954 16.375 10.6941 16.554 10.7887C16.9763 11.0123 17.3744 11.2258 17.3905 11.6448L17.2779 11.5965C17.0185 11.4857 16.6264 11.3185 16.1941 11.1493L16.1297 11.1412C16.365 11.2379 17.0185 11.5401 17.2558 11.6408L17.3945 11.6992C17.3945 11.6992 17.4026 11.6992 17.4066 11.6992C17.4227 11.6992 17.4347 11.6952 17.4488 11.6932C17.4649 11.2117 17.0165 10.9741 16.5842 10.7444C16.4072 10.6497 16.2262 10.5531 16.0794 10.4402C16.0754 10.4402 16.0714 10.4402 16.0674 10.4402L16.0613 10.4423Z" fill="#1A1F29"/>
<path d="M16.0947 11.1318C16.0807 11.1197 16.0605 11.1137 16.0384 11.1137C16.0445 11.1137 16.0646 11.1197 16.0947 11.1318Z" fill="#1A1F29"/>
<path d="M16.1152 4.25814V4.27023C16.0991 4.78389 16.1172 5.31769 16.1373 5.83337C16.1755 6.91306 16.2157 8.03102 15.9322 9.06237L15.9161 9.12079L15.9241 9.13086C15.9241 9.13086 15.9402 9.12482 15.9463 9.1228C15.9483 9.10266 15.9624 9.08654 15.9804 9.07446C16.266 8.03707 16.2278 6.91709 16.1896 5.83135C16.1715 5.31366 16.1514 4.77785 16.1695 4.26217C16.1695 4.25815 16.1695 4.25411 16.1695 4.25009C16.1514 4.22793 16.1373 4.20376 16.1212 4.1816C16.1212 4.20577 16.1212 4.22994 16.1172 4.25412V4.26217L16.1152 4.25814Z" fill="#1A1F29"/>
<path d="M15.9845 10.3516C15.9845 10.3516 15.9865 10.3516 15.9885 10.3516C15.9925 10.138 15.9804 9.92251 15.9664 9.71503C15.9563 9.54381 15.9462 9.36654 15.9442 9.18928C15.9442 9.18928 15.9422 9.18928 15.9402 9.18928C15.9402 9.36654 15.9523 9.54179 15.9623 9.71503C15.9744 9.92452 15.9865 10.1401 15.9824 10.3516H15.9845Z" fill="#1A1F29"/>
<path d="M14.7779 7.65302C14.7558 7.73964 14.8161 7.82625 14.9126 7.8464C15.0092 7.86654 15.1037 7.81215 15.1258 7.72352C15.3188 6.95605 15.2605 6.13823 15.1982 5.27407C15.164 4.8148 14.7739 3.32418 14.7739 3.83985C14.7739 4.35553 14.8081 4.83091 14.8423 5.29623L14.7799 7.65302H14.7779Z" fill="#FF4D4F"/>
<path d="M13.9117 30.6702C13.8956 30.7689 13.8956 30.9885 13.8212 31.2061C14.1489 31.2061 14.4465 31.0751 14.7039 30.8878C14.7482 30.7287 14.7843 30.5695 14.8125 30.4084C14.535 30.5393 14.2032 30.6199 13.9137 30.6702H13.9117Z" fill="#F5222D"/>
<path d="M14.8118 30.4093C14.7837 30.5704 14.7475 30.7295 14.7032 30.8887C15.1134 30.5905 15.4191 30.1494 15.5719 29.8755C15.6161 29.7949 15.582 29.8573 15.6161 29.7828C15.6423 29.6821 15.6664 29.5793 15.6865 29.4746C15.594 29.6116 15.4875 29.7626 15.2683 30.0628C15.1637 30.2058 15.0008 30.3186 14.8098 30.4072L14.8118 30.4093Z" fill="#FAAD14"/>
<path d="M16.0469 29.0432C16.0408 29.0835 16.0328 29.1238 16.0268 29.1641C16.0368 29.1218 16.0429 29.0835 16.0469 29.0432Z" fill="#1A1F29"/>
<path d="M15.1376 29.9843C14.9526 30.2361 14.4881 30.4335 13.8266 30.5382L13.7924 30.5443C13.7763 30.6752 13.7602 30.8041 13.7482 30.929C13.7582 30.9411 13.7622 30.9552 13.7522 30.9693L13.7381 30.9874C13.6838 31.1526 13.7984 31.3379 13.6657 31.344C13.9995 31.3802 14.3072 31.2916 14.5746 31.1486C14.3977 31.2714 14.2167 31.3681 14.0478 31.4225L14.098 31.4104L14.094 31.4165H14.0719L14.0478 31.4225C14.0196 31.4286 13.9935 31.4346 13.9673 31.4406L13.9573 31.4286L13.5692 31.5434C12.6784 31.63 11.8238 31.6783 10.9713 31.7025C10.4505 31.7186 9.92966 31.7247 9.40283 31.7267H9.26811C8.74128 31.7247 8.22048 31.7186 7.69968 31.7025C6.84911 31.6783 5.99252 31.63 5.10173 31.5434L4.71365 31.4286L4.70158 31.4406C4.67745 31.4346 4.6493 31.4286 4.62316 31.4225L4.59903 31.4185H4.57691L4.57289 31.4104L4.62316 31.4225C4.45426 31.3701 4.27328 31.2735 4.09633 31.1486C4.36377 31.2916 4.67142 31.3802 5.00521 31.344C4.8725 31.3399 4.98712 31.1526 4.93283 30.9874L4.91875 30.9693C4.9087 30.9572 4.91272 30.9411 4.92277 30.929C4.91071 30.8041 4.89462 30.6752 4.87853 30.5443L4.84435 30.5382C4.1828 30.4315 3.7183 30.234 3.53331 29.9843C3.23973 29.5834 3.14925 29.4485 3.02458 29.2611C2.99039 29.2108 2.9542 29.1544 2.90996 29.0899C2.93208 29.2188 2.95621 29.3457 2.98235 29.4746C3.07485 29.6116 3.18142 29.7627 3.4006 30.0628C3.50516 30.2058 3.66803 30.3187 3.85906 30.4073C4.13655 30.5382 4.46833 30.6188 4.75788 30.6691C4.77397 30.7679 4.77397 30.9874 4.84837 31.205C4.52061 31.205 4.22301 31.074 3.96563 30.8867C3.55543 30.5886 3.24979 30.1474 3.09697 29.8735C3.05273 29.7929 3.08691 29.8554 3.05273 29.7808C3.08289 29.8936 3.11506 30.0044 3.15126 30.1112C3.14925 30.1051 3.14724 30.1031 3.15126 30.1132L3.04268 30.1978C3.28196 30.788 3.91938 31.2634 4.50654 31.4447C4.51056 31.4447 4.51458 31.4406 4.5186 31.4406C4.52061 31.4406 4.52262 31.4406 4.52463 31.4406C4.63724 31.4668 4.7599 31.491 4.88658 31.5152C4.93484 31.5232 5.01125 31.5373 5.08162 31.5494C5.15803 31.5635 5.23645 31.5756 5.31689 31.5877C6.5113 31.7025 7.76604 31.7549 9.35055 31.7549H9.37066C10.927 31.7549 12.1657 31.7025 13.346 31.5877C13.4264 31.5756 13.5049 31.5635 13.5813 31.5494C13.6537 31.5373 13.7281 31.5232 13.7763 31.5152C13.903 31.491 14.0257 31.4668 14.1383 31.4406C14.1403 31.4406 14.1423 31.4406 14.1443 31.4406C14.1483 31.4406 14.1523 31.4447 14.1564 31.4447C14.7435 31.2634 15.3809 30.788 15.6202 30.1978L15.5116 30.1132C15.5177 30.1011 15.5157 30.1051 15.5116 30.1112C15.5498 30.0024 15.582 29.8916 15.6102 29.7808C15.576 29.8554 15.6102 29.7909 15.5659 29.8735C15.4151 30.1474 15.1075 30.5886 14.6973 30.8867C14.4399 31.074 14.1423 31.205 13.8145 31.205C13.8869 30.9874 13.8889 30.7679 13.905 30.6691C14.1946 30.6188 14.5284 30.5382 14.8038 30.4073C14.9928 30.3166 15.1577 30.2038 15.2623 30.0628C15.4815 29.7627 15.588 29.6096 15.6805 29.4746C15.7067 29.3477 15.7308 29.2188 15.7529 29.0899C15.7087 29.1544 15.6725 29.2087 15.6383 29.2611C15.5136 29.4485 15.4232 29.5834 15.1296 29.9843H15.1376Z" fill="#1A1F29"/>
<path d="M15.0934 2.91301C14.9345 2.631 14.6329 2.36309 14.3635 2.16367C14.1544 2.01058 13.7783 1.69433 13.4988 1.69634C13.71 2.01461 14.1443 2.26238 14.4439 2.5182C14.645 2.69143 14.83 2.93315 15.0552 3.07617C15.1276 3.03387 15.1276 2.95934 15.0753 2.89488L15.0954 2.91301H15.0934Z" fill="white"/>
<path d="M3.47292 16.7352L3.45482 16.7272V16.709C3.31809 15.3755 3.32613 13.9715 3.33417 12.6139C3.33618 12.078 3.34021 11.5261 3.33417 10.9883C3.12706 11.0588 2.92196 11.1333 2.7249 11.2078C2.71083 12.1304 2.68469 14.5396 2.66257 16.981C2.79327 17.0172 2.99435 17.0777 3.21554 17.1461C3.68405 17.2871 4.30941 17.4765 4.52055 17.5107C4.52055 17.5027 4.52055 17.4946 4.52256 17.4866C4.53462 17.3738 4.54467 17.2589 4.49239 17.1663C4.11436 17.0656 3.77454 16.8903 3.47292 16.7352Z" fill="#F5222D"/>
<path d="M3.80509 8.92789C3.73069 9.0286 3.72868 9.15148 3.72667 9.28442C3.72667 9.34687 3.72667 9.41133 3.7146 9.47377C3.7146 9.47377 3.71259 9.47579 3.71259 9.4778C3.86943 10.0418 4.00416 10.634 4.13486 11.2081C4.32991 12.0683 4.533 12.9546 4.81853 13.7744C6.21603 13.3574 7.71408 13.1439 9.27848 13.1419H9.28049C9.28049 13.1419 9.29658 13.1419 9.30462 13.1419C9.3187 13.1419 9.33478 13.1419 9.35087 13.1419C9.35891 13.1419 9.36695 13.1419 9.375 13.1419C9.375 13.1419 9.38505 13.1419 9.39108 13.1419H9.3931C10.9575 13.1439 12.4576 13.3574 13.853 13.7744C14.1366 12.9566 14.3397 12.0683 14.5367 11.2081C14.6674 10.634 14.8021 10.0418 14.959 9.4778C14.959 9.4778 14.957 9.47579 14.957 9.47377C14.9469 9.41133 14.9469 9.34687 14.9449 9.28442C14.9449 9.15148 14.9409 9.02659 14.8665 8.92789C14.8645 8.92587 14.8665 8.92184 14.8645 8.91781C13.3383 7.9892 11.3959 7.47755 9.375 7.47151C9.375 7.47151 9.35891 7.47151 9.35087 7.47151C7.30991 7.46748 5.34536 7.97913 3.80509 8.91781C3.80509 8.92184 3.80509 8.92386 3.80308 8.92789H3.80509ZM6.07126 12.0864C7.26567 12.2637 8.17455 12.2798 9.375 12.2536C10.5352 12.2778 11.432 12.2596 12.6003 12.0864C13.8108 11.9071 14.2472 10.0801 14.6272 9.34284C14.4764 9.96729 14.223 11.2001 13.9898 11.8084C13.8329 13.5448 11.8483 12.7129 9.375 12.7411C6.86552 12.6927 4.84065 13.5629 4.6818 11.8084C4.44854 11.2021 4.19518 9.96729 4.04437 9.34284C4.42441 10.0821 4.86277 11.9071 6.07126 12.0864Z" fill="#364258"/>
<path d="M4.52744 21.608C4.52342 21.4932 4.52141 21.3763 4.52744 21.2595C4.52744 21.2595 4.52744 21.2575 4.52744 21.2555L4.52744 17.958C4.19164 17.9257 3.85382 17.8593 3.55622 17.7666C3.54215 17.7646 3.52807 17.7646 3.514 17.7646C3.4778 19.3237 3.55823 20.9392 3.63666 22.5003C3.64671 22.6937 3.65676 22.8871 3.66481 23.0785C3.72915 23.0865 3.7935 23.0926 3.84779 23.0785C3.95235 22.9576 4.04485 22.8246 4.13332 22.6957C4.24191 22.5406 4.35451 22.3835 4.48521 22.2425C4.48521 22.2425 4.48521 22.2385 4.48521 22.2365C4.54151 22.035 4.53548 21.8155 4.52945 21.606L4.52744 21.608Z" fill="#364258"/>
<path d="M4.50512 22.3289C4.39251 22.4558 4.29197 22.5968 4.19546 22.7338C4.10296 22.8667 4.00644 23.0037 3.89786 23.1286L3.89183 23.1366L3.88177 23.1406C3.80335 23.1668 3.71689 23.1568 3.64048 23.1467L3.59222 23.1406V23.1124C3.58216 22.911 3.5701 22.7076 3.56004 22.5061C3.48162 20.9329 3.40119 19.3053 3.4394 17.7341V17.7039L3.47358 17.7019C3.48766 17.7019 3.50173 17.6999 3.51581 17.6999C3.5339 17.6999 3.552 17.6999 3.57211 17.7059C3.8677 17.7966 4.19747 17.861 4.52523 17.8933C4.52523 17.859 4.52523 17.8248 4.52523 17.7905C4.52523 17.716 4.52724 17.6435 4.51718 17.573C4.30203 17.5408 3.69276 17.3554 3.19408 17.2044C2.98093 17.1399 2.78991 17.0815 2.66122 17.0452C2.63709 19.5229 2.59084 21.8998 2.58682 22.9009C2.58682 22.9231 2.6029 23.0641 2.58682 23.0782C2.64915 23.2253 2.68535 23.3864 2.71953 23.5415C2.75975 23.7329 2.80398 23.9323 2.89849 24.1055C2.91056 24.1156 2.92463 24.1277 2.9367 24.1378C2.95077 24.1519 2.96686 24.1639 2.98295 24.178C3.09153 24.2284 3.20413 24.1962 3.32076 24.1619C3.36299 24.1498 3.40521 24.1378 3.44744 24.1297C3.44744 24.1297 3.46152 24.1277 3.47961 24.1237C3.51179 24.1075 3.53189 24.0955 3.5339 24.0955C3.53994 24.0995 3.54195 24.1055 3.54396 24.1096H3.59423C3.61031 24.1096 3.62238 24.1055 3.62238 24.1055C3.8315 23.6604 4.11704 23.193 4.47295 22.7176C4.47295 22.7176 4.47295 22.7136 4.47295 22.7116C4.47295 22.7076 4.47094 22.7055 4.47295 22.7015C4.51718 22.5786 4.52925 22.4477 4.50914 22.3269L4.50512 22.3289Z" fill="#F5222D"/>
<path d="M4.46863 15.6938C4.3882 14.3341 4.02425 12.9886 3.67236 11.6893C3.60399 11.4395 3.53763 11.1897 3.47128 10.94C3.45117 10.946 3.43106 10.9541 3.41095 10.9601C3.41699 11.506 3.41498 12.068 3.41095 12.6119C3.40291 13.9635 3.39688 15.3595 3.52758 16.6829C3.81512 16.8319 4.13886 16.9931 4.49276 17.0918C4.5189 16.8924 4.50081 16.6104 4.48271 16.3364C4.46662 16.0947 4.45054 15.8651 4.46461 15.6979C4.46461 15.6979 4.46461 15.6959 4.46662 15.6938H4.46863Z" fill="#364258"/>
<path d="M5.38553 7.52929C4.91701 7.6985 4.38817 7.91001 4.06645 8.27662C4.06645 8.27662 4.06444 8.27662 4.06242 8.27662C4.03226 8.35316 3.99205 8.42568 3.95183 8.49618C3.88547 8.611 3.82716 8.72179 3.80906 8.84668C5.33124 7.93015 7.25959 7.42455 9.26436 7.41246H9.32066C9.32066 7.41246 9.32669 7.41246 9.3287 7.41246H9.36892C9.36892 7.41246 9.37093 7.41246 9.37294 7.41246H9.4031C11.4079 7.42253 13.3362 7.93015 14.8584 8.84668C14.8403 8.72179 14.782 8.611 14.7156 8.49618C14.6754 8.42568 14.6352 8.35316 14.605 8.27662C14.605 8.27662 14.603 8.27662 14.601 8.27662C14.2793 7.91001 13.7504 7.6985 13.2819 7.52929C12.8858 7.38628 12.4696 7.26944 12.0453 7.1788C11.2068 7.00153 10.306 6.91089 9.37093 6.9129C9.37093 6.9129 9.35484 6.9129 9.3468 6.9129C8.39167 6.90887 7.47274 6.99952 6.61815 7.18081C6.19387 7.27146 5.77763 7.38829 5.38151 7.53131L5.38553 7.52929Z" fill="#CF1322"/>
<path d="M3.53551 29.984C3.72051 30.2357 4.185 30.4332 4.84655 30.5379L4.88074 30.5439C4.84857 30.2861 4.81237 30.0182 4.77417 29.7402C4.65352 28.864 4.52885 27.9595 4.53488 27.1981C4.53488 27.1961 4.53689 27.1941 4.5389 27.1921C4.5389 27.1921 4.5389 27.1921 4.5389 27.1901C4.57309 26.3259 4.70178 25.4436 4.82645 24.5895C4.88074 24.2269 4.93503 23.8503 4.98128 23.4836C4.97726 23.4776 4.97324 23.4736 4.97324 23.4655C5.01546 22.6578 5.02954 21.9366 5.01747 21.2578C5.01747 21.2538 5.02149 21.2497 5.02149 21.2477C5.02753 18.7701 5.00541 16.9672 4.95313 15.7425C4.95313 15.7425 4.95313 15.7425 4.95313 15.7405C4.89079 15.0012 4.82645 14.3909 4.75406 13.8208C4.75406 13.8168 4.75607 13.8148 4.75808 13.8107C4.47054 12.9848 4.26543 12.0905 4.06838 11.2223C3.93767 10.6502 3.80496 10.06 3.64611 9.50002C3.40079 9.50606 3.19368 9.40736 2.99461 9.30865C2.90613 9.26434 2.81967 9.22607 2.73119 9.19182C2.73119 9.36909 2.71913 9.54433 2.70908 9.71757C2.69701 9.92706 2.68294 10.1426 2.68696 10.3541C2.89608 10.3481 3.12732 10.197 3.20775 10.0459L3.21781 10.0278H3.23993C3.26607 10.0318 3.2902 10.0439 3.30628 10.052L3.31835 10.058L3.32237 10.0701C3.40079 10.3199 3.46916 10.5938 3.52144 10.8597C3.52747 10.8637 3.53552 10.8698 3.53954 10.8778C3.54356 10.8879 3.54155 10.898 3.53954 10.906C3.6079 11.1619 3.67627 11.4197 3.74665 11.6755C4.10055 12.9808 4.4645 14.3304 4.54494 15.6982C4.54494 15.7022 4.54896 15.7042 4.54695 15.7062C4.53287 15.8694 4.54695 16.095 4.56504 16.3347C4.58515 16.6248 4.60325 16.9229 4.57309 17.1284C4.63944 17.2432 4.62738 17.3761 4.61531 17.495C4.61531 17.5091 4.6133 17.5232 4.61129 17.5393C4.62738 17.6239 4.62537 17.7085 4.62336 17.7911C4.62336 17.8374 4.62336 17.8837 4.62336 17.9301L4.62336 21.2558C4.62336 21.2558 4.62135 21.2598 4.62135 21.2618C4.61531 21.3746 4.61732 21.4935 4.62135 21.6063C4.62738 21.8238 4.63341 22.0474 4.5751 22.2589C4.5751 22.2589 4.5751 22.2589 4.57309 22.2609C4.60928 22.406 4.60124 22.5752 4.54494 22.7262C4.54494 22.7605 4.54091 22.7988 4.5389 22.8391C4.52885 23.0304 4.50673 23.2238 4.47657 23.4152C4.2775 24.9199 3.72051 27.7964 3.71649 27.8004C3.71448 27.8004 4.18299 23.6569 3.60589 24.1564H3.54959C3.54959 24.1585 3.53954 24.1625 3.53149 24.1665C3.50937 24.1786 3.4772 24.1947 3.46514 24.1907C3.42492 24.1987 3.38471 24.2088 3.34449 24.2209C3.21781 24.2572 3.0851 24.2974 2.94836 24.231L2.94233 24.2269C2.92423 24.2128 2.90815 24.1987 2.89206 24.1826C2.87798 24.1705 2.86592 24.1585 2.85184 24.1464L2.8438 24.1363C2.74326 23.953 2.69902 23.7475 2.6568 23.5501C2.63267 23.4413 2.60854 23.3326 2.57435 23.2258C2.55827 23.1875 2.5462 23.1654 2.53213 23.1533C2.48789 24.094 2.46577 25.4114 2.54017 26.5314C2.57234 26.9362 2.61055 27.2968 2.64875 27.5607C2.65479 27.605 2.66283 27.6493 2.66886 27.6916C2.67288 27.6977 2.67891 27.7017 2.68093 27.7098C2.75331 28.024 2.80358 28.3523 2.85184 28.6686C2.87195 28.8076 2.89407 28.9466 2.9182 29.0876C2.96244 29.152 2.99863 29.2064 3.03281 29.2588C3.15748 29.4461 3.24797 29.5811 3.54155 29.9819L3.53551 29.984Z" fill="#F5222D"/>
<path d="M4.57979 31.4158L4.6019 31.4178L4.62402 31.4219L4.57576 31.4078L4.57979 31.4158Z" fill="#F5222D"/>
<path d="M4.09693 31.1484C4.27388 31.2713 4.45485 31.368 4.62376 31.4224C4.65191 31.4284 4.67805 31.4345 4.70218 31.4405L4.71424 31.4284L5.10233 31.5433C5.99311 31.6299 6.8477 31.6782 7.70028 31.7024C8.22912 31.7165 8.75192 31.7245 9.2687 31.7266H9.40342C9.9202 31.7245 10.443 31.7185 10.9718 31.7024C11.8224 31.6782 12.679 31.6299 13.5698 31.5433L13.9579 31.4284L13.9679 31.4405C13.9921 31.4345 14.0202 31.4284 14.0484 31.4224C14.2173 31.37 14.3982 31.2733 14.5752 31.1484C14.3078 31.2915 14.0001 31.3801 13.6663 31.3438C12.6227 31.3821 10.9678 31.4063 9.37527 31.4123C7.75859 31.4063 6.06751 31.3821 5.00581 31.3438C4.67202 31.3801 4.36637 31.2915 4.09693 31.1484Z" fill="#F5222D"/>
<path d="M2.63513 10.4812C2.48432 10.596 2.30134 10.6947 2.12238 10.7894C1.70011 11.013 1.30197 11.2265 1.28589 11.6455L1.39849 11.5972C1.65789 11.4864 2.04999 11.3192 2.48231 11.15L2.54666 11.1419C2.54666 11.1419 2.56677 11.1339 2.57481 11.1298C2.5909 11.1177 2.60899 11.1117 2.63111 11.1117C2.63111 11.1117 3.43945 10.8559 3.43945 10.7914C3.43342 10.7632 3.42739 10.737 3.42136 10.7088C3.39521 10.6061 3.36103 10.457 3.32283 10.308C3.30272 10.2355 3.28462 10.1629 3.2625 10.0945C3.25848 10.0945 3.25647 10.0924 3.25245 10.0904C3.15191 10.2536 2.91061 10.4047 2.68741 10.4107V10.4409L2.63312 10.4832L2.63513 10.4812Z" fill="#F5222D"/>
<path d="M4.51459 2.48633C4.66943 2.36144 4.83029 2.23453 4.99316 2.11569C4.86849 2.20029 4.74785 2.29094 4.62921 2.38561C4.591 2.41784 4.5528 2.45208 4.51459 2.48633Z" fill="#F5222D"/>
<path d="M2.5563 4.25845V4.27054C2.57239 4.78419 2.55429 5.318 2.53619 5.83367C2.49799 6.91336 2.45777 8.03133 2.7413 9.06268L2.75738 9.12109L2.74934 9.13116C2.84385 9.16541 2.93634 9.21174 3.02683 9.25605C3.21584 9.34871 3.41089 9.44339 3.6361 9.44137C3.64213 9.39102 3.64415 9.34066 3.64415 9.28627C3.64616 9.14929 3.64817 9.00628 3.73664 8.88944C3.73664 8.88944 3.74066 8.88743 3.74267 8.88541C3.75273 8.73232 3.82512 8.6034 3.89549 8.4765C3.93571 8.40801 3.97593 8.3355 4.00408 8.26096C4.00408 8.25492 4.00408 8.24686 4.01011 8.24082C4.3439 7.86212 4.88078 7.64659 5.35935 7.47335C5.7595 7.33034 6.17775 7.21149 6.60605 7.12084C7.4526 6.94157 8.35947 6.85092 9.30253 6.85092C9.31862 6.85092 9.3347 6.85092 9.35079 6.85092H9.37492C10.316 6.85092 11.2208 6.94157 12.0654 7.12084C12.4937 7.21149 12.9119 7.33034 13.3121 7.47335C13.7906 7.64659 14.3275 7.86212 14.6613 8.24082C14.6673 8.24686 14.6673 8.25291 14.6673 8.26096C14.6955 8.3355 14.7357 8.40801 14.7759 8.4765C14.8463 8.60139 14.9187 8.73232 14.9287 8.88541C14.9308 8.88541 14.9328 8.88743 14.9348 8.88944C15.0232 9.00829 15.0253 9.14929 15.0273 9.28627C15.0273 9.34066 15.0293 9.39102 15.0353 9.44137C15.2605 9.44339 15.4556 9.34871 15.6446 9.25605C15.7351 9.21174 15.8256 9.16742 15.9221 9.13116L15.914 9.12109L15.9301 9.06268C16.2136 8.03133 16.1734 6.91336 16.1352 5.83367C16.1171 5.318 16.099 4.78621 16.1151 4.27054V4.25845V4.25039C16.1171 4.22622 16.1171 4.20205 16.1191 4.17787C15.9583 3.94622 15.8517 3.68234 15.7512 3.42249C15.6908 3.26739 15.6285 3.10624 15.5541 2.95516C15.5259 2.93905 15.4918 2.93703 15.4596 2.93502C15.4515 2.97732 15.4435 3.01962 15.4375 3.06192C15.4194 3.18077 15.4013 3.30566 15.3369 3.41444L15.3309 3.42048C15.3168 3.43257 15.3048 3.44465 15.2907 3.46077L15.2847 3.46681H15.2746C15.2263 3.47755 15.1345 3.44062 14.9991 3.35602C14.9991 3.35602 14.9931 3.35602 14.9891 3.35602C14.9871 3.35602 14.985 3.35602 14.981 3.35602C14.977 3.35602 15.2143 3.59573 14.9649 3.34595C14.2913 2.66711 13.6298 1.98223 12.7852 1.63778C12.7812 1.63778 12.7792 1.63979 12.7752 1.63778C11.6672 1.42828 10.5211 1.32153 9.37291 1.32153C9.37291 1.32153 9.35481 1.32153 9.34878 1.32153C8.1805 1.31951 7.01826 1.42627 5.89222 1.63979C5.8882 1.63979 5.88618 1.63979 5.88216 1.63979C5.03763 1.98425 4.37608 2.67114 3.70246 3.34796C3.45312 3.59774 3.69039 3.35602 3.68637 3.35803C3.68436 3.35803 3.68235 3.35803 3.67833 3.35803C3.67431 3.35803 3.6723 3.35803 3.66827 3.35803C3.53288 3.44398 3.44105 3.48158 3.3928 3.47084H3.38274L3.37671 3.46278C3.36263 3.44667 3.35057 3.43458 3.33649 3.42249L3.33046 3.41645C3.2641 3.30767 3.24802 3.1848 3.22992 3.06394C3.22389 3.02164 3.21584 2.97934 3.2078 2.93704C3.17362 2.93704 3.13943 2.94308 3.11329 2.95718C3.03889 3.10825 2.97656 3.2694 2.91623 3.42451C2.81569 3.68436 2.70912 3.94824 2.54826 4.17989C2.54826 4.20406 2.54826 4.22823 2.55228 4.25241V4.26046L2.5563 4.25845ZM15.1962 5.2757C15.2585 6.13985 15.3188 6.95768 15.1238 7.72515C15.1017 7.81177 15.0072 7.86817 14.9106 7.84802C14.8141 7.82788 14.7538 7.74126 14.7759 7.65465L14.8383 5.29786C14.8041 4.83254 14.7699 4.35111 14.7699 3.84148C14.7699 3.33185 15.16 4.81643 15.1942 5.2757H15.1962ZM3.47524 5.2757C3.50942 4.81643 3.89952 3.3258 3.89952 3.84148C3.89952 4.35715 3.86533 4.83254 3.83115 5.29786L3.89348 7.65465C3.9156 7.74126 3.85528 7.82788 3.75876 7.84802C3.66224 7.86817 3.56773 7.81378 3.54562 7.72515C3.35258 6.95768 3.41089 6.13985 3.47323 5.2757H3.47524Z" fill="#F5222D"/>
<path d="M6.04492 0.999236C6.04492 0.999236 6.03889 0.981107 6.03286 0.971035C5.92629 0.942834 5.82977 0.99118 5.72722 1.04154C5.65081 1.07981 5.57037 1.11607 5.48391 1.12413C5.47788 1.12816 5.47184 1.13017 5.4638 1.13017C5.26071 1.27319 5.03349 1.41218 4.81632 1.54311C4.20504 1.91174 3.57566 2.29446 3.266 2.90683C3.27605 2.95517 3.2841 3.00352 3.29013 3.05186C3.30621 3.16668 3.32431 3.28351 3.38262 3.38221C3.39469 3.3943 3.40676 3.40639 3.41681 3.41847C3.45099 3.4225 3.47512 3.40034 3.50931 3.3661C3.52941 3.34596 3.97581 2.92294 4.51269 2.48382C4.5509 2.44957 4.5891 2.41734 4.62731 2.3831C4.95507 2.09907 5.29691 1.85332 5.67896 1.67002C5.73928 1.63779 5.7996 1.60958 5.85591 1.58743C5.85591 1.58743 5.85591 1.58541 5.85792 1.5834C5.87199 1.47261 5.91221 1.36786 5.95444 1.26715C5.99063 1.17851 6.02683 1.08787 6.04291 0.99521L6.04492 0.999236ZM4.23118 2.51806C4.0301 2.69129 3.84511 2.93301 3.6199 3.07603C3.54751 3.03373 3.54751 2.9592 3.59979 2.89474L3.57968 2.91287C3.74055 2.63086 4.04016 2.36295 4.3096 2.16353C4.51873 2.01044 4.89475 1.69419 5.17425 1.6962C4.96311 2.01447 4.52878 2.26224 4.22917 2.51806H4.23118Z" fill="#D7DEEB"/>
<path d="M1.2858 11.7011L1.42455 11.6427C1.65981 11.542 2.31533 11.2398 2.55059 11.1431L2.48625 11.1512C2.05393 11.3204 1.66182 11.4876 1.40243 11.5984L1.28982 11.6467C1.30591 11.2277 1.70405 11.0162 2.12631 10.7906C2.30528 10.6959 2.48826 10.5972 2.63907 10.4824L2.69336 10.4401V10.4099C2.69336 10.4099 2.68331 10.4099 2.67727 10.4099C2.66521 10.4301 2.64309 10.4421 2.61695 10.4442C2.61695 10.4442 2.60891 10.4442 2.60489 10.4442C2.4581 10.557 2.27712 10.6536 2.10017 10.7483C1.66785 10.978 1.22145 11.2177 1.23553 11.6971C1.24961 11.7011 1.26167 11.7011 1.27776 11.7031C1.28178 11.7031 1.2858 11.7031 1.28982 11.7031L1.2858 11.7011Z" fill="#1A1F29"/>
<path d="M2.63281 11.1137C2.61069 11.1137 2.5926 11.1218 2.57651 11.1318C2.60667 11.1197 2.62678 11.1137 2.63281 11.1137Z" fill="#1A1F29"/>
<path d="M2.54659 4.08282C2.51643 3.02931 3.19407 1.99595 4.56744 1.0069C6.00718 0.330082 7.74652 0.26965 9.26668 0.265622H9.327H9.34711H9.40743C10.9256 0.26965 12.6669 0.330082 14.1067 1.0069C15.48 1.99595 16.1577 3.02931 16.1275 4.08282C16.1436 4.10699 16.1597 4.12915 16.1758 4.15332C16.2381 3.05953 15.5544 1.98789 14.1348 0.966618C12.7072 0.291811 11.008 0.219294 9.37727 0.217279C9.37727 0.217279 9.36119 0.217279 9.35314 0.217279C7.7063 0.217279 5.98305 0.285767 4.5413 0.966618C3.12168 1.98789 2.436 3.05953 2.50034 4.15332C2.51643 4.12915 2.53453 4.10699 2.5486 4.08282H2.54659Z" fill="#1A1F29"/>
<path d="M2.72759 9.12085C2.72759 9.12085 2.74368 9.12488 2.75172 9.12891L2.75977 9.11883L2.74368 9.06042C2.46016 8.02907 2.50037 6.9111 2.53858 5.83141C2.55668 5.31574 2.57477 4.78395 2.55869 4.26828V4.25619V4.24813C2.55667 4.22396 2.55668 4.19979 2.55466 4.17562C2.53858 4.19777 2.52249 4.22194 2.5064 4.2441C2.5064 4.24813 2.5064 4.25216 2.5064 4.25619C2.52249 4.77186 2.50439 5.30768 2.4863 5.82537C2.44809 6.9111 2.40989 8.0331 2.69542 9.06848C2.71352 9.07855 2.72759 9.09466 2.7296 9.11682L2.72759 9.12085Z" fill="#1A1F29"/>
<path d="M2.73145 9.18928C2.73145 9.18928 2.72944 9.18928 2.72742 9.18928C2.72742 9.36654 2.71737 9.54381 2.70531 9.71503C2.69324 9.92452 2.67917 10.1401 2.68319 10.3516C2.68319 10.3516 2.6852 10.3516 2.68721 10.3516C2.68319 10.138 2.69525 9.9225 2.70933 9.71503C2.71938 9.54381 2.72943 9.36654 2.73145 9.18928Z" fill="#1A1F29"/>
<path d="M3.76061 7.84552C3.85713 7.82538 3.91745 7.73876 3.89534 7.65214L3.833 5.29535C3.86718 4.83004 3.90137 4.34861 3.90137 3.83898C3.90137 3.32935 3.51127 4.81392 3.47709 5.27319C3.41475 6.13735 3.35443 6.95518 3.54948 7.72265C3.5716 7.80926 3.6661 7.86566 3.76262 7.84552H3.76061Z" fill="#FF4D4F"/>
<path d="M4.85053 31.2061C4.77814 30.9885 4.77613 30.7689 4.76004 30.6702C4.47049 30.6199 4.1367 30.5393 3.86122 30.4084C3.88937 30.5695 3.92556 30.7287 3.9698 30.8878C4.22718 31.0751 4.52478 31.2061 4.85254 31.2061H4.85053Z" fill="#F5222D"/>
<path d="M3.96777 30.8886C3.92354 30.7295 3.88734 30.5703 3.85919 30.4092C3.67018 30.3185 3.50529 30.2057 3.40073 30.0647C3.18155 29.7646 3.07498 29.6115 2.98248 29.4765C3.0046 29.5793 3.02672 29.682 3.05286 29.7847C3.08704 29.8593 3.05286 29.7948 3.0971 29.8774C3.24791 30.1514 3.55556 30.5925 3.96576 30.8906L3.96777 30.8886Z" fill="#FAAD14"/>
<path d="M2.64453 29.1641C2.6385 29.1238 2.63046 29.0835 2.62442 29.0432C2.62845 29.0815 2.63448 29.1218 2.64453 29.1641Z" fill="#1A1F29"/>
<path d="M0.989914 11.7337C0.989914 11.7337 1.07236 11.9634 1.2855 11.915C1.34582 11.9009 1.52478 11.8425 1.52478 11.8425C1.73994 11.7519 2.04558 11.6209 2.38943 11.4819C2.35927 13.732 2.2909 20.8426 2.28286 22.9154C2.20444 24.3335 2.15617 26.2089 2.36932 27.4698C2.36329 27.496 2.39546 27.7398 2.40149 27.766C2.47187 28.0701 2.52214 28.3944 2.56839 28.7067C2.58649 28.8174 2.60257 28.9303 2.62067 29.0431C2.6267 29.0833 2.63475 29.1236 2.64078 29.1639C2.7011 29.5205 2.7755 29.877 2.89615 30.2174C2.9062 30.2476 2.9243 30.2738 2.95044 30.296C3.43906 31.4744 4.77222 31.7181 4.80239 31.708C5.47801 31.8571 7.86684 31.988 9.24625 31.9961H9.29652H9.32467H9.37494H9.42521C10.8046 31.9901 13.1934 31.8571 13.8651 31.7101C13.8952 31.7201 15.2304 31.4764 15.719 30.298C15.7431 30.2758 15.7612 30.2497 15.7733 30.2194C15.8939 29.877 15.9683 29.5205 16.0287 29.1659C16.0347 29.1256 16.0427 29.0854 16.0488 29.0451C16.0669 28.9323 16.085 28.8195 16.1011 28.7087C16.1493 28.3964 16.1976 28.0721 16.268 27.768C16.274 27.7418 16.3062 27.498 16.3001 27.4719C16.5133 26.2109 16.465 24.3355 16.3866 22.9174C16.3785 20.8446 16.3102 13.734 16.28 11.484C16.6239 11.6209 16.9315 11.7519 17.1447 11.8445C17.1447 11.8445 17.3236 11.9029 17.3839 11.917C17.5971 11.9654 17.6795 11.7357 17.6795 11.7357C17.7197 11.1032 17.1768 10.8152 16.6983 10.5594C16.5475 10.4788 16.4027 10.4022 16.28 10.3176C16.28 10.1102 16.27 9.90269 16.2559 9.70327C16.2438 9.51593 16.2318 9.32256 16.2338 9.13522C16.2338 9.11911 16.2338 9.10501 16.2277 9.08889C16.5092 8.03337 16.469 6.91138 16.4308 5.82765C16.4127 5.314 16.3946 4.78221 16.4107 4.27459V4.26855C16.5253 3.06397 15.8095 1.89564 14.2793 0.795807L14.2471 0.777678C12.7551 0.0706406 10.9775 0.00618172 9.42521 0.000137329H9.24424C7.6919 0.00416565 5.91436 0.0706406 4.42235 0.777678L4.39017 0.795807C2.85995 1.89564 2.1421 3.06397 2.25873 4.26855V4.27459C2.27481 4.78221 2.25672 5.314 2.23862 5.82765C2.20041 6.91339 2.1602 8.03337 2.44171 9.08889C2.43769 9.10501 2.43568 9.11911 2.43568 9.13522C2.43568 9.32256 2.42361 9.51593 2.41356 9.70327C2.40149 9.9047 2.38943 10.1102 2.38943 10.3176C2.26878 10.4022 2.124 10.4788 1.97118 10.5594C1.49261 10.8152 0.947687 11.1032 0.989914 11.7357V11.7337ZM4.48267 16.3385C4.50076 16.6125 4.51886 16.8945 4.49272 17.0939C4.13681 16.9952 3.81307 16.8321 3.52754 16.685C3.39483 15.3616 3.40287 13.9656 3.41091 12.614C3.41292 12.0701 3.41694 11.5081 3.41091 10.9622C3.43102 10.9562 3.45113 10.9481 3.47124 10.9421C3.53759 11.1919 3.60395 11.4417 3.67232 11.6914C4.02421 12.9927 4.38816 14.3363 4.46859 15.696C4.46859 15.696 4.46859 15.698 4.46658 15.7C4.45251 15.8692 4.46658 16.0968 4.48468 16.3385H4.48267ZM4.46859 22.716C4.46859 22.716 4.46859 22.72 4.46859 22.722C4.11268 23.1994 3.82715 23.6647 3.61803 24.1099C3.61803 24.1099 3.60596 24.1099 3.58988 24.1139C3.5577 24.118 3.50743 24.124 3.47526 24.128C3.45716 24.1301 3.44309 24.1321 3.44309 24.1341C3.40086 24.1421 3.35863 24.1542 3.31641 24.1663C3.19978 24.2006 3.08919 24.2328 2.97859 24.1824C2.96251 24.1703 2.94843 24.1562 2.93234 24.1421C2.92028 24.1321 2.90821 24.12 2.89414 24.1099C2.79963 23.9367 2.7574 23.7373 2.71518 23.5459C2.68099 23.3908 2.6448 23.2296 2.58247 23.0826C2.59855 23.0685 2.58247 22.9275 2.58247 22.9053C2.58649 21.9042 2.63273 19.5273 2.65686 17.0496C2.78555 17.0859 2.97859 17.1443 3.18972 17.2087C3.6884 17.3598 4.29969 17.5431 4.51283 17.5774C4.52288 17.6479 4.52288 17.7184 4.52087 17.7949C4.52087 17.8292 4.52087 17.8634 4.52087 17.8976C4.19311 17.8654 3.86334 17.801 3.56776 17.7103C3.54564 17.7063 3.52754 17.7043 3.51145 17.7043C3.49738 17.7043 3.4833 17.7043 3.46923 17.7063H3.43705V17.7385C3.39885 19.3097 3.47928 20.9373 3.5577 22.5105C3.56776 22.714 3.57781 22.9154 3.58786 23.1168V23.145L3.63813 23.1511C3.71454 23.1611 3.80101 23.1712 3.87943 23.145L3.88948 23.141L3.89552 23.1329C4.0041 23.006 4.10062 22.8691 4.19311 22.7381C4.28963 22.6012 4.38816 22.4602 4.50278 22.3333C4.52288 22.4541 4.51283 22.5871 4.46658 22.7079C4.46658 22.7119 4.46658 22.714 4.46658 22.718L4.46859 22.716ZM4.48267 22.2406C4.48267 22.2406 4.48267 22.2446 4.48267 22.2466C4.34996 22.3876 4.23735 22.5448 4.13078 22.6999C4.0423 22.8288 3.94981 22.9597 3.84525 23.0826C3.78894 23.0987 3.7246 23.0906 3.66226 23.0826C3.65221 22.8892 3.64417 22.6978 3.63411 22.5045C3.55569 20.9433 3.47526 19.3278 3.51145 17.7687C3.52553 17.7687 3.53759 17.7687 3.55368 17.7707C3.85128 17.8634 4.18909 17.9279 4.52489 17.9621V21.2596C4.52489 21.2596 4.52489 21.2616 4.52489 21.2636C4.51886 21.3784 4.52087 21.4973 4.52489 21.6121C4.53093 21.8236 4.53696 22.0412 4.48066 22.2426L4.48267 22.2406ZM4.52087 17.4867C4.52087 17.4867 4.52087 17.5028 4.51886 17.5109C4.30773 17.4766 3.68036 17.2873 3.21385 17.1463C2.99066 17.0798 2.79159 17.0174 2.66089 16.9811C2.68502 14.5397 2.70914 12.1285 2.72322 11.208C2.92028 11.1335 3.12538 11.0589 3.33249 10.9884C3.33852 11.5263 3.33651 12.0782 3.33249 12.614C3.32445 13.9717 3.31842 15.3777 3.45113 16.7092V16.7273L3.47124 16.7354C3.77085 16.8905 4.11067 17.0637 4.49071 17.1664C4.54299 17.2591 4.53294 17.3739 4.52087 17.4867ZM16.0307 27.5645C16.0246 27.6088 16.0166 27.6532 16.0106 27.6955C16.0065 27.7015 16.0005 27.7055 15.9985 27.7136C15.9261 28.0278 15.8758 28.3562 15.8276 28.6724C15.8055 28.8114 15.7854 28.9504 15.7612 29.0914C15.7391 29.2203 15.715 29.3472 15.6888 29.4761C15.6667 29.5789 15.6446 29.6816 15.6185 29.7843C15.5883 29.8971 15.5581 30.0079 15.5199 30.1147C15.5219 30.1086 15.524 30.1066 15.5199 30.1167L15.6285 30.2013C15.3892 30.7915 14.7518 31.2669 14.1647 31.4482C14.1606 31.4482 13.8409 31.5086 13.8349 31.5086C13.8349 31.5086 13.8148 31.5126 13.7826 31.5167C13.7343 31.5247 13.6579 31.5388 13.5876 31.5509C13.491 31.5691 13.4026 31.5852 13.4006 31.5852C13.3845 31.5852 13.3684 31.5872 13.3523 31.5892C12.172 31.704 10.9333 31.7544 9.37695 31.7564C9.37695 31.7564 9.36287 31.7564 9.35684 31.7564C7.77233 31.7564 6.51759 31.706 5.32318 31.5892C5.30709 31.5892 5.29101 31.5872 5.27492 31.5852C5.27492 31.5852 5.18444 31.5691 5.08792 31.5509C5.01553 31.5388 4.94113 31.5247 4.89287 31.5167C4.86271 31.5106 4.84059 31.5086 4.84059 31.5086C4.83657 31.5086 4.51685 31.4462 4.51082 31.4482C3.92367 31.2669 3.28825 30.7915 3.04696 30.2013L3.15554 30.1167C3.14951 30.1046 3.15152 30.1086 3.15554 30.1147C3.11734 30.0059 3.08516 29.8951 3.05701 29.7843C3.03087 29.6836 3.00674 29.5809 2.98664 29.4761C2.96049 29.3492 2.93637 29.2203 2.91425 29.0914C2.89012 28.9504 2.868 28.8114 2.84789 28.6724C2.79963 28.3562 2.74936 28.0278 2.67697 27.7136C2.67697 27.7055 2.66893 27.7015 2.66491 27.6955C2.65686 27.6532 2.65083 27.6088 2.6448 27.5645C2.59654 27.2563 2.56035 26.9078 2.53622 26.5352C2.46182 25.4152 2.48393 24.0978 2.52817 23.1571C2.52817 23.145 2.52817 23.1309 2.52817 23.1188C2.54225 23.1551 2.55632 23.1914 2.56839 23.2296C2.60257 23.3364 2.6267 23.4472 2.65083 23.5539C2.69306 23.7514 2.7373 23.9568 2.83784 24.1401L2.84588 24.1502C2.85995 24.1623 2.87403 24.1744 2.8861 24.1865C2.90218 24.2006 2.92028 24.2167 2.93637 24.2308L2.9424 24.2348C3.08114 24.3013 3.21184 24.263 3.33852 24.2247C3.37271 24.2147 3.4833 24.1885 3.52553 24.1703C3.53558 24.1663 3.54161 24.1643 3.54363 24.1603H3.59993C4.17703 23.6607 3.70851 27.8062 3.71052 27.8042C3.71454 27.8022 4.27355 24.9237 4.4706 23.419C4.50077 23.1893 4.52288 22.9919 4.53294 22.8429C4.53495 22.8026 4.53696 22.7643 4.53897 22.7301C4.59527 22.579 4.60332 22.4098 4.56712 22.2648C4.56712 22.2648 4.56712 22.2648 4.56913 22.2627C4.62745 22.0492 4.62141 21.8256 4.61538 21.6101C4.61136 21.4973 4.60935 21.3784 4.61538 21.2656C4.61538 21.2656 4.61739 21.2616 4.61739 21.2596V17.9339C4.61739 17.8876 4.61739 17.8412 4.61739 17.7949C4.6194 17.7123 4.62141 17.6257 4.60533 17.5431C4.60533 17.529 4.60734 17.5149 4.60935 17.4988C4.62141 17.38 4.63348 17.247 4.56712 17.1322C4.59929 16.9247 4.57919 16.6286 4.55908 16.3385C4.54299 16.0988 4.52892 15.8732 4.54098 15.7101C4.54098 15.708 4.53897 15.704 4.53897 15.702C4.45854 14.3343 4.09459 12.9846 3.74068 11.6793C3.67031 11.4215 3.60194 11.1657 3.53357 10.9099C3.53759 10.8998 3.5396 10.8897 3.53357 10.8817C3.52955 10.8736 3.52352 10.8696 3.51547 10.8635C3.46319 10.5976 3.39483 10.3237 3.31641 10.0739L3.31238 10.0618L3.30032 10.0558C3.28423 10.0477 3.2601 10.0356 3.23396 10.0336H3.21184L3.20179 10.0497C3.12136 10.2008 2.88811 10.3519 2.68099 10.3579C2.68099 10.3579 2.67898 10.3579 2.67697 10.3579C2.67295 10.1444 2.68502 9.92887 2.69909 9.7214C2.70915 9.55018 2.7192 9.37291 2.72121 9.19565C2.72121 9.19565 2.72322 9.19565 2.72523 9.19565C2.81371 9.22788 2.90017 9.26817 2.98865 9.31248C3.18771 9.41119 3.39483 9.50989 3.64014 9.50385C3.79699 10.0658 3.93171 10.654 4.06241 11.2261C4.25947 12.0923 4.46457 12.9887 4.75212 13.8146C4.75212 13.8186 4.74809 13.8206 4.74809 13.8246C4.82249 14.3947 4.88483 15.005 4.94716 15.7443V15.7463C4.99944 16.971 5.02357 18.7739 5.01553 21.2515C5.01553 21.2556 5.01151 21.2576 5.01151 21.2616C5.02357 21.9405 5.0095 22.6616 4.96727 23.4693C4.96727 23.4754 4.97129 23.4814 4.97531 23.4875C4.92906 23.8541 4.87477 24.2308 4.82048 24.5934C4.69581 25.4474 4.56712 26.3277 4.53294 27.1939C4.53294 27.1939 4.53294 27.1939 4.53294 27.1959C4.53294 27.1979 4.52892 27.1999 4.52892 27.2019C4.52288 27.9634 4.64755 28.8698 4.7682 29.744C4.80641 30.024 4.8426 30.292 4.87477 30.5478C4.89086 30.6787 4.90695 30.8076 4.91901 30.9325C4.90896 30.9446 4.90493 30.9587 4.91499 30.9728L4.92906 30.9909C4.98336 31.1561 4.86874 31.3414 5.00145 31.3475C6.06315 31.3857 7.75424 31.4099 9.37092 31.416C10.9635 31.4099 12.6184 31.3857 13.662 31.3475C13.7947 31.3434 13.6801 31.1561 13.7343 30.9909L13.7484 30.9728C13.7585 30.9607 13.7545 30.9446 13.7444 30.9325C13.7565 30.8076 13.7726 30.6787 13.7886 30.5478C13.8208 30.2899 13.857 30.022 13.8952 29.744C14.0159 28.8678 14.1405 27.9634 14.1345 27.2019C14.1345 27.1999 14.1325 27.1979 14.1305 27.1959C14.1305 27.1959 14.1305 27.1959 14.1305 27.1939C14.0963 26.3297 13.9676 25.4474 13.8429 24.5934C13.7886 24.2308 13.7343 23.8541 13.6881 23.4875C13.6921 23.4814 13.6961 23.4774 13.6961 23.4693C13.6539 22.6616 13.6398 21.9405 13.6519 21.2616C13.6519 21.2576 13.6479 21.2536 13.6479 21.2515C13.6419 18.7739 13.664 16.971 13.7163 15.7463C13.7163 15.7463 13.7163 15.7463 13.7163 15.7443C13.7786 15.005 13.8429 14.3947 13.9153 13.8246C13.9153 13.8206 13.9133 13.8186 13.9113 13.8146C14.1988 12.9887 14.4039 12.0943 14.601 11.2261C14.7317 10.654 14.8644 10.0638 15.0233 9.50385C15.2686 9.50989 15.4757 9.41119 15.6748 9.31248C15.7632 9.26817 15.8497 9.22989 15.9382 9.19565C15.9382 9.19565 15.9402 9.19565 15.9422 9.19565C15.9422 9.37291 15.9523 9.55018 15.9643 9.7214C15.9764 9.93089 15.9905 10.1464 15.9864 10.3579C15.9864 10.3579 15.9844 10.3579 15.9824 10.3579C15.7733 10.3519 15.5421 10.2008 15.4616 10.0497L15.4516 10.0316H15.4295C15.4033 10.0356 15.3792 10.0477 15.3631 10.0558L15.351 10.0618L15.347 10.0739C15.2686 10.3237 15.2002 10.5976 15.1479 10.8635C15.1419 10.8676 15.1339 10.8736 15.1298 10.8817C15.1258 10.8917 15.1278 10.9018 15.1298 10.9099C15.0615 11.1657 14.9931 11.4235 14.9227 11.6793C14.5688 12.9846 14.2049 14.3343 14.1244 15.702C14.1244 15.706 14.1204 15.708 14.1224 15.7101C14.1365 15.8732 14.1224 16.0988 14.1043 16.3385C14.0842 16.6286 14.0661 16.9267 14.0963 17.1322C14.0299 17.247 14.042 17.38 14.0541 17.4988C14.0541 17.5129 14.0561 17.527 14.0581 17.5431C14.042 17.6277 14.044 17.7123 14.046 17.7949C14.046 17.8412 14.048 17.8876 14.046 17.9339V21.2596C14.046 21.2596 14.048 21.2636 14.048 21.2656C14.0541 21.3784 14.0521 21.4973 14.048 21.6101C14.042 21.8276 14.036 22.0512 14.0943 22.2627C14.0943 22.2627 14.0943 22.2627 14.0963 22.2648C14.0601 22.4098 14.0681 22.579 14.1244 22.7301C14.1244 22.7643 14.1285 22.8026 14.1305 22.8429C14.1405 22.994 14.1626 23.1914 14.1928 23.419C14.3919 24.9237 14.9489 27.8002 14.9529 27.8042C14.9549 27.8042 14.4864 23.6607 15.0635 24.1603H15.1198C15.1198 24.1623 15.1298 24.1663 15.1379 24.1703C15.1821 24.1885 15.2907 24.2147 15.3249 24.2247C15.4516 24.261 15.5843 24.3013 15.721 24.2348L15.727 24.2308C15.7451 24.2167 15.7612 24.2026 15.7773 24.1865C15.7914 24.1744 15.8035 24.1623 15.8175 24.1502L15.8256 24.1401C15.9261 23.9568 15.9704 23.7514 16.0126 23.5539C16.0367 23.4452 16.0608 23.3364 16.095 23.2296C16.1071 23.1914 16.1192 23.1551 16.1352 23.1188C16.1352 23.1309 16.1352 23.145 16.1352 23.1571C16.1795 24.0978 16.2016 25.4152 16.1272 26.5352C16.1031 26.9078 16.0669 27.2563 16.0186 27.5645H16.0307ZM9.35081 6.91339C9.35081 6.91339 9.36689 6.91339 9.37494 6.91339C10.312 6.91339 11.2108 7.00202 12.0493 7.1813C12.4736 7.27194 12.8898 7.38878 13.2859 7.5318C13.7545 7.701 14.2833 7.91251 14.605 8.27912C14.605 8.27912 14.607 8.27912 14.609 8.27912C14.6392 8.35567 14.6794 8.42818 14.7196 8.49869C14.786 8.6135 14.8443 8.72429 14.8624 8.84918C13.3402 7.93265 11.4119 7.42705 9.40711 7.41496H9.37695H9.37293H9.33271C9.33271 7.41496 9.32668 7.41496 9.32467 7.41496H9.26837C7.2636 7.42504 5.33525 7.93265 3.81307 8.84918C3.83117 8.72429 3.88948 8.6135 3.95584 8.49869C3.99606 8.42818 4.03627 8.35567 4.06643 8.27912C4.06643 8.27912 4.06844 8.27912 4.07046 8.27912C4.39218 7.91251 4.92102 7.701 5.38954 7.5318C5.78566 7.38878 6.2019 7.27194 6.62618 7.1813C7.48077 7.00001 8.3997 6.90936 9.35483 6.91339H9.35081ZM9.35081 7.47338C9.35081 7.47338 9.36689 7.47338 9.37494 7.47338C11.3958 7.47942 13.3382 7.98906 14.8644 8.91969C14.8644 8.92371 14.8644 8.92573 14.8664 8.92976C14.9408 9.03047 14.9428 9.15335 14.9448 9.2863C14.9448 9.34874 14.9448 9.4132 14.9569 9.47565C14.9569 9.47565 14.9589 9.47766 14.9589 9.47968C14.8021 10.0437 14.6653 10.6359 14.5367 11.21C14.3416 12.0701 14.1385 12.9564 13.853 13.7763C12.4555 13.3593 10.9574 13.1458 9.39304 13.1438H9.39102C9.39102 13.1438 9.38097 13.1438 9.37494 13.1438C9.37494 13.1438 9.35885 13.1438 9.35081 13.1438C9.33472 13.1438 9.32065 13.1438 9.30456 13.1438C9.29652 13.1438 9.28847 13.1438 9.28043 13.1438H9.27842C7.71402 13.1458 6.21396 13.3593 4.81847 13.7763C4.53495 12.9585 4.33186 12.0701 4.1348 11.21C4.0041 10.6359 3.86937 10.0437 3.71253 9.47968C3.71253 9.47968 3.71454 9.47766 3.71454 9.47565C3.7246 9.4132 3.7246 9.34874 3.72661 9.2863C3.72661 9.15335 3.73063 9.02846 3.80503 8.92976C3.80704 8.92774 3.80503 8.92371 3.80704 8.91969C5.34731 7.981 7.31186 7.46935 9.35282 7.47338H9.35081ZM13.6318 15.7403C13.5795 16.967 13.5574 18.7739 13.5634 21.2556C13.5514 21.9284 13.5654 22.6435 13.6057 23.4411C13.6057 23.5137 13.664 23.9427 13.7364 24.5168C13.855 25.4515 14.0098 26.7769 13.9978 27.6068C13.9917 28.0198 13.9455 28.3139 13.8309 28.3703C12.3248 29.0511 11.255 29.0692 9.60618 29.0652C9.52776 29.0652 9.45135 29.0652 9.37293 29.0652C9.26837 29.0652 9.16582 29.0652 9.06125 29.0652C7.4124 29.0692 6.34266 29.0511 4.83657 28.3703C4.72195 28.3118 4.6757 28.0198 4.66967 27.6068C4.65761 26.7769 4.81244 25.4515 4.93108 24.5168C5.00346 23.9427 5.06379 23.5137 5.06178 23.4411C5.10199 22.6435 5.11607 21.9284 5.104 21.2556C5.11004 18.7739 5.08792 16.967 5.03564 15.7403C5.03564 15.7403 5.03564 15.7403 5.03564 15.7362C4.9733 15.005 4.91097 14.4007 4.83858 13.8367C6.25016 13.4157 7.76831 13.2042 9.3488 13.2082C9.35684 13.2082 9.36689 13.2082 9.37494 13.2082C10.9373 13.2082 12.4374 13.4197 13.8329 13.8367C13.7605 14.4007 13.6982 15.005 13.6358 15.7362C13.6358 15.7362 13.6358 15.7362 13.6358 15.7403H13.6318ZM9.37494 31.2669C8.53644 31.2729 7.88293 31.2709 7.78239 31.2729C6.69052 31.2951 5.37546 31.2729 5.14824 30.9909C5.0839 30.9104 4.83858 29.3271 4.83858 28.5798C5.65898 29.0531 7.52903 29.3009 9.37494 29.2928C11.1947 29.2928 13.0245 29.0471 13.8329 28.5798C13.8329 29.3271 13.5855 30.9124 13.5232 30.9909C13.298 31.2729 11.9829 31.2951 10.8891 31.2729C10.7926 31.2709 10.1752 31.2729 9.37494 31.2669ZM15.3551 24.1643C15.3128 24.1522 15.2706 24.1401 15.2284 24.1321C15.2284 24.1321 15.2143 24.1301 15.1962 24.126C15.164 24.122 15.1138 24.116 15.0816 24.1119C15.0655 24.1119 15.0534 24.1079 15.0534 24.1079C14.8443 23.6627 14.5588 23.1954 14.2029 22.72C14.2029 22.72 14.2029 22.716 14.2029 22.714C14.2029 22.7099 14.2029 22.7079 14.2029 22.7039C14.1586 22.581 14.1466 22.4501 14.1667 22.3292C14.2793 22.4561 14.3798 22.5971 14.4763 22.7341C14.5688 22.8671 14.6653 23.004 14.7739 23.1289L14.78 23.137L14.79 23.141C14.8684 23.1672 14.9549 23.1571 15.0313 23.147L15.0796 23.141V23.1128C15.0896 22.9114 15.1017 22.7079 15.1117 22.5065C15.1902 20.9333 15.2706 19.3057 15.2324 17.7345V17.7043L15.1982 17.7023C15.1841 17.7023 15.1701 17.7002 15.156 17.7002C15.1379 17.7002 15.1198 17.7002 15.0997 17.7063C14.8041 17.7969 14.4743 17.8614 14.1466 17.8936C14.1466 17.8594 14.1466 17.8251 14.1466 17.7909C14.1466 17.7164 14.1466 17.6438 14.1546 17.5733C14.3698 17.5411 14.979 17.3558 15.4777 17.2047C15.6909 17.1403 15.8819 17.0818 16.0106 17.0456C16.0347 19.5232 16.0809 21.9002 16.085 22.9013C16.085 22.9235 16.0689 23.0645 16.085 23.0786C16.0226 23.2256 15.9864 23.3868 15.9523 23.5419C15.91 23.7332 15.8678 23.9326 15.7733 24.1059C15.7612 24.116 15.7472 24.128 15.7351 24.1381C15.721 24.1522 15.7049 24.1643 15.6888 24.1784C15.5782 24.2288 15.4677 24.1965 15.351 24.1623L15.3551 24.1643ZM14.2049 15.698C14.2049 15.698 14.2049 15.696 14.2029 15.6939C14.2833 14.3343 14.6473 12.9887 14.9991 11.6894C15.0675 11.4396 15.1339 11.1899 15.2002 10.9401C15.2203 10.9461 15.2404 10.9542 15.2605 10.9602C15.2545 11.5061 15.2565 12.0681 15.2605 12.612C15.2686 13.9636 15.2746 15.3596 15.1439 16.683C14.8564 16.8321 14.5326 16.9932 14.1787 17.0919C14.1526 16.8925 14.1707 16.6105 14.1888 16.3365C14.2049 16.0948 14.221 15.8652 14.2069 15.698H14.2049ZM14.1807 17.1664C14.5588 17.0657 14.8986 16.8905 15.2002 16.7354L15.2183 16.7273V16.7092C15.3551 15.3757 15.347 13.9717 15.339 12.614C15.337 12.0782 15.3329 11.5263 15.339 10.9884C15.5461 11.0589 15.7512 11.1335 15.9482 11.208C15.9623 12.1306 15.9885 14.5397 16.0106 16.9811C15.8799 17.0174 15.6788 17.0778 15.4576 17.1463C14.9911 17.2873 14.3637 17.4766 14.1526 17.5109C14.1526 17.5028 14.1526 17.4948 14.1506 17.4867C14.1385 17.3739 14.1285 17.2591 14.1807 17.1664ZM14.1446 21.6101C14.1486 21.4953 14.1506 21.3784 14.1446 21.2616C14.1446 21.2616 14.1446 21.2596 14.1446 21.2576V17.9601C14.4804 17.9279 14.8182 17.8614 15.1158 17.7687C15.1298 17.7667 15.1439 17.7667 15.158 17.7667C15.1942 19.3258 15.1138 20.9413 15.0353 22.5025C15.0253 22.6958 15.0152 22.8892 15.0072 23.0806C14.9428 23.0886 14.8785 23.0947 14.8242 23.0806C14.7196 22.9597 14.6271 22.8268 14.5387 22.6978C14.4301 22.5427 14.3175 22.3856 14.1868 22.2446C14.1868 22.2446 14.1868 22.2406 14.1868 22.2386C14.1305 22.0371 14.1365 21.8176 14.1425 21.6081L14.1446 21.6101ZM16.5776 10.7447C17.0099 10.9743 17.4563 11.214 17.4423 11.6934C17.4282 11.6975 17.4161 11.6975 17.4 11.6995C17.396 11.6995 17.392 11.6995 17.388 11.6995L17.2492 11.6411C17.014 11.5404 16.3584 11.2382 16.1232 11.1415C16.1131 11.1375 16.1031 11.1335 16.095 11.1294C16.0649 11.1173 16.0448 11.1113 16.0387 11.1113C16.0387 11.1113 15.2304 10.8555 15.2304 10.791C15.2284 10.791 15.2264 10.791 15.2284 10.791C15.2344 10.7709 15.2424 10.7427 15.2505 10.7104C15.2766 10.6077 15.3108 10.4586 15.349 10.3096C15.3691 10.2351 15.3892 10.1625 15.4093 10.0961C15.4134 10.0961 15.4154 10.0941 15.4194 10.092C15.5199 10.2552 15.7612 10.4063 15.9844 10.4123C15.9905 10.4123 15.9945 10.4123 15.9985 10.4123C16.0106 10.4325 16.0327 10.4445 16.0588 10.4466C16.0588 10.4466 16.0669 10.4466 16.0709 10.4466C16.2177 10.5594 16.3987 10.6561 16.5756 10.7507L16.5776 10.7447ZM4.53897 0.967028C5.98071 0.286177 7.70397 0.219702 9.35081 0.217688C9.35885 0.217688 9.36689 0.217688 9.37494 0.217688C11.0057 0.219702 12.7048 0.292219 14.1325 0.967028C15.5521 1.9883 16.2378 3.05994 16.1734 4.15373C16.1574 4.12956 16.1393 4.1074 16.1252 4.08323C15.9925 3.87172 15.898 3.63604 15.8075 3.40439C15.7451 3.24526 15.6828 3.08008 15.6064 2.92497L15.6024 2.91893L15.5963 2.9149C15.5521 2.88469 15.4978 2.88066 15.4516 2.87864C15.1319 2.25822 14.4985 1.87348 13.8852 1.50284C13.6579 1.36385 13.4428 1.23292 13.2417 1.09192C13.2417 1.09192 13.2417 1.09192 13.2417 1.08789C13.1211 0.807892 12.8315 0.743433 12.5982 0.689045L12.5621 0.680986C11.7075 0.517824 10.8529 0.437252 9.91383 0.437252C9.73688 0.437252 9.55591 0.44128 9.37494 0.447325C9.37494 0.447325 9.35885 0.447325 9.35081 0.447325C9.14973 0.44128 8.95066 0.435238 8.75762 0.435238C7.81858 0.435238 6.96399 0.513796 6.1094 0.678974L6.07321 0.687033C5.83996 0.739405 5.54839 0.805878 5.42975 1.08587C5.42975 1.08587 5.42975 1.08789 5.42975 1.0899C5.22867 1.23292 5.01352 1.36385 4.7863 1.50083C4.17301 1.87147 3.5396 2.25621 3.21989 2.87663C3.17364 2.87864 3.11935 2.88267 3.07511 2.91289L3.06908 2.91692V2.92296C2.98865 3.07807 2.92631 3.24123 2.86398 3.40238C2.77349 3.63403 2.68099 3.87172 2.54627 4.08121C2.53018 4.10538 2.5141 4.12754 2.49801 4.15172C2.43568 3.05792 3.11935 1.98629 4.53897 0.965012V0.967028ZM15.16 3.36813C15.1399 3.34799 14.6935 2.92497 14.1566 2.48585C14.0018 2.36096 13.8409 2.23405 13.678 2.11521C13.4388 1.93996 13.2015 1.78284 12.9904 1.67406C12.93 1.64183 12.8697 1.61363 12.8134 1.59147C12.8134 1.59147 12.8134 1.58946 12.8114 1.58744C12.7973 1.47666 12.7571 1.37191 12.7169 1.27119C12.6807 1.18256 12.6445 1.09192 12.6284 0.999254C12.6324 0.989183 12.6344 0.981125 12.6405 0.971054C12.747 0.942852 12.8436 0.991198 12.9461 1.04156C13.0225 1.07983 13.103 1.11609 13.1894 1.12415C13.1955 1.12818 13.2015 1.13019 13.2095 1.13019C13.4126 1.27321 13.6398 1.4122 13.857 1.54313C14.4683 1.91176 15.0977 2.29448 15.4073 2.90685C15.3973 2.95519 15.3892 3.00353 15.3832 3.05188C15.3671 3.1667 15.349 3.28353 15.2907 3.38223C15.2786 3.39432 15.2666 3.40641 15.2545 3.41849C15.2203 3.42252 15.1962 3.40036 15.162 3.36612L15.16 3.36813ZM9.35081 1.25709C9.33874 1.25709 9.32869 1.25709 9.31662 1.25709C8.17047 1.25709 7.02834 1.36184 5.9224 1.56932C5.93849 1.47464 5.97267 1.38601 6.01087 1.29134C6.04908 1.19868 6.08728 1.10199 6.10337 1.00127V0.995228V0.989185C6.09734 0.97307 6.09131 0.956953 6.08125 0.93681L6.07522 0.926737L6.06517 0.92271C6.03299 0.91264 6.00082 0.908609 5.97066 0.908609C5.87414 0.908609 5.78767 0.950911 5.70121 0.993212C5.64089 1.02343 5.58458 1.05163 5.52426 1.06371C5.6429 0.858252 5.88017 0.801847 6.09131 0.753504L6.12549 0.745447C7.12486 0.554085 8.12824 0.481569 9.26434 0.513798C9.26837 0.513798 9.27239 0.517824 9.27842 0.517824C9.30255 0.517824 9.32668 0.517824 9.35081 0.517824C9.35885 0.517824 9.36689 0.517824 9.37494 0.517824C9.37494 0.517824 9.387 0.517824 9.39304 0.517824C9.39907 0.517824 9.40108 0.515812 9.40711 0.513798C10.5432 0.481569 11.5486 0.556099 12.546 0.745447L12.5802 0.753504C12.7933 0.801847 13.0286 0.856237 13.1472 1.06371C13.0889 1.04961 13.0306 1.02141 12.9702 0.993212C12.8858 0.950911 12.7973 0.908609 12.7008 0.908609C12.6706 0.908609 12.6385 0.91264 12.6063 0.92271L12.5942 0.926737L12.5882 0.93681C12.5761 0.956953 12.5701 0.97307 12.5661 0.989185V0.995228V1.00127C12.5822 1.10199 12.6204 1.19868 12.6586 1.29134C12.6968 1.384 12.731 1.47464 12.747 1.56932C11.6471 1.36385 10.513 1.25911 9.37293 1.25709C9.37293 1.25709 9.35684 1.25709 9.3488 1.25709H9.35081ZM5.85805 1.59147C5.80175 1.61363 5.74143 1.64183 5.6811 1.67406C5.46796 1.78485 5.23068 1.94197 4.99341 2.11521C4.83255 2.23405 4.66967 2.36096 4.51484 2.48585C3.97796 2.92296 3.53357 3.34799 3.51145 3.36813C3.47727 3.40238 3.45314 3.42252 3.41896 3.42051C3.40689 3.40842 3.39684 3.39634 3.38477 3.38425C3.32646 3.28555 3.30836 3.1667 3.29228 3.0539C3.28624 3.00555 3.2782 2.95721 3.26815 2.90886C3.57781 2.2965 4.2092 1.91377 4.81847 1.54515C5.03765 1.4122 5.26286 1.27522 5.46595 1.1322C5.47399 1.1322 5.48002 1.13019 5.48606 1.12616C5.57252 1.1181 5.65295 1.08184 5.72936 1.04357C5.83191 0.993212 5.92843 0.946884 6.035 0.97307C6.03903 0.983141 6.04305 0.991199 6.04707 1.00127C6.03098 1.09393 5.99479 1.18659 5.95859 1.27321C5.91838 1.37392 5.87615 1.47867 5.86207 1.58946C5.86207 1.58946 5.86006 1.59148 5.86006 1.59349L5.85805 1.59147ZM2.48394 5.82967C2.50203 5.31198 2.52214 4.77616 2.50404 4.26049C2.50404 4.25646 2.50404 4.25243 2.50404 4.2484C2.52214 4.22625 2.53622 4.20207 2.5523 4.17992C2.71317 3.94827 2.81974 3.68439 2.92028 3.42454C2.9806 3.26943 3.04294 3.10828 3.11734 2.9572C3.14549 2.94109 3.17967 2.93908 3.21184 2.93706C3.21989 2.97936 3.22793 3.02166 3.23396 3.06396C3.25206 3.18281 3.27016 3.3077 3.3345 3.41648L3.34054 3.42252C3.35461 3.4346 3.36668 3.44669 3.38075 3.46281L3.38678 3.46885H3.39684C3.4451 3.4796 3.53692 3.44266 3.67232 3.35806C3.67232 3.35806 3.67835 3.35806 3.68237 3.35806C3.68438 3.35806 3.68639 3.35806 3.69041 3.35806C3.69444 3.35806 3.45716 3.59777 3.7065 3.34799C4.38012 2.66915 5.04167 1.98427 5.8862 1.63982C5.89023 1.63982 5.89224 1.64183 5.89626 1.63982C7.02231 1.4263 8.18455 1.31954 9.35282 1.32155C9.36086 1.32155 9.36891 1.32155 9.37695 1.32155C10.5271 1.32155 11.6713 1.42831 12.7792 1.6378C12.7832 1.6378 12.7853 1.6378 12.7893 1.6378C13.6338 1.98226 14.2954 2.66915 14.969 3.34598C15.2183 3.59575 14.981 3.35403 14.9851 3.35605C14.9871 3.35605 14.9891 3.35605 14.9931 3.35605C14.9971 3.35605 14.9991 3.35605 15.0032 3.35605C15.1386 3.44199 15.2304 3.4796 15.2786 3.46885H15.2887L15.2947 3.46079C15.3088 3.44468 15.3209 3.43259 15.3349 3.42051L15.341 3.41446C15.4073 3.30569 15.4234 3.18281 15.4415 3.06195C15.4475 3.01965 15.4556 2.97735 15.4636 2.93505C15.4978 2.93505 15.532 2.94109 15.5581 2.95519C15.6325 3.10627 15.6949 3.26741 15.7552 3.42252C15.8557 3.68237 15.9623 3.94625 16.1232 4.1779C16.1393 4.20006 16.1553 4.22423 16.1714 4.24639C16.1714 4.25042 16.1714 4.25445 16.1714 4.25848C16.1553 4.77415 16.1734 5.30997 16.1915 5.82765C16.2297 6.91339 16.268 8.03539 15.9824 9.07076C15.9643 9.08083 15.9502 9.09695 15.9482 9.11911C15.9402 9.12112 15.9322 9.12313 15.9261 9.12716C15.8316 9.16141 15.7391 9.20774 15.6486 9.25205C15.4596 9.34471 15.2646 9.43939 15.0394 9.43737C15.0333 9.38701 15.0313 9.33665 15.0313 9.28227C15.0293 9.14529 15.0273 9.00227 14.9388 8.88544C14.9388 8.88544 14.9348 8.88343 14.9328 8.88141C14.9227 8.72832 14.8503 8.5994 14.78 8.4725C14.7397 8.40401 14.6995 8.3315 14.6714 8.25696C14.6714 8.25092 14.6714 8.24286 14.6653 8.23682C14.3316 7.85812 13.7947 7.64259 13.3161 7.46935C12.916 7.32633 12.4977 7.20749 12.0694 7.11684C11.2249 6.93756 10.32 6.84692 9.37896 6.84692C9.37896 6.84692 9.36287 6.84692 9.35483 6.84692C9.33874 6.84692 9.32266 6.84692 9.30657 6.84692C8.36351 6.84692 7.45664 6.93756 6.61009 7.11684C6.18179 7.20749 5.76355 7.32633 5.3634 7.46935C4.88483 7.64259 4.34794 7.85812 4.01415 8.23682C4.00812 8.24286 4.00812 8.24891 4.00812 8.25696C3.97997 8.3315 3.93975 8.40401 3.89954 8.4725C3.82916 8.59739 3.75677 8.72832 3.74672 8.88141C3.74471 8.88141 3.7427 8.88343 3.74068 8.88544C3.65221 9.00429 3.6502 9.14529 3.64819 9.28227C3.64819 9.33665 3.64618 9.38701 3.64014 9.43737C3.41494 9.43939 3.21989 9.34471 3.03087 9.25205C2.94039 9.20774 2.8499 9.16342 2.75338 9.12716C2.74534 9.12515 2.7373 9.12112 2.72925 9.11911C2.72724 9.09896 2.71317 9.08285 2.69507 9.07076C2.40954 8.03337 2.44774 6.91339 2.48595 5.82765L2.48394 5.82967ZM2.09384 10.7447C2.27079 10.65 2.45176 10.5533 2.59855 10.4405C2.60257 10.4405 2.60659 10.4405 2.61062 10.4405C2.63676 10.4405 2.65887 10.4264 2.67094 10.4063C2.67697 10.4063 2.68099 10.4063 2.68703 10.4063C2.91224 10.4002 3.15353 10.2492 3.25206 10.086C3.25608 10.086 3.25809 10.088 3.26211 10.09C3.28222 10.1565 3.30233 10.229 3.32244 10.3035C3.36064 10.4526 3.39483 10.6037 3.42097 10.7044C3.42901 10.7366 3.43705 10.7648 3.44309 10.785C3.44309 10.787 3.44309 10.785 3.44107 10.785C3.44107 10.8494 2.63273 11.1053 2.63273 11.1053C2.6267 11.1053 2.60659 11.1113 2.57643 11.1234C2.56839 11.1274 2.55834 11.1314 2.54828 11.1355C2.31302 11.2322 1.65951 11.5343 1.42223 11.635L1.28349 11.6934C1.28349 11.6934 1.27545 11.6934 1.27142 11.6934C1.25534 11.6934 1.24327 11.6894 1.2292 11.6874C1.21311 11.206 1.66152 10.9683 2.09384 10.7386V10.7447Z" fill="#1A1F29"/>
<path d="M3.58018 2.91301L3.60029 2.89488C3.54801 2.96136 3.54801 3.03387 3.6204 3.07617C3.8436 2.93315 4.02859 2.69143 4.23168 2.5182C4.53129 2.26238 4.96562 2.01461 5.17676 1.69634C4.89726 1.69433 4.51923 2.01058 4.31211 2.16367C4.04267 2.36309 3.74306 2.631 3.5822 2.91301H3.58018Z" fill="white"/>
<path d="M9.37543 13.6537C7.52147 13.6698 5.97517 13.9719 5.49861 14.3809C6.54222 14.1694 7.89146 14.0384 9.37543 14.0243C10.8272 14.0445 12.1483 14.1734 13.1738 14.3809C12.7053 13.978 11.1952 13.6799 9.37543 13.6557V13.6537Z" fill="#FF4D4F"/>
<path d="M9.37475 12.741C11.848 12.7108 13.8327 13.5427 13.9895 11.8063C14.2228 11.2 14.4761 9.96521 14.627 9.34077C14.2469 10.08 13.8086 11.905 12.6001 12.0843C11.4318 12.2575 10.535 12.2757 9.37475 12.2535C8.1743 12.2777 7.26542 12.2616 6.07101 12.0843C4.86051 11.905 4.42416 10.078 4.04412 9.34077C4.19493 9.96521 4.44829 11.198 4.68155 11.8063C4.8404 13.5608 6.86527 12.6906 9.37475 12.741Z" fill="#93A3C0"/>
</svg>
