<svg width="18" height="32" viewBox="0 0 18 32" fill="none" xmlns="http://www.w3.org/2000/svg">
<path d="M8.70928 13.2078C8.70928 13.2078 8.69119 13.2078 8.68314 13.2078C7.10266 13.2038 5.5845 13.4153 4.17292 13.8363C4.24531 14.4003 4.30765 15.0046 4.36998 15.7359C4.36998 15.7359 4.36998 15.7359 4.36998 15.7399C4.42226 16.9666 4.44438 18.7735 4.43835 21.2552C4.45041 21.928 4.43634 22.6431 4.39612 23.4407C4.39612 23.5133 4.33781 23.9423 4.26542 24.5164C4.24732 24.9334 4.22923 25.3463 4.21113 25.4732C4.24129 26.9296 5.90422 27.7998 8.657 27.7998H8.70526C11.4399 27.7938 13.0908 26.9256 13.121 25.4732C13.1049 25.3463 13.0848 24.9334 13.0667 24.5164C12.9943 23.9423 12.934 23.5133 12.936 23.4407C12.8958 22.6431 12.8817 21.928 12.8938 21.2552C12.8877 18.7735 12.9098 16.9666 12.9621 15.7399C12.9621 15.7399 12.9621 15.7399 12.9621 15.7359C13.0245 15.0046 13.0868 14.4003 13.1592 13.8363C11.7637 13.4194 10.2636 13.2078 8.70124 13.2078H8.70928ZM8.70928 14.0237C7.22733 14.0357 5.87607 14.1667 4.83247 14.3782C5.30903 13.9693 6.85533 13.6691 8.70928 13.651C10.5291 13.6772 12.0372 13.9753 12.5077 14.3782C11.4842 14.1707 10.1611 14.0418 8.70928 14.0237Z" fill="#FADB14"/>
<path d="M8.70921 27.9431H8.67905H8.65894C6.15147 27.9431 4.52072 27.224 4.15073 25.9932C4.09443 26.4847 4.03611 27.0648 4.00394 27.6067C4.00997 28.0196 4.05622 28.3137 4.17084 28.3701C5.67693 29.051 6.74667 29.0691 8.39552 29.0651C8.50008 29.0651 8.60263 29.0651 8.7072 29.0651C8.78562 29.0651 8.86203 29.0651 8.94045 29.0651C10.5893 29.0691 11.659 29.051 13.1651 28.3701C13.2798 28.3117 13.326 28.0196 13.332 27.6067C13.2999 27.0648 13.2436 26.4847 13.1852 25.9932C12.8153 27.2199 11.1966 27.937 8.7072 27.9411L8.70921 27.9431Z" fill="#364258"/>
<path d="M8.70946 27.8003H8.6793H8.65919C5.90641 27.8003 4.24549 26.9301 4.21332 25.4738C4.2294 25.3469 4.24951 24.9339 4.26761 24.5169C4.14897 25.4516 3.99414 26.7771 4.00621 27.607C4.03838 27.0651 4.09468 26.485 4.15299 25.9935C4.52298 27.2242 6.15374 27.9434 8.6612 27.9434H8.70946C11.2008 27.9373 12.8195 27.2202 13.1875 25.9935C13.2438 26.485 13.3021 27.0651 13.3343 27.607C13.3464 26.7771 13.1915 25.4516 13.0729 24.5169C13.091 24.9339 13.1091 25.3469 13.1272 25.4738C13.097 26.9261 11.4462 27.7923 8.71147 27.8003H8.70946Z" fill="#1A1F29"/>
<path d="M13.4847 17.4866C13.4847 17.4866 13.4847 17.5027 13.4867 17.5107C13.6979 17.4765 14.3253 17.2871 14.7918 17.1461C15.015 17.0797 15.214 17.0172 15.3447 16.981C15.3206 14.5396 15.2965 12.1284 15.2824 11.2078C15.0853 11.1333 14.8802 11.0588 14.6731 10.9883C14.6671 11.5261 14.6691 12.078 14.6731 12.6139C14.6812 13.9715 14.6872 15.3775 14.5545 16.709V16.7272L14.5344 16.7352C14.2348 16.8903 13.8949 17.0636 13.5149 17.1663C13.4626 17.2589 13.4727 17.3738 13.4847 17.4866Z" fill="#FADB14"/>
<path d="M13.5228 22.2405C13.5228 22.2405 13.5228 22.2445 13.5228 22.2465C13.6555 22.3875 13.7681 22.5447 13.8747 22.6998C13.9631 22.8287 14.0556 22.9596 14.1602 23.0825C14.2145 23.0986 14.2809 23.0906 14.3432 23.0825C14.3532 22.8891 14.3613 22.6978 14.3713 22.5044C14.4498 20.9433 14.5302 19.3277 14.494 17.7686C14.4799 17.7686 14.4679 17.7686 14.4518 17.7706C14.1542 17.8633 13.8164 17.9278 13.4806 17.962V21.2595C13.4806 21.2595 13.4806 21.2615 13.4806 21.2635C13.4866 21.3784 13.4846 21.4972 13.4806 21.612C13.4745 21.8235 13.4685 22.0411 13.5248 22.2425L13.5228 22.2405Z" fill="#364258"/>
<path d="M15.1092 24.1055C15.2037 23.9322 15.246 23.7328 15.2882 23.5414C15.3224 23.3863 15.3586 23.2252 15.4209 23.0781C15.4048 23.064 15.4209 22.923 15.4209 22.9009C15.4169 21.8997 15.3706 19.5228 15.3465 17.0452C15.2178 17.0814 15.0268 17.1398 14.8136 17.2043C14.315 17.3554 13.7037 17.5387 13.4905 17.5729C13.4805 17.6434 13.4805 17.7139 13.4825 17.7905C13.4825 17.8247 13.4825 17.859 13.4825 17.8932C13.8102 17.861 14.14 17.7965 14.4356 17.7059C14.4577 17.7018 14.4758 17.6998 14.4919 17.6998C14.506 17.6998 14.5201 17.6998 14.5341 17.7018H14.5663V17.7341C14.6045 19.3053 14.5241 20.9329 14.4457 22.5061C14.4356 22.7095 14.4256 22.911 14.4155 23.1124V23.1406L14.3652 23.1466C14.2888 23.1567 14.2024 23.1668 14.1239 23.1406L14.1139 23.1366L14.1078 23.1285C13.9993 23.0016 13.9027 22.8646 13.8102 22.7337C13.7137 22.5967 13.6132 22.4557 13.5006 22.3288C13.4805 22.4497 13.4905 22.5826 13.5368 22.7035C13.5368 22.7075 13.5368 22.7095 13.5368 22.7135C13.5368 22.7135 13.5368 22.7176 13.5368 22.7196C13.8927 23.197 14.1782 23.6623 14.3873 24.1075C14.3873 24.1075 14.3994 24.1075 14.4155 24.1115H14.4658C14.4658 24.1115 14.4718 24.1014 14.4758 24.0974C14.4758 24.0974 14.4979 24.1095 14.5301 24.1256C14.5482 24.1276 14.5623 24.1296 14.5623 24.1316C14.6045 24.1397 14.6467 24.1518 14.689 24.1639C14.8056 24.1981 14.9162 24.2304 15.0268 24.18C15.0429 24.1679 15.0569 24.1538 15.073 24.1397C15.0851 24.1296 15.0972 24.1175 15.1112 24.1075L15.1092 24.1055Z" fill="#FADB14"/>
<path d="M13.513 17.0918C13.8689 16.9931 14.1926 16.8299 14.4782 16.6829C14.6109 15.3595 14.6028 13.9635 14.5948 12.6119C14.5928 12.068 14.5888 11.506 14.5948 10.9601C14.5747 10.9541 14.5546 10.946 14.5345 10.94C14.4681 11.1897 14.4018 11.4395 14.3334 11.6893C13.9815 12.9906 13.6175 14.3341 13.5371 15.6938C13.5371 15.6938 13.5391 15.6959 13.5391 15.6979C13.5532 15.8671 13.5391 16.0947 13.521 16.3364C13.5029 16.6104 13.4848 16.8924 13.511 17.0918H13.513Z" fill="#364258"/>
<path d="M15.4816 23.1572C15.4695 23.1693 15.4555 23.1914 15.4394 23.2297C15.4052 23.3365 15.3811 23.4473 15.3569 23.554C15.3147 23.7514 15.2705 23.9569 15.1699 24.1402L15.1619 24.1503C15.1478 24.1624 15.1337 24.1744 15.1217 24.1865C15.1056 24.2006 15.0875 24.2167 15.0714 24.2308L15.0654 24.2349C14.9266 24.3013 14.7959 24.2631 14.6692 24.2248C14.627 24.2127 14.5868 24.2026 14.5486 24.1946C14.5365 24.2006 14.5044 24.1825 14.4822 24.1704C14.4722 24.1664 14.4662 24.1644 14.4641 24.1603H14.4078C13.8307 23.6608 14.2993 27.8063 14.2972 27.8043C14.2932 27.8023 13.7342 24.9238 13.5372 23.4191C13.507 23.2277 13.4849 23.0343 13.4748 22.843C13.4728 22.8027 13.4708 22.7644 13.4688 22.7302C13.4125 22.5791 13.4045 22.4099 13.4406 22.2648C13.4406 22.2648 13.4406 22.2648 13.4386 22.2628C13.3803 22.0493 13.3864 21.8257 13.3924 21.6102C13.3964 21.4974 13.3984 21.3785 13.3924 21.2657C13.3924 21.2657 13.3904 21.2617 13.3904 21.2597V17.934C13.3924 17.8877 13.3904 17.8413 13.3904 17.795C13.3904 17.7124 13.3864 17.6258 13.4024 17.5432C13.4024 17.5291 13.4004 17.515 13.3984 17.4989C13.3864 17.38 13.3743 17.2471 13.4406 17.1323C13.4085 16.9248 13.4286 16.6287 13.4487 16.3386C13.4648 16.0989 13.4789 15.8733 13.4668 15.7101C13.4668 15.7081 13.4688 15.7041 13.4688 15.7021C13.5492 14.3343 13.9132 12.9847 14.2671 11.6794C14.3375 11.4216 14.4058 11.1658 14.4742 10.9099C14.4702 10.8999 14.4682 10.8898 14.4742 10.8817C14.4782 10.8737 14.4843 10.8697 14.4923 10.8636C14.5446 10.5977 14.6129 10.3238 14.6914 10.074L14.6954 10.0619L14.7075 10.0559C14.7235 10.0478 14.7477 10.0357 14.7738 10.0337H14.7959L14.806 10.0498C14.8864 10.2009 15.1197 10.352 15.3268 10.358C15.3308 10.1445 15.3187 9.92895 15.3067 9.72148C15.2966 9.55025 15.2866 9.37299 15.2846 9.19573C15.1961 9.22796 15.1096 9.26825 15.0211 9.31256C14.8221 9.41126 14.615 9.50997 14.3696 9.50393C14.2128 10.0659 14.0781 10.6541 13.9474 11.2262C13.7503 12.0924 13.5452 12.9888 13.2577 13.8146C13.2577 13.8187 13.2617 13.8207 13.2617 13.8247C13.1873 14.3948 13.125 15.0051 13.0626 15.7444V15.7464C13.0103 16.9711 12.9862 18.774 12.9943 21.2516C12.9943 21.2556 12.9983 21.2577 12.9983 21.2617C12.9862 21.9405 13.0003 22.6617 13.0425 23.4694C13.0425 23.4755 13.0385 23.4815 13.0345 23.4876C13.0807 23.8542 13.135 24.2308 13.1893 24.5934C13.314 25.4475 13.4447 26.3278 13.4768 27.194C13.4768 27.194 13.4768 27.194 13.4768 27.196C13.4768 27.198 13.4809 27.2 13.4809 27.202C13.4869 27.9634 13.3622 28.8699 13.2416 29.7441C13.2034 30.0241 13.1672 30.292 13.135 30.5479L13.1692 30.5418C13.8307 30.435 14.2952 30.2376 14.4802 29.9879C14.7738 29.587 14.8643 29.452 14.989 29.2647C15.0231 29.2144 15.0593 29.1579 15.1036 29.0935C15.1277 28.9525 15.1498 28.8135 15.1699 28.6745C15.2182 28.3583 15.2685 28.0299 15.3409 27.7157C15.3409 27.7076 15.3489 27.7036 15.3529 27.6975C15.361 27.6552 15.367 27.6109 15.373 27.5666C15.4112 27.3047 15.4494 26.9422 15.4816 26.5373C15.556 25.4173 15.5339 24.0999 15.4897 23.1592L15.4816 23.1572Z" fill="#FADB14"/>
<path d="M13.4266 31.4158L13.4326 31.4078L13.3823 31.4219L13.4065 31.4178L13.4266 31.4158Z" fill="#FADB14"/>
<path d="M12.8573 30.9889C12.9217 30.9084 13.167 29.3251 13.167 28.5778C12.3587 29.0451 10.5288 29.2908 8.70905 29.2908C6.86314 29.3009 4.9931 29.0531 4.17269 28.5778C4.17269 29.3251 4.42002 30.9104 4.48236 30.9889C4.70757 31.2709 6.02263 31.2931 7.1165 31.2709C7.21704 31.2689 7.87256 31.2709 8.70905 31.2649C9.50734 31.2709 10.1267 31.2689 10.2232 31.2709C11.315 31.2931 12.6301 31.2709 12.8573 30.9889Z" fill="#FADB14"/>
<path d="M12.0832 1.56738C12.0672 1.47271 12.033 1.38408 11.9948 1.2894C11.9566 1.19674 11.9184 1.10005 11.9023 0.999334V0.993291V0.987249C11.9083 0.971134 11.9143 0.95502 11.9244 0.934877L11.9304 0.924804L11.9425 0.920775C11.9747 0.910703 12.0068 0.906676 12.037 0.906676C12.1335 0.906676 12.22 0.948977 12.3064 0.991278C12.3668 1.02149 12.4231 1.04969 12.4834 1.06178C12.3648 0.856315 12.1275 0.799914 11.9164 0.75157L11.8822 0.743514C10.8828 0.55215 9.87942 0.479632 8.74331 0.511862C8.73929 0.511862 8.73527 0.515891 8.72924 0.515891C8.72321 0.515891 8.71717 0.515891 8.71114 0.515891C8.71114 0.515891 8.69506 0.515891 8.68701 0.515891C8.66288 0.515891 8.63875 0.515891 8.61462 0.515891C8.60859 0.515891 8.60658 0.513876 8.60055 0.511862C7.46244 0.479632 6.45905 0.554165 5.46169 0.743514L5.42751 0.75157C5.21436 0.799914 4.9791 0.8543 4.86046 1.06178C4.91878 1.04768 4.97709 1.01948 5.03741 0.991278C5.12187 0.948977 5.21034 0.906676 5.30686 0.906676C5.33702 0.906676 5.3692 0.910703 5.40137 0.920775L5.41142 0.924804L5.41746 0.934877C5.42952 0.95502 5.43555 0.971134 5.43957 0.987249V0.993291V0.999334C5.42349 1.10005 5.38528 1.19674 5.34708 1.2894C5.30887 1.38206 5.27469 1.47271 5.2586 1.56738C6.36454 1.36192 7.50667 1.25516 8.65283 1.25516C8.66489 1.25516 8.67495 1.25516 8.68701 1.25516C8.69506 1.25516 8.7031 1.25516 8.71114 1.25516C9.85126 1.25516 10.9854 1.36192 12.0853 1.56738H12.0832Z" fill="#D4B106"/>
<path d="M16.6071 11.5972L16.7197 11.6455C16.7036 11.2265 16.3055 11.015 15.8832 10.7894C15.7063 10.6947 15.5213 10.596 15.3705 10.4812L15.3162 10.4389V10.4087C15.093 10.4027 14.8517 10.2516 14.7512 10.0884C14.7471 10.0884 14.7451 10.0904 14.7411 10.0924C14.719 10.1609 14.7009 10.2355 14.6808 10.306C14.6426 10.455 14.6084 10.6061 14.5822 10.7068C14.5762 10.735 14.5702 10.7612 14.5642 10.7894C14.5642 10.8539 15.3725 11.1097 15.3725 11.1097C15.3946 11.1097 15.4127 11.1177 15.4288 11.1278C15.4368 11.1318 15.4489 11.1359 15.4569 11.1399L15.5213 11.148C15.9536 11.3172 16.3457 11.4844 16.6051 11.5951L16.6071 11.5972Z" fill="#FADB14"/>
<path d="M13.0146 2.11569C13.1755 2.23453 13.3383 2.36144 13.4932 2.48633C13.455 2.45208 13.4168 2.41985 13.3785 2.38561C13.2599 2.29094 13.1393 2.20029 13.0146 2.11569Z" fill="#FADB14"/>
<path d="M13.4381 1.00703C11.9984 0.330211 10.2591 0.269778 8.73891 0.26575H8.70875H8.67859H8.60016C7.08201 0.269778 5.34066 0.330211 3.90093 1.00703C2.52756 1.99608 1.84992 3.02944 1.88008 4.08294C2.01279 3.87144 2.1073 3.63576 2.19779 3.40411C2.26012 3.24498 2.32246 3.0798 2.39887 2.92469V2.91865L2.40892 2.91462C2.45316 2.88441 2.50745 2.88038 2.5537 2.87836C2.87341 2.25794 3.50681 1.8732 4.12011 1.50256C4.34733 1.36357 4.56248 1.23264 4.76356 1.09163C4.76356 1.09163 4.76356 1.09163 4.76356 1.08761C4.88421 0.807611 5.17377 0.743152 5.40702 0.688765L5.44321 0.680706C6.2978 0.517543 7.15239 0.436971 8.09143 0.436971C8.28447 0.436971 8.48354 0.440999 8.68462 0.449056C8.69266 0.449056 8.70071 0.449056 8.70875 0.449056C8.89173 0.443013 9.0727 0.438984 9.24764 0.438984C10.1867 0.438984 11.0413 0.517545 11.8959 0.682722L11.9321 0.690778C12.1653 0.743151 12.4569 0.809627 12.5755 1.08962C12.5755 1.08962 12.5755 1.09163 12.5755 1.09365C12.7766 1.23667 12.9917 1.3676 13.219 1.50458C13.8323 1.87522 14.4657 2.25996 14.7854 2.88038C14.8316 2.88239 14.8859 2.88642 14.9302 2.91664L14.9362 2.92067L14.9402 2.92671C15.0166 3.08181 15.081 3.24498 15.1413 3.40613C15.2318 3.63778 15.3243 3.87547 15.459 4.08496C15.4892 3.03146 14.8115 1.99809 13.4381 1.00905V1.00703Z" fill="#876800"/>
<path d="M14.7151 3.05207C14.7212 3.00373 14.7292 2.95538 14.7393 2.90704C14.4296 2.29468 13.7982 1.91195 13.1889 1.54333C12.9698 1.41038 12.7445 1.2734 12.5415 1.13038C12.5334 1.13038 12.5274 1.12837 12.5213 1.12434C12.4349 1.11628 12.3545 1.08002 12.278 1.04175C12.1755 0.991393 12.079 0.945062 11.9724 0.971248C11.9664 0.98132 11.9644 0.989377 11.9603 0.999449C11.9764 1.09211 12.0126 1.18477 12.0488 1.27139C12.089 1.37211 12.1313 1.47685 12.1433 1.58764C12.1433 1.58764 12.1453 1.58965 12.1453 1.59167C12.2016 1.61383 12.262 1.64203 12.3223 1.67426C12.7043 1.85756 13.0462 2.1013 13.3739 2.38734C13.4121 2.41957 13.4503 2.45381 13.4885 2.48805C14.0254 2.92517 14.4698 3.3502 14.4919 3.37034C14.5261 3.40459 14.5523 3.42473 14.5844 3.42271C14.5965 3.41063 14.6065 3.39854 14.6206 3.38646C14.6789 3.28775 14.697 3.16891 14.7131 3.0561L14.7151 3.05207ZM14.3854 3.07624C14.1622 2.93323 13.9772 2.69151 13.7741 2.51827C13.4745 2.26245 13.0421 2.01468 12.829 1.69642C13.1085 1.6944 13.4865 2.01065 13.6936 2.16374C13.9631 2.36316 14.2627 2.63107 14.4236 2.91308L14.4035 2.89495C14.4557 2.96143 14.4557 3.03394 14.3833 3.07624H14.3854Z" fill="#D7DEEB"/>
<path d="M15.3953 10.4423C15.3692 10.4423 15.3471 10.4282 15.335 10.408C15.331 10.408 15.325 10.408 15.3209 10.408V10.4382L15.3752 10.4805C15.526 10.5954 15.709 10.6941 15.888 10.7887C16.3102 11.0123 16.7084 11.2258 16.7245 11.6448L16.6119 11.5965C16.3525 11.4857 15.9604 11.3185 15.528 11.1493L15.4637 11.1412C15.699 11.2379 16.3525 11.5401 16.5897 11.6408L16.7285 11.6992C16.7285 11.6992 16.7365 11.6992 16.7406 11.6992C16.7566 11.6992 16.7687 11.6952 16.7828 11.6932C16.7989 11.2117 16.3505 10.9741 15.9181 10.7444C15.7412 10.6497 15.5602 10.5531 15.4134 10.4402C15.4094 10.4402 15.4054 10.4402 15.4014 10.4402L15.3953 10.4423Z" fill="#1A1F29"/>
<path d="M15.4287 11.1318C15.4146 11.1197 15.3945 11.1137 15.3724 11.1137C15.3784 11.1137 15.3985 11.1197 15.4287 11.1318Z" fill="#1A1F29"/>
<path d="M15.4492 4.25814V4.27023C15.4331 4.78389 15.4512 5.31769 15.4713 5.83337C15.5095 6.91306 15.5497 8.03102 15.2662 9.06237L15.2501 9.12079L15.2581 9.13086C15.2581 9.13086 15.2742 9.12482 15.2802 9.1228C15.2823 9.10266 15.2963 9.08654 15.3144 9.07446C15.6 8.03707 15.5618 6.91709 15.5236 5.83135C15.5055 5.31366 15.4854 4.77785 15.5034 4.26217C15.5034 4.25815 15.5034 4.25411 15.5034 4.25009C15.4854 4.22793 15.4713 4.20376 15.4552 4.1816C15.4552 4.20577 15.4552 4.22994 15.4512 4.25412V4.26217L15.4492 4.25814Z" fill="#1A1F29"/>
<path d="M15.3184 10.3516C15.3184 10.3516 15.3204 10.3516 15.3225 10.3516C15.3265 10.138 15.3144 9.92251 15.3003 9.71503C15.2903 9.54381 15.2802 9.36654 15.2782 9.18928C15.2782 9.18928 15.2762 9.18928 15.2742 9.18928C15.2742 9.36654 15.2863 9.54179 15.2963 9.71503C15.3084 9.92452 15.3204 10.1401 15.3164 10.3516H15.3184Z" fill="#1A1F29"/>
<path d="M14.1119 7.65302C14.0898 7.73964 14.1501 7.82625 14.2466 7.8464C14.3431 7.86654 14.4376 7.81215 14.4598 7.72352C14.6528 6.95605 14.5945 6.13823 14.5322 5.27407C14.498 4.8148 14.1079 3.32418 14.1079 3.83985C14.1079 4.35553 14.1421 4.83091 14.1762 5.29623L14.1139 7.65302H14.1119Z" fill="#FFEC3D"/>
<path d="M13.2456 30.6702C13.2296 30.7689 13.2296 30.9885 13.1552 31.2061C13.4829 31.2061 13.7805 31.0751 14.0379 30.8878C14.0821 30.7287 14.1183 30.5695 14.1465 30.4084C13.869 30.5393 13.5372 30.6199 13.2477 30.6702H13.2456Z" fill="#F5222D"/>
<path d="M14.1458 30.4093C14.1177 30.5704 14.0815 30.7295 14.0372 30.8887C14.4474 30.5905 14.7531 30.1494 14.9059 29.8755C14.9501 29.7949 14.9159 29.8573 14.9501 29.7828C14.9763 29.6821 15.0004 29.5793 15.0205 29.4746C14.928 29.6116 14.8214 29.7626 14.6023 30.0628C14.4977 30.2058 14.3348 30.3186 14.1438 30.4072L14.1458 30.4093Z" fill="#FAAD14"/>
<path d="M15.3809 29.0432C15.3748 29.0835 15.3668 29.1238 15.3608 29.1641C15.3708 29.1218 15.3768 29.0835 15.3809 29.0432Z" fill="#1A1F29"/>
<path d="M14.4716 29.9843C14.2866 30.2361 13.8221 30.4335 13.1606 30.5382L13.1264 30.5443C13.1103 30.6752 13.0942 30.8041 13.0821 30.929C13.0922 30.9411 13.0962 30.9552 13.0862 30.9693L13.0721 30.9874C13.0178 31.1526 13.1324 31.3379 12.9997 31.344C13.3335 31.3802 13.6412 31.2916 13.9086 31.1486C13.7316 31.2714 13.5507 31.3681 13.3818 31.4225L13.432 31.4104L13.428 31.4165H13.4059L13.3818 31.4225C13.3536 31.4286 13.3275 31.4346 13.3013 31.4406L13.2913 31.4286L12.9032 31.5434C12.0124 31.63 11.1578 31.6783 10.3052 31.7025C9.78444 31.7186 9.26364 31.7247 8.73681 31.7267H8.60209C8.07526 31.7247 7.55446 31.7186 7.03367 31.7025C6.1831 31.6783 5.3265 31.63 4.43572 31.5434L4.04763 31.4286L4.03557 31.4406C4.01144 31.4346 3.98329 31.4286 3.95715 31.4225L3.93302 31.4185H3.9109L3.90688 31.4104L3.95715 31.4225C3.78824 31.3701 3.60727 31.2735 3.43032 31.1486C3.69775 31.2916 4.00541 31.3802 4.3392 31.344C4.20649 31.3399 4.3211 31.1526 4.26681 30.9874L4.25274 30.9693C4.24268 30.9572 4.2467 30.9411 4.25676 30.929C4.24469 30.8041 4.22861 30.6752 4.21252 30.5443L4.17834 30.5382C3.51678 30.4315 3.05229 30.234 2.86729 29.9843C2.57372 29.5834 2.48323 29.4485 2.35856 29.2611C2.32438 29.2108 2.28819 29.1544 2.24395 29.0899C2.26607 29.2188 2.2902 29.3457 2.31634 29.4746C2.40883 29.6116 2.51541 29.7627 2.73458 30.0628C2.83914 30.2058 3.00202 30.3187 3.19304 30.4073C3.47053 30.5382 3.80232 30.6188 4.09187 30.6691C4.10796 30.7679 4.10796 30.9874 4.18236 31.205C3.8546 31.205 3.557 31.074 3.29962 30.8867C2.88941 30.5886 2.58377 30.1474 2.43095 29.8735C2.38671 29.7929 2.4209 29.8554 2.38671 29.7808C2.41688 29.8936 2.44905 30.0044 2.48524 30.1112C2.48323 30.1051 2.48122 30.1031 2.48524 30.1132L2.37666 30.1978C2.61595 30.788 3.25337 31.2634 3.84052 31.4447C3.84454 31.4447 3.84856 31.4406 3.85259 31.4406C3.8546 31.4406 3.85661 31.4406 3.85862 31.4406C3.97122 31.4668 4.09388 31.491 4.22056 31.5152C4.26882 31.5232 4.34523 31.5373 4.41561 31.5494C4.49202 31.5635 4.57044 31.5756 4.65087 31.5877C5.84529 31.7025 7.10003 31.7549 8.68453 31.7549H8.70464C10.261 31.7549 11.4997 31.7025 12.68 31.5877C12.7604 31.5756 12.8388 31.5635 12.9153 31.5494C12.9876 31.5373 13.062 31.5232 13.1103 31.5152C13.237 31.491 13.3596 31.4668 13.4722 31.4406C13.4743 31.4406 13.4763 31.4406 13.4783 31.4406C13.4823 31.4406 13.4863 31.4447 13.4903 31.4447C14.0775 31.2634 14.7149 30.788 14.9542 30.1978L14.8456 30.1132C14.8517 30.1011 14.8496 30.1051 14.8456 30.1112C14.8838 30.0024 14.916 29.8916 14.9441 29.7808C14.91 29.8554 14.9441 29.7909 14.8999 29.8735C14.7491 30.1474 14.4414 30.5886 14.0312 30.8867C13.7739 31.074 13.4763 31.205 13.1485 31.205C13.2209 30.9874 13.2229 30.7679 13.239 30.6691C13.5285 30.6188 13.8623 30.5382 14.1378 30.4073C14.3268 30.3166 14.4917 30.2038 14.5963 30.0628C14.8155 29.7627 14.922 29.6096 15.0145 29.4746C15.0407 29.3477 15.0648 29.2188 15.0869 29.0899C15.0427 29.1544 15.0065 29.2087 14.9723 29.2611C14.8476 29.4485 14.7571 29.5834 14.4636 29.9843H14.4716Z" fill="#1A1F29"/>
<path d="M14.4274 2.91301C14.2685 2.631 13.9669 2.36309 13.6975 2.16367C13.4883 2.01058 13.1123 1.69433 12.8328 1.69634C13.044 2.01461 13.4783 2.26238 13.7779 2.5182C13.979 2.69143 14.164 2.93315 14.3892 3.07617C14.4616 3.03387 14.4616 2.95934 14.4093 2.89488L14.4294 2.91301H14.4274Z" fill="white"/>
<path d="M2.8069 16.7352L2.78881 16.7272V16.709C2.65207 15.3755 2.66012 13.9715 2.66816 12.6139C2.67017 12.078 2.67419 11.5261 2.66816 10.9883C2.46105 11.0588 2.25595 11.1333 2.05889 11.2078C2.04481 12.1304 2.01867 14.5396 1.99655 16.981C2.12726 17.0172 2.32834 17.0777 2.54952 17.1461C3.01804 17.2871 3.6434 17.4765 3.85453 17.5107C3.85453 17.5027 3.85453 17.4946 3.85654 17.4866C3.86861 17.3738 3.87866 17.2589 3.82638 17.1663C3.44835 17.0656 3.10852 16.8903 2.8069 16.7352Z" fill="#FADB14"/>
<path d="M3.13907 8.92789C3.06467 9.0286 3.06266 9.15148 3.06065 9.28442C3.06065 9.34687 3.06065 9.41133 3.04859 9.47377C3.04859 9.47377 3.04658 9.47579 3.04658 9.4778C3.20342 10.0418 3.33814 10.634 3.46884 11.2081C3.66389 12.0683 3.86698 12.9546 4.15252 13.7744C5.55002 13.3574 7.04806 13.1439 8.61246 13.1419H8.61448C8.61448 13.1419 8.63056 13.1419 8.63861 13.1419C8.65268 13.1419 8.66877 13.1419 8.68485 13.1419C8.6929 13.1419 8.70094 13.1419 8.70898 13.1419C8.70898 13.1419 8.71904 13.1419 8.72507 13.1419H8.72708C10.2915 13.1439 11.7915 13.3574 13.187 13.7744C13.4706 12.9566 13.6736 12.0683 13.8707 11.2081C14.0014 10.634 14.1361 10.0418 14.293 9.4778C14.293 9.4778 14.291 9.47579 14.291 9.47377C14.2809 9.41133 14.2809 9.34687 14.2789 9.28442C14.2789 9.15148 14.2749 9.02659 14.2005 8.92789C14.1985 8.92587 14.2005 8.92184 14.1985 8.91781C12.6723 7.9892 10.7298 7.47755 8.70898 7.47151C8.70898 7.47151 8.6929 7.47151 8.68485 7.47151C6.64389 7.46748 4.67935 7.97913 3.13907 8.91781C3.13907 8.92184 3.13907 8.92386 3.13706 8.92789H3.13907ZM5.40524 12.0864C6.59966 12.2637 7.50854 12.2798 8.70898 12.2536C9.86921 12.2778 10.766 12.2596 11.9343 12.0864C13.1448 11.9071 13.5811 10.0801 13.9612 9.34284C13.8104 9.96729 13.557 11.2001 13.3238 11.8084C13.1669 13.5448 11.1823 12.7129 8.70898 12.7411C6.19951 12.6927 4.17463 13.5629 4.01578 11.8084C3.78253 11.2021 3.52917 9.96729 3.37836 9.34284C3.7584 10.0821 4.19675 11.9071 5.40524 12.0864Z" fill="#364258"/>
<path d="M3.86142 21.608C3.8574 21.4932 3.85539 21.3763 3.86142 21.2595C3.86142 21.2595 3.86142 21.2575 3.86142 21.2555V17.958C3.52562 17.9257 3.18781 17.8593 2.89021 17.7666C2.87613 17.7646 2.86206 17.7646 2.84798 17.7646C2.81179 19.3237 2.89222 20.9392 2.97064 22.5003C2.98069 22.6937 2.99075 22.8871 2.99879 23.0785C3.06314 23.0865 3.12748 23.0926 3.18177 23.0785C3.28634 22.9576 3.37883 22.8246 3.46731 22.6957C3.57589 22.5406 3.68849 22.3835 3.8192 22.2425C3.8192 22.2425 3.8192 22.2385 3.8192 22.2365C3.8755 22.035 3.86947 21.8155 3.86343 21.606L3.86142 21.608Z" fill="#364258"/>
<path d="M3.8391 22.3289C3.7265 22.4558 3.62596 22.5968 3.52944 22.7338C3.43694 22.8667 3.34043 23.0037 3.23184 23.1286L3.22581 23.1366L3.21576 23.1406C3.13734 23.1668 3.05087 23.1568 2.97446 23.1467L2.9262 23.1406V23.1124C2.91615 22.911 2.90408 22.7076 2.89403 22.5061C2.81561 20.9329 2.73518 19.3053 2.77338 17.7341V17.7039L2.80756 17.7019C2.82164 17.7019 2.83572 17.6999 2.84979 17.6999C2.86789 17.6999 2.88599 17.6999 2.90609 17.7059C3.20168 17.7966 3.53145 17.861 3.85921 17.8933C3.85921 17.859 3.85921 17.8248 3.85921 17.7905C3.85921 17.716 3.86122 17.6435 3.85117 17.573C3.63601 17.5408 3.02674 17.3554 2.52806 17.2044C2.31492 17.1399 2.12389 17.0815 1.9952 17.0452C1.97107 19.5229 1.92482 21.8998 1.9208 22.9009C1.9208 22.9231 1.93689 23.0641 1.9208 23.0782C1.98314 23.2253 2.01933 23.3864 2.05352 23.5415C2.09373 23.7329 2.13797 23.9323 2.23248 24.1055C2.24454 24.1156 2.25862 24.1277 2.27068 24.1378C2.28476 24.1519 2.30084 24.1639 2.31693 24.178C2.42551 24.2284 2.53812 24.1962 2.65474 24.1619C2.69697 24.1498 2.7392 24.1378 2.78142 24.1297C2.78142 24.1297 2.7955 24.1277 2.8136 24.1237C2.84577 24.1075 2.86588 24.0955 2.86789 24.0955C2.87392 24.0995 2.87593 24.1055 2.87794 24.1096H2.92821C2.9443 24.1096 2.95636 24.1055 2.95636 24.1055C3.16549 23.6604 3.45102 23.193 3.80693 22.7176C3.80693 22.7176 3.80693 22.7136 3.80693 22.7116C3.80693 22.7076 3.80492 22.7055 3.80693 22.7015C3.85117 22.5786 3.86323 22.4477 3.84313 22.3269L3.8391 22.3289Z" fill="#FADB14"/>
<path d="M3.80262 15.6938C3.72219 14.3341 3.35823 12.9886 3.00634 11.6893C2.93797 11.4395 2.87162 11.1897 2.80526 10.94C2.78515 10.946 2.76504 10.9541 2.74494 10.9601C2.75097 11.506 2.74896 12.068 2.74494 12.6119C2.73689 13.9635 2.73086 15.3595 2.86156 16.6829C3.14911 16.8319 3.47285 16.9931 3.82675 17.0918C3.85289 16.8924 3.83479 16.6104 3.81669 16.3364C3.80061 16.0947 3.78452 15.8651 3.7986 15.6979C3.7986 15.6979 3.7986 15.6959 3.80061 15.6938H3.80262Z" fill="#364258"/>
<path d="M4.71951 7.52929C4.251 7.6985 3.72216 7.91001 3.40043 8.27662C3.40043 8.27662 3.39842 8.27662 3.39641 8.27662C3.36625 8.35316 3.32603 8.42568 3.28582 8.49618C3.21946 8.611 3.16115 8.72179 3.14305 8.84668C4.66522 7.93015 6.59358 7.42455 8.59834 7.41246H8.65465C8.65465 7.41246 8.66068 7.41246 8.66269 7.41246H8.7029C8.7029 7.41246 8.70492 7.41246 8.70693 7.41246H8.73709C10.7419 7.42253 12.6702 7.93015 14.1924 8.84668C14.1743 8.72179 14.116 8.611 14.0496 8.49618C14.0094 8.42568 13.9692 8.35316 13.939 8.27662C13.939 8.27662 13.937 8.27662 13.935 8.27662C13.6133 7.91001 13.0844 7.6985 12.6159 7.52929C12.2198 7.38628 11.8036 7.26944 11.3793 7.1788C10.5408 7.00153 9.63994 6.91089 8.70492 6.9129C8.70492 6.9129 8.68883 6.9129 8.68079 6.9129C7.72566 6.90887 6.80672 6.99952 5.95213 7.18081C5.52785 7.27146 5.11162 7.38829 4.71549 7.53131L4.71951 7.52929Z" fill="#D4B106"/>
<path d="M2.8695 29.984C3.05449 30.2357 3.51899 30.4332 4.18054 30.5379L4.21472 30.5439C4.18255 30.2861 4.14636 30.0182 4.10815 29.7402C3.9875 28.864 3.86283 27.9595 3.86887 27.1981C3.86887 27.1961 3.87088 27.1941 3.87289 27.1921C3.87289 27.1921 3.87289 27.1921 3.87289 27.1901C3.90707 26.3259 4.03576 25.4436 4.16043 24.5895C4.21472 24.2269 4.26901 23.8503 4.31526 23.4836C4.31124 23.4776 4.30722 23.4736 4.30722 23.4655C4.34945 22.6578 4.36352 21.9366 4.35146 21.2578C4.35146 21.2538 4.35548 21.2497 4.35548 21.2477C4.36151 18.7701 4.33939 16.9672 4.28711 15.7425C4.28711 15.7425 4.28711 15.7425 4.28711 15.7405C4.22478 15.0012 4.16043 14.3909 4.08804 13.8208C4.08804 13.8168 4.09005 13.8148 4.09206 13.8107C3.80452 12.9848 3.59942 12.0905 3.40236 11.2223C3.27166 10.6502 3.13895 10.06 2.98009 9.50002C2.73478 9.50606 2.52766 9.40736 2.32859 9.30865C2.24012 9.26434 2.15366 9.22607 2.06518 9.19182C2.06518 9.36909 2.05312 9.54433 2.04306 9.71757C2.031 9.92706 2.01692 10.1426 2.02094 10.3541C2.23007 10.3481 2.46131 10.197 2.54174 10.0459L2.55179 10.0278H2.57391C2.60005 10.0318 2.62418 10.0439 2.64027 10.052L2.65233 10.058L2.65636 10.0701C2.73478 10.3199 2.80314 10.5938 2.85542 10.8597C2.86146 10.8637 2.8695 10.8698 2.87352 10.8778C2.87754 10.8879 2.87553 10.898 2.87352 10.906C2.94189 11.1619 3.01026 11.4197 3.08063 11.6755C3.43453 12.9808 3.79849 14.3304 3.87892 15.6982C3.87892 15.7022 3.88294 15.7042 3.88093 15.7062C3.86685 15.8694 3.88093 16.095 3.89903 16.3347C3.91914 16.6248 3.93723 16.9229 3.90707 17.1284C3.97343 17.2432 3.96136 17.3761 3.9493 17.495C3.9493 17.5091 3.94729 17.5232 3.94528 17.5393C3.96136 17.6239 3.95935 17.7085 3.95734 17.7911C3.95734 17.8374 3.95734 17.8837 3.95734 17.9301L3.95734 21.2558C3.95734 21.2558 3.95533 21.2598 3.95533 21.2618C3.9493 21.3746 3.95131 21.4935 3.95533 21.6063C3.96136 21.8238 3.96739 22.0474 3.90908 22.2589C3.90908 22.2589 3.90908 22.2589 3.90707 22.2609C3.94327 22.406 3.93522 22.5752 3.87892 22.7262C3.87892 22.7605 3.8749 22.7988 3.87289 22.8391C3.86283 23.0304 3.84071 23.2238 3.81055 23.4152C3.61148 24.9199 3.05449 27.7964 3.05047 27.8004C3.04846 27.8004 3.51698 23.6569 2.93988 24.1564H2.88357C2.88357 24.1585 2.87352 24.1625 2.86548 24.1665C2.84336 24.1786 2.81119 24.1947 2.79912 24.1907C2.75891 24.1987 2.71869 24.2088 2.67847 24.2209C2.55179 24.2572 2.41908 24.2974 2.28235 24.231L2.27631 24.2269C2.25822 24.2128 2.24213 24.1987 2.22604 24.1826C2.21197 24.1705 2.1999 24.1585 2.18583 24.1464L2.17778 24.1363C2.07724 23.953 2.03301 23.7475 1.99078 23.5501C1.96665 23.4413 1.94252 23.3326 1.90834 23.2258C1.89225 23.1875 1.88019 23.1654 1.86611 23.1533C1.82187 24.094 1.79976 25.4114 1.87416 26.5314C1.90633 26.9362 1.94453 27.2968 1.98274 27.5607C1.98877 27.605 1.99681 27.6493 2.00285 27.6916C2.00687 27.6977 2.0129 27.7017 2.01491 27.7098C2.0873 28.024 2.13757 28.3523 2.18583 28.6686C2.20594 28.8076 2.22806 28.9466 2.25218 29.0876C2.29642 29.152 2.33262 29.2064 2.3668 29.2588C2.49147 29.4461 2.58195 29.5811 2.87553 29.9819L2.8695 29.984Z" fill="#FADB14"/>
<path d="M3.91377 31.4158L3.93589 31.4178L3.95801 31.4219L3.90975 31.4078L3.91377 31.4158Z" fill="#FADB14"/>
<path d="M3.43091 31.1484C3.60786 31.2713 3.78884 31.368 3.95774 31.4224C3.98589 31.4284 4.01203 31.4345 4.03616 31.4405L4.04823 31.4284L4.43631 31.5433C5.3271 31.6299 6.18168 31.6782 7.03426 31.7024C7.5631 31.7165 8.08591 31.7245 8.60268 31.7266H8.73741C9.25418 31.7245 9.77699 31.7185 10.3058 31.7024C11.1564 31.6782 12.013 31.6299 12.9038 31.5433L13.2919 31.4284L13.3019 31.4405C13.326 31.4345 13.3542 31.4284 13.3824 31.4224C13.5513 31.37 13.7322 31.2733 13.9092 31.1484C13.6417 31.2915 13.3341 31.3801 13.0003 31.3438C11.9567 31.3821 10.3018 31.4063 8.70926 31.4123C7.09258 31.4063 5.40149 31.3821 4.33979 31.3438C4.006 31.3801 3.70036 31.2915 3.43091 31.1484Z" fill="#FADB14"/>
<path d="M1.96912 10.4812C1.81831 10.596 1.63533 10.6947 1.45636 10.7894C1.0341 11.013 0.635958 11.2265 0.619872 11.6455L0.732478 11.5972C0.991871 11.4864 1.38398 11.3192 1.8163 11.15L1.88064 11.1419C1.88064 11.1419 1.90075 11.1339 1.90879 11.1298C1.92488 11.1177 1.94298 11.1117 1.9651 11.1117C1.9651 11.1117 2.77344 10.8559 2.77344 10.7914C2.76741 10.7632 2.76137 10.737 2.75534 10.7088C2.7292 10.6061 2.69502 10.457 2.65681 10.308C2.6367 10.2355 2.61861 10.1629 2.59649 10.0945C2.59246 10.0945 2.59045 10.0924 2.58643 10.0904C2.48589 10.2536 2.2446 10.4047 2.0214 10.4107V10.4409L1.96711 10.4832L1.96912 10.4812Z" fill="#FADB14"/>
<path d="M3.84858 2.48633C4.00341 2.36144 4.16427 2.23453 4.32715 2.11569C4.20248 2.20029 4.08183 2.29094 3.96319 2.38561C3.92499 2.41784 3.88678 2.45208 3.84858 2.48633Z" fill="#FADB14"/>
<path d="M1.89029 4.25845V4.27054C1.90637 4.78419 1.88828 5.318 1.87018 5.83367C1.83197 6.91336 1.79176 8.03133 2.07528 9.06268L2.09137 9.12109L2.08333 9.13116C2.17783 9.16541 2.27033 9.21174 2.36082 9.25605C2.54983 9.34871 2.74488 9.44339 2.97009 9.44137C2.97612 9.39102 2.97813 9.34066 2.97813 9.28627C2.98014 9.14929 2.98215 9.00628 3.07063 8.88944C3.07063 8.88944 3.07465 8.88743 3.07666 8.88541C3.08671 8.73232 3.1591 8.6034 3.22948 8.4765C3.2697 8.40801 3.30991 8.3355 3.33806 8.26096C3.33806 8.25492 3.33806 8.24686 3.3441 8.24082C3.67789 7.86212 4.21477 7.64659 4.69334 7.47335C5.09349 7.33034 5.51174 7.21149 5.94004 7.12084C6.78658 6.94157 7.69345 6.85092 8.63652 6.85092C8.6526 6.85092 8.66869 6.85092 8.68477 6.85092H8.7089C9.64996 6.85092 10.5548 6.94157 11.3994 7.12084C11.8277 7.21149 12.2459 7.33034 12.646 7.47335C13.1246 7.64659 13.6615 7.86212 13.9953 8.24082C14.0013 8.24686 14.0013 8.25291 14.0013 8.26096C14.0295 8.3355 14.0697 8.40801 14.1099 8.4765C14.1803 8.60139 14.2527 8.73232 14.2627 8.88541C14.2647 8.88541 14.2667 8.88743 14.2688 8.88944C14.3572 9.00829 14.3592 9.14929 14.3613 9.28627C14.3613 9.34066 14.3633 9.39102 14.3693 9.44137C14.5945 9.44339 14.7896 9.34871 14.9786 9.25605C15.0691 9.21174 15.1595 9.16742 15.2561 9.13116L15.248 9.12109L15.2641 9.06268C15.5476 8.03133 15.5074 6.91336 15.4692 5.83367C15.4511 5.318 15.433 4.78621 15.4491 4.27054V4.25845V4.25039C15.4511 4.22622 15.4511 4.20205 15.4531 4.17787C15.2923 3.94622 15.1857 3.68234 15.0851 3.42249C15.0248 3.26739 14.9625 3.10624 14.8881 2.95516C14.8599 2.93905 14.8257 2.93703 14.7936 2.93502C14.7855 2.97732 14.7775 3.01962 14.7715 3.06192C14.7534 3.18077 14.7353 3.30566 14.6709 3.41444L14.6649 3.42048C14.6508 3.43257 14.6387 3.44465 14.6247 3.46077L14.6186 3.46681H14.6086C14.5603 3.47755 14.4685 3.44062 14.3331 3.35602C14.3331 3.35602 14.3271 3.35602 14.3231 3.35602C14.321 3.35602 14.319 3.35602 14.315 3.35602C14.311 3.35602 14.5483 3.59573 14.2989 3.34595C13.6253 2.66711 12.9638 1.98223 12.1192 1.63778C12.1152 1.63778 12.1132 1.63979 12.1092 1.63778C11.0012 1.42828 9.85506 1.32153 8.70689 1.32153C8.70689 1.32153 8.6888 1.32153 8.68276 1.32153C7.51449 1.31951 6.35225 1.42627 5.2262 1.63979C5.22218 1.63979 5.22017 1.63979 5.21615 1.63979C4.37161 1.98425 3.71006 2.67114 3.03644 3.34796C2.78711 3.59774 3.02438 3.35602 3.02036 3.35803C3.01835 3.35803 3.01634 3.35803 3.01231 3.35803C3.00829 3.35803 3.00628 3.35803 3.00226 3.35803C2.86687 3.44398 2.77504 3.48158 2.72678 3.47084H2.71673L2.71069 3.46278C2.69662 3.44667 2.68456 3.43458 2.67048 3.42249L2.66445 3.41645C2.59809 3.30767 2.582 3.1848 2.56391 3.06394C2.55787 3.02164 2.54983 2.97934 2.54179 2.93704C2.5076 2.93704 2.47342 2.94308 2.44728 2.95718C2.37288 3.10825 2.31054 3.2694 2.25022 3.42451C2.14968 3.68436 2.04311 3.94824 1.88225 4.17989C1.88225 4.20406 1.88225 4.22823 1.88627 4.25241V4.26046L1.89029 4.25845ZM14.5302 5.2757C14.5925 6.13985 14.6528 6.95768 14.4578 7.72515C14.4357 7.81177 14.3411 7.86817 14.2446 7.84802C14.1481 7.82788 14.0878 7.74126 14.1099 7.65465L14.1722 5.29786C14.1381 4.83254 14.1039 4.35111 14.1039 3.84148C14.1039 3.33185 14.494 4.81643 14.5282 5.2757H14.5302ZM2.80922 5.2757C2.84341 4.81643 3.2335 3.3258 3.2335 3.84148C3.2335 4.35715 3.19932 4.83254 3.16514 5.29786L3.22747 7.65465C3.24959 7.74126 3.18926 7.82788 3.09275 7.84802C2.99623 7.86817 2.90172 7.81378 2.8796 7.72515C2.68657 6.95768 2.74488 6.13985 2.80721 5.2757H2.80922Z" fill="#FADB14"/>
<path d="M5.37891 0.999236C5.37891 0.999236 5.37287 0.981107 5.36684 0.971035C5.26027 0.942834 5.16375 0.99118 5.0612 1.04154C4.98479 1.07981 4.90436 1.11607 4.81789 1.12413C4.81186 1.12816 4.80583 1.13017 4.79779 1.13017C4.5947 1.27319 4.36748 1.41218 4.15031 1.54311C3.53903 1.91174 2.90965 2.29446 2.59999 2.90683C2.61004 2.95517 2.61808 3.00352 2.62411 3.05186C2.6402 3.16668 2.6583 3.28351 2.71661 3.38221C2.72867 3.3943 2.74074 3.40639 2.75079 3.41847C2.78498 3.4225 2.80911 3.40034 2.84329 3.3661C2.8634 3.34596 3.3098 2.92294 3.84668 2.48382C3.88488 2.44957 3.92309 2.41734 3.96129 2.3831C4.28905 2.09907 4.63089 1.85332 5.01294 1.67002C5.07327 1.63779 5.13359 1.60958 5.18989 1.58743C5.18989 1.58743 5.18989 1.58541 5.1919 1.5834C5.20598 1.47261 5.24619 1.36786 5.28842 1.26715C5.32461 1.17851 5.36081 1.08787 5.3769 0.99521L5.37891 0.999236ZM3.56517 2.51806C3.36409 2.69129 3.17909 2.93301 2.95388 3.07603C2.8815 3.03373 2.8815 2.9592 2.93378 2.89474L2.91367 2.91287C3.07453 2.63086 3.37414 2.36295 3.64359 2.16353C3.85271 2.01044 4.22873 1.69419 4.50823 1.6962C4.2971 2.01447 3.86276 2.26224 3.56316 2.51806H3.56517Z" fill="#D7DEEB"/>
<path d="M0.619785 11.7011L0.758531 11.6427C0.993794 11.542 1.64931 11.2398 1.88458 11.1431L1.82023 11.1512C1.38791 11.3204 0.995805 11.4876 0.736412 11.5984L0.623808 11.6467C0.639894 11.2277 1.03803 11.0162 1.4603 10.7906C1.63926 10.6959 1.82224 10.5972 1.97305 10.4824L2.02734 10.4401V10.4099C2.02734 10.4099 2.01729 10.4099 2.01126 10.4099C1.99919 10.4301 1.97707 10.4421 1.95093 10.4442C1.95093 10.4442 1.94289 10.4442 1.93887 10.4442C1.79208 10.557 1.61111 10.6536 1.43416 10.7483C1.00184 10.978 0.55544 11.2177 0.569515 11.6971C0.583591 11.7011 0.595657 11.7011 0.611743 11.7031C0.615765 11.7031 0.619786 11.7031 0.623808 11.7031L0.619785 11.7011Z" fill="#1A1F29"/>
<path d="M1.9668 11.1137C1.94468 11.1137 1.92658 11.1218 1.91049 11.1318C1.94066 11.1197 1.96076 11.1137 1.9668 11.1137Z" fill="#1A1F29"/>
<path d="M1.88058 4.08282C1.85042 3.02931 2.52805 1.99595 3.90143 1.0069C5.34116 0.330082 7.0805 0.26965 8.60066 0.265622H8.66099H8.6811H8.74142C10.2596 0.26965 12.0009 0.330082 13.4407 1.0069C14.814 1.99595 15.4917 3.02931 15.4615 4.08282C15.4776 4.10699 15.4937 4.12915 15.5098 4.15332C15.5721 3.05953 14.8884 1.98789 13.4688 0.966618C12.0411 0.291811 10.342 0.219294 8.71126 0.217279C8.71126 0.217279 8.69517 0.217279 8.68713 0.217279C7.04028 0.217279 5.31703 0.285767 3.87529 0.966618C2.45567 1.98789 1.76998 3.05953 1.83433 4.15332C1.85042 4.12915 1.86851 4.10699 1.88259 4.08282H1.88058Z" fill="#1A1F29"/>
<path d="M2.06158 9.12085C2.06158 9.12085 2.07766 9.12488 2.08571 9.12891L2.09375 9.11883L2.07766 9.06042C1.79414 8.02907 1.83436 6.9111 1.87256 5.83141C1.89066 5.31574 1.90876 4.78395 1.89267 4.26828V4.25619V4.24813C1.89066 4.22396 1.89066 4.19979 1.88865 4.17562C1.87256 4.19777 1.85648 4.22194 1.84039 4.2441C1.84039 4.24813 1.84039 4.25216 1.84039 4.25619C1.85648 4.77186 1.83838 5.30768 1.82028 5.82537C1.78208 6.9111 1.74387 8.0331 2.0294 9.06848C2.0475 9.07855 2.06158 9.09466 2.06359 9.11682L2.06158 9.12085Z" fill="#1A1F29"/>
<path d="M2.06543 9.18928C2.06543 9.18928 2.06342 9.18928 2.06141 9.18928C2.06141 9.36654 2.05135 9.54381 2.03929 9.71503C2.02722 9.92452 2.01315 10.1401 2.01717 10.3516C2.01717 10.3516 2.01918 10.3516 2.02119 10.3516C2.01717 10.138 2.02924 9.9225 2.04331 9.71503C2.05336 9.54381 2.06342 9.36654 2.06543 9.18928Z" fill="#1A1F29"/>
<path d="M3.0946 7.84552C3.19111 7.82538 3.25144 7.73876 3.22932 7.65214L3.16699 5.29535C3.20117 4.83004 3.23535 4.34861 3.23535 3.83898C3.23535 3.32935 2.84526 4.81392 2.81107 5.27319C2.74874 6.13735 2.68841 6.95518 2.88346 7.72265C2.90558 7.80926 3.00009 7.86566 3.09661 7.84552H3.0946Z" fill="#FFEC3D"/>
<path d="M4.18451 31.2061C4.11212 30.9885 4.11011 30.7689 4.09403 30.6702C3.80447 30.6199 3.47068 30.5393 3.1952 30.4084C3.22335 30.5695 3.25955 30.7287 3.30378 30.8878C3.56117 31.0751 3.85876 31.2061 4.18652 31.2061H4.18451Z" fill="#F5222D"/>
<path d="M3.30176 30.8886C3.25752 30.7295 3.22133 30.5703 3.19317 30.4092C3.00416 30.3185 2.83927 30.2057 2.73471 30.0647C2.51554 29.7646 2.40896 29.6115 2.31647 29.4765C2.33859 29.5793 2.3607 29.682 2.38684 29.7847C2.42103 29.8593 2.38684 29.7948 2.43108 29.8774C2.58189 30.1514 2.88954 30.5925 3.29975 30.8906L3.30176 30.8886Z" fill="#FAAD14"/>
<path d="M1.97852 29.1641C1.97248 29.1238 1.96444 29.0835 1.95841 29.0432C1.96243 29.0815 1.96846 29.1218 1.97852 29.1641Z" fill="#1A1F29"/>
<path d="M0.323898 11.7337C0.323898 11.7337 0.40634 11.9634 0.619484 11.915C0.67981 11.9009 0.85877 11.8425 0.85877 11.8425C1.07393 11.7519 1.37957 11.6209 1.72341 11.4819C1.69325 13.732 1.62488 20.8426 1.61684 22.9154C1.53842 24.3335 1.49016 26.2089 1.7033 27.4698C1.69727 27.496 1.72945 27.7398 1.73548 27.766C1.80586 28.0701 1.85613 28.3944 1.90237 28.7067C1.92047 28.8174 1.93656 28.9303 1.95465 29.0431C1.96069 29.0833 1.96873 29.1236 1.97476 29.1639C2.03509 29.5205 2.10949 29.877 2.23013 30.2174C2.24019 30.2476 2.25829 30.2738 2.28443 30.296C2.77305 31.4744 4.10621 31.7181 4.13637 31.708C4.812 31.8571 7.20083 31.988 8.58023 31.9961H8.6305H8.65865H8.70892H8.75919C10.1386 31.9901 12.5274 31.8571 13.199 31.7101C13.2292 31.7201 14.5644 31.4764 15.053 30.298C15.0771 30.2758 15.0952 30.2497 15.1073 30.2194C15.2279 29.877 15.3023 29.5205 15.3627 29.1659C15.3687 29.1256 15.3767 29.0854 15.3828 29.0451C15.4009 28.9323 15.419 28.8195 15.435 28.7087C15.4833 28.3964 15.5316 28.0721 15.6019 27.768C15.608 27.7418 15.6401 27.498 15.6341 27.4719C15.8473 26.2109 15.799 24.3355 15.7206 22.9174C15.7125 20.8446 15.6442 13.734 15.614 11.484C15.9578 11.6209 16.2655 11.7519 16.4786 11.8445C16.4786 11.8445 16.6576 11.9029 16.7179 11.917C16.9311 11.9654 17.0135 11.7357 17.0135 11.7357C17.0537 11.1032 16.5108 10.8152 16.0322 10.5594C15.8814 10.4788 15.7367 10.4022 15.614 10.3176C15.614 10.1102 15.6039 9.90269 15.5899 9.70327C15.5778 9.51593 15.5657 9.32256 15.5678 9.13522C15.5678 9.11911 15.5678 9.10501 15.5617 9.08889C15.8432 8.03337 15.803 6.91138 15.7648 5.82765C15.7467 5.314 15.7286 4.78221 15.7447 4.27459V4.26855C15.8593 3.06397 15.1435 1.89564 13.6133 0.795807L13.5811 0.777678C12.0891 0.0706406 10.3115 0.00618172 8.75919 0.000137329H8.57822C7.02589 0.00416565 5.24834 0.0706406 3.75633 0.777678L3.72416 0.795807C2.19394 1.89564 1.47609 3.06397 1.59271 4.26855V4.27459C1.6088 4.78221 1.5907 5.314 1.5726 5.82765C1.5344 6.91339 1.49418 8.03337 1.77569 9.08889C1.77167 9.10501 1.76966 9.11911 1.76966 9.13522C1.76966 9.32256 1.7576 9.51593 1.74754 9.70327C1.73548 9.9047 1.72341 10.1102 1.72341 10.3176C1.60277 10.4022 1.45799 10.4788 1.30517 10.5594C0.826597 10.8152 0.281672 11.1032 0.323898 11.7357V11.7337ZM3.81665 16.3385C3.83475 16.6125 3.85285 16.8945 3.82671 17.0939C3.4708 16.9952 3.14706 16.8321 2.86152 16.685C2.72881 15.3616 2.73685 13.9656 2.7449 12.614C2.74691 12.0701 2.75093 11.5081 2.7449 10.9622C2.76501 10.9562 2.78511 10.9481 2.80522 10.9421C2.87158 11.1919 2.93793 11.4417 3.0063 11.6914C3.35819 12.9927 3.72215 14.3363 3.80258 15.696C3.80258 15.696 3.80258 15.698 3.80057 15.7C3.78649 15.8692 3.80057 16.0968 3.81866 16.3385H3.81665ZM3.80258 22.716C3.80258 22.716 3.80258 22.72 3.80258 22.722C3.44667 23.1994 3.16113 23.6647 2.95201 24.1099C2.95201 24.1099 2.93995 24.1099 2.92386 24.1139C2.89169 24.118 2.84142 24.124 2.80924 24.128C2.79115 24.1301 2.77707 24.1321 2.77707 24.1341C2.73484 24.1421 2.69262 24.1542 2.65039 24.1663C2.53377 24.2006 2.42317 24.2328 2.31258 24.1824C2.29649 24.1703 2.28242 24.1562 2.26633 24.1421C2.25426 24.1321 2.2422 24.12 2.22812 24.1099C2.13362 23.9367 2.09139 23.7373 2.04916 23.5459C2.01498 23.3908 1.97878 23.2296 1.91645 23.0826C1.93254 23.0685 1.91645 22.9275 1.91645 22.9053C1.92047 21.9042 1.96672 19.5273 1.99085 17.0496C2.11954 17.0859 2.31258 17.1443 2.52371 17.2087C3.02239 17.3598 3.63367 17.5431 3.84682 17.5774C3.85687 17.6479 3.85687 17.7184 3.85486 17.7949C3.85486 17.8292 3.85486 17.8634 3.85486 17.8976C3.5271 17.8654 3.19733 17.801 2.90174 17.7103C2.87962 17.7063 2.86152 17.7043 2.84544 17.7043C2.83136 17.7043 2.81729 17.7043 2.80321 17.7063H2.77104V17.7385C2.73283 19.3097 2.81327 20.9373 2.89169 22.5105C2.90174 22.714 2.91179 22.9154 2.92185 23.1168V23.145L2.97212 23.1511C3.04853 23.1611 3.13499 23.1712 3.21341 23.145L3.22347 23.141L3.2295 23.1329C3.33808 23.006 3.4346 22.8691 3.5271 22.7381C3.62362 22.6012 3.72215 22.4602 3.83676 22.3333C3.85687 22.4541 3.84682 22.5871 3.80057 22.7079C3.80057 22.7119 3.80057 22.714 3.80057 22.718L3.80258 22.716ZM3.81665 22.2406C3.81665 22.2406 3.81665 22.2446 3.81665 22.2466C3.68394 22.3876 3.57134 22.5448 3.46476 22.6999C3.37629 22.8288 3.28379 22.9597 3.17923 23.0826C3.12293 23.0987 3.05858 23.0906 2.99625 23.0826C2.98619 22.8892 2.97815 22.6978 2.9681 22.5045C2.88968 20.9433 2.80924 19.3278 2.84544 17.7687C2.85951 17.7687 2.87158 17.7687 2.88767 17.7707C3.18526 17.8634 3.52308 17.9279 3.85888 17.9621V21.2596C3.85888 21.2596 3.85888 21.2616 3.85888 21.2636C3.85285 21.3784 3.85486 21.4973 3.85888 21.6121C3.86491 21.8236 3.87094 22.0412 3.81464 22.2426L3.81665 22.2406ZM3.85486 17.4867C3.85486 17.4867 3.85486 17.5028 3.85285 17.5109C3.64171 17.4766 3.01435 17.2873 2.54784 17.1463C2.32464 17.0798 2.12557 17.0174 1.99487 16.9811C2.019 14.5397 2.04313 12.1285 2.05721 11.208C2.25426 11.1335 2.45936 11.0589 2.66648 10.9884C2.67251 11.5263 2.6705 12.0782 2.66648 12.614C2.65843 13.9717 2.6524 15.3777 2.78511 16.7092V16.7273L2.80522 16.7354C3.10483 16.8905 3.44466 17.0637 3.8247 17.1664C3.87698 17.2591 3.86692 17.3739 3.85486 17.4867ZM15.3647 27.5645C15.3586 27.6088 15.3506 27.6532 15.3446 27.6955C15.3405 27.7015 15.3345 27.7055 15.3325 27.7136C15.2601 28.0278 15.2098 28.3562 15.1616 28.6724C15.1395 28.8114 15.1193 28.9504 15.0952 29.0914C15.0731 29.2203 15.049 29.3472 15.0228 29.4761C15.0007 29.5789 14.9786 29.6816 14.9525 29.7843C14.9223 29.8971 14.8921 30.0079 14.8539 30.1147C14.8559 30.1086 14.8579 30.1066 14.8539 30.1167L14.9625 30.2013C14.7232 30.7915 14.0858 31.2669 13.4986 31.4482C13.4946 31.4482 13.1749 31.5086 13.1689 31.5086C13.1689 31.5086 13.1488 31.5126 13.1166 31.5167C13.0683 31.5247 12.9919 31.5388 12.9215 31.5509C12.825 31.5691 12.7366 31.5852 12.7345 31.5852C12.7185 31.5852 12.7024 31.5872 12.6863 31.5892C11.5059 31.704 10.2673 31.7544 8.71093 31.7564C8.71093 31.7564 8.69686 31.7564 8.69083 31.7564C7.10632 31.7564 5.85158 31.706 4.65717 31.5892C4.64108 31.5892 4.62499 31.5872 4.60891 31.5852C4.60891 31.5852 4.51842 31.5691 4.4219 31.5509C4.34951 31.5388 4.27512 31.5247 4.22686 31.5167C4.19669 31.5106 4.17457 31.5086 4.17457 31.5086C4.17055 31.5086 3.85084 31.4462 3.8448 31.4482C3.25765 31.2669 2.62224 30.7915 2.38094 30.2013L2.48953 30.1167C2.48349 30.1046 2.48551 30.1086 2.48953 30.1147C2.45132 30.0059 2.41915 29.8951 2.391 29.7843C2.36486 29.6836 2.34073 29.5809 2.32062 29.4761C2.29448 29.3492 2.27035 29.2203 2.24823 29.0914C2.2241 28.9504 2.20198 28.8114 2.18188 28.6724C2.13362 28.3562 2.08335 28.0278 2.01096 27.7136C2.01096 27.7055 2.00291 27.7015 1.99889 27.6955C1.99085 27.6532 1.98482 27.6088 1.97878 27.5645C1.93052 27.2563 1.89433 26.9078 1.8702 26.5352C1.7958 25.4152 1.81792 24.0978 1.86216 23.1571C1.86216 23.145 1.86216 23.1309 1.86216 23.1188C1.87623 23.1551 1.89031 23.1914 1.90237 23.2296C1.93656 23.3364 1.96069 23.4472 1.98482 23.5539C2.02704 23.7514 2.07128 23.9568 2.17182 24.1401L2.17986 24.1502C2.19394 24.1623 2.20802 24.1744 2.22008 24.1865C2.23617 24.2006 2.25426 24.2167 2.27035 24.2308L2.27638 24.2348C2.41513 24.3013 2.54583 24.263 2.67251 24.2247C2.70669 24.2147 2.81729 24.1885 2.85951 24.1703C2.86957 24.1663 2.8756 24.1643 2.87761 24.1603H2.93391C3.51101 23.6607 3.0425 27.8062 3.04451 27.8042C3.04853 27.8022 3.60753 24.9237 3.80459 23.419C3.83475 23.1893 3.85687 22.9919 3.86692 22.8429C3.86893 22.8026 3.87094 22.7643 3.87296 22.7301C3.92926 22.579 3.9373 22.4098 3.90111 22.2648C3.90111 22.2648 3.90111 22.2648 3.90312 22.2627C3.96143 22.0492 3.9554 21.8256 3.94937 21.6101C3.94534 21.4973 3.94333 21.3784 3.94937 21.2656C3.94937 21.2656 3.95138 21.2616 3.95138 21.2596V17.9339C3.95138 17.8876 3.95138 17.8412 3.95138 17.7949C3.95339 17.7123 3.9554 17.6257 3.93931 17.5431C3.93931 17.529 3.94132 17.5149 3.94333 17.4988C3.9554 17.38 3.96746 17.247 3.90111 17.1322C3.93328 16.9247 3.91317 16.6286 3.89306 16.3385C3.87698 16.0988 3.8629 15.8732 3.87497 15.7101C3.87497 15.708 3.87296 15.704 3.87296 15.702C3.79252 14.3343 3.42857 12.9846 3.07467 11.6793C3.00429 11.4215 2.93592 11.1657 2.86756 10.9099C2.87158 10.8998 2.87359 10.8897 2.86756 10.8817C2.86353 10.8736 2.8575 10.8696 2.84946 10.8635C2.79718 10.5976 2.72881 10.3237 2.65039 10.0739L2.64637 10.0618L2.63431 10.0558C2.61822 10.0477 2.59409 10.0356 2.56795 10.0336H2.54583L2.53578 10.0497C2.45534 10.2008 2.22209 10.3519 2.01498 10.3579C2.01498 10.3579 2.01297 10.3579 2.01096 10.3579C2.00694 10.1444 2.019 9.92887 2.03308 9.7214C2.04313 9.55018 2.05318 9.37291 2.05519 9.19565C2.05519 9.19565 2.05721 9.19565 2.05922 9.19565C2.14769 9.22788 2.23416 9.26817 2.32263 9.31248C2.5217 9.41119 2.72881 9.50989 2.97413 9.50385C3.13097 10.0658 3.2657 10.654 3.3964 11.2261C3.59346 12.0923 3.79856 12.9887 4.0861 13.8146C4.0861 13.8186 4.08208 13.8206 4.08208 13.8246C4.15648 14.3947 4.21881 15.005 4.28115 15.7443V15.7463C4.33343 16.971 4.35756 18.7739 4.34951 21.2515C4.34951 21.2556 4.34549 21.2576 4.34549 21.2616C4.35756 21.9405 4.34348 22.6616 4.30125 23.4693C4.30125 23.4754 4.30528 23.4814 4.3093 23.4875C4.26305 23.8541 4.20876 24.2308 4.15447 24.5934C4.0298 25.4474 3.90111 26.3277 3.86692 27.1939C3.86692 27.1939 3.86692 27.1939 3.86692 27.1959C3.86692 27.1979 3.8629 27.1999 3.8629 27.2019C3.85687 27.9634 3.98154 28.8698 4.10219 29.744C4.14039 30.024 4.17659 30.292 4.20876 30.5478C4.22484 30.6787 4.24093 30.8076 4.253 30.9325C4.24294 30.9446 4.23892 30.9587 4.24897 30.9728L4.26305 30.9909C4.31734 31.1561 4.20273 31.3414 4.33544 31.3475C5.39714 31.3857 7.08822 31.4099 8.7049 31.416C10.2975 31.4099 11.9523 31.3857 12.9959 31.3475C13.1287 31.3434 13.014 31.1561 13.0683 30.9909L13.0824 30.9728C13.0925 30.9607 13.0884 30.9446 13.0784 30.9325C13.0905 30.8076 13.1065 30.6787 13.1226 30.5478C13.1548 30.2899 13.191 30.022 13.2292 29.744C13.3498 28.8678 13.4745 27.9634 13.4685 27.2019C13.4685 27.1999 13.4665 27.1979 13.4645 27.1959C13.4645 27.1959 13.4645 27.1959 13.4645 27.1939C13.4303 26.3297 13.3016 25.4474 13.1769 24.5934C13.1226 24.2308 13.0683 23.8541 13.0221 23.4875C13.0261 23.4814 13.0301 23.4774 13.0301 23.4693C12.9879 22.6616 12.9738 21.9405 12.9859 21.2616C12.9859 21.2576 12.9819 21.2536 12.9819 21.2515C12.9758 18.7739 12.998 16.971 13.0502 15.7463C13.0502 15.7463 13.0502 15.7463 13.0502 15.7443C13.1126 15.005 13.1769 14.3947 13.2493 13.8246C13.2493 13.8206 13.2473 13.8186 13.2453 13.8146C13.5328 12.9887 13.7379 12.0943 13.935 11.2261C14.0657 10.654 14.1984 10.0638 14.3573 9.50385C14.6026 9.50989 14.8097 9.41119 15.0088 9.31248C15.0972 9.26817 15.1837 9.22989 15.2722 9.19565C15.2722 9.19565 15.2742 9.19565 15.2762 9.19565C15.2762 9.37291 15.2862 9.55018 15.2983 9.7214C15.3104 9.93089 15.3244 10.1464 15.3204 10.3579C15.3204 10.3579 15.3184 10.3579 15.3164 10.3579C15.1073 10.3519 14.876 10.2008 14.7956 10.0497L14.7856 10.0316H14.7634C14.7373 10.0356 14.7132 10.0477 14.6971 10.0558L14.685 10.0618L14.681 10.0739C14.6026 10.3237 14.5342 10.5976 14.4819 10.8635C14.4759 10.8676 14.4678 10.8736 14.4638 10.8817C14.4598 10.8917 14.4618 10.9018 14.4638 10.9099C14.3955 11.1657 14.3271 11.4235 14.2567 11.6793C13.9028 12.9846 13.5389 14.3343 13.4584 15.702C13.4584 15.706 13.4544 15.708 13.4564 15.7101C13.4705 15.8732 13.4564 16.0988 13.4383 16.3385C13.4182 16.6286 13.4001 16.9267 13.4303 17.1322C13.3639 17.247 13.376 17.38 13.388 17.4988C13.388 17.5129 13.3901 17.527 13.3921 17.5431C13.376 17.6277 13.378 17.7123 13.38 17.7949C13.38 17.8412 13.382 17.8876 13.38 17.9339V21.2596C13.38 21.2596 13.382 21.2636 13.382 21.2656C13.388 21.3784 13.386 21.4973 13.382 21.6101C13.376 21.8276 13.37 22.0512 13.4283 22.2627C13.4283 22.2627 13.4283 22.2627 13.4303 22.2648C13.3941 22.4098 13.4021 22.579 13.4584 22.7301C13.4584 22.7643 13.4624 22.8026 13.4645 22.8429C13.4745 22.994 13.4966 23.1914 13.5268 23.419C13.7259 24.9237 14.2829 27.8002 14.2869 27.8042C14.2889 27.8042 13.8204 23.6607 14.3975 24.1603H14.4538C14.4538 24.1623 14.4638 24.1663 14.4719 24.1703C14.5161 24.1885 14.6247 24.2147 14.6589 24.2247C14.7856 24.261 14.9183 24.3013 15.055 24.2348L15.061 24.2308C15.0791 24.2167 15.0952 24.2026 15.1113 24.1865C15.1254 24.1744 15.1374 24.1623 15.1515 24.1502L15.1596 24.1401C15.2601 23.9568 15.3043 23.7514 15.3466 23.5539C15.3707 23.4452 15.3948 23.3364 15.429 23.2296C15.4411 23.1914 15.4531 23.1551 15.4692 23.1188C15.4692 23.1309 15.4692 23.145 15.4692 23.1571C15.5135 24.0978 15.5356 25.4152 15.4612 26.5352C15.4371 26.9078 15.4009 27.2563 15.3526 27.5645H15.3647ZM8.68479 6.91339C8.68479 6.91339 8.70088 6.91339 8.70892 6.91339C9.64596 6.91339 10.5448 7.00202 11.3833 7.1813C11.8076 7.27194 12.2238 7.38878 12.6199 7.5318C13.0884 7.701 13.6173 7.91251 13.939 8.27912C13.939 8.27912 13.941 8.27912 13.943 8.27912C13.9732 8.35567 14.0134 8.42818 14.0536 8.49869C14.12 8.6135 14.1783 8.72429 14.1964 8.84918C12.6742 7.93265 10.7459 7.42705 8.7411 7.41496H8.71093H8.70691H8.6667C8.6667 7.41496 8.66066 7.41496 8.65865 7.41496H8.60235C6.59759 7.42504 4.66923 7.93265 3.14706 8.84918C3.16515 8.72429 3.22347 8.6135 3.28983 8.49869C3.33004 8.42818 3.37026 8.35567 3.40042 8.27912C3.40042 8.27912 3.40243 8.27912 3.40444 8.27912C3.72617 7.91251 4.25501 7.701 4.72352 7.5318C5.11965 7.38878 5.53588 7.27194 5.96016 7.1813C6.81475 7.00001 7.73369 6.90936 8.68882 6.91339H8.68479ZM8.68479 7.47338C8.68479 7.47338 8.70088 7.47338 8.70892 7.47338C10.7298 7.47942 12.6722 7.98906 14.1984 8.91969C14.1984 8.92371 14.1984 8.92573 14.2004 8.92976C14.2748 9.03047 14.2768 9.15335 14.2788 9.2863C14.2788 9.34874 14.2788 9.4132 14.2909 9.47565C14.2909 9.47565 14.2929 9.47766 14.2929 9.47968C14.1361 10.0437 13.9993 10.6359 13.8706 11.21C13.6756 12.0701 13.4725 12.9564 13.187 13.7763C11.7895 13.3593 10.2914 13.1458 8.72702 13.1438H8.72501C8.72501 13.1438 8.71496 13.1438 8.70892 13.1438C8.70892 13.1438 8.69284 13.1438 8.68479 13.1438C8.66871 13.1438 8.65463 13.1438 8.63855 13.1438C8.6305 13.1438 8.62246 13.1438 8.61442 13.1438H8.6124C7.048 13.1458 5.54795 13.3593 4.15246 13.7763C3.86893 12.9585 3.66584 12.0701 3.46879 11.21C3.33808 10.6359 3.20336 10.0437 3.04652 9.47968C3.04652 9.47968 3.04853 9.47766 3.04853 9.47565C3.05858 9.4132 3.05858 9.34874 3.06059 9.2863C3.06059 9.15335 3.06462 9.02846 3.13902 8.92976C3.14103 8.92774 3.13901 8.92371 3.14103 8.91969C4.6813 7.981 6.64585 7.46935 8.6868 7.47338H8.68479ZM12.9658 15.7403C12.9135 16.967 12.8914 18.7739 12.8974 21.2556C12.8854 21.9284 12.8994 22.6435 12.9396 23.4411C12.9396 23.5137 12.998 23.9427 13.0703 24.5168C13.189 25.4515 13.3438 26.7769 13.3317 27.6068C13.3257 28.0198 13.2795 28.3139 13.1649 28.3703C11.6588 29.0511 10.589 29.0692 8.94017 29.0652C8.86174 29.0652 8.78533 29.0652 8.70691 29.0652C8.60235 29.0652 8.4998 29.0652 8.39524 29.0652C6.74638 29.0692 5.67664 29.0511 4.17055 28.3703C4.05594 28.3118 4.00969 28.0198 4.00366 27.6068C3.99159 26.7769 4.14642 25.4515 4.26506 24.5168C4.33745 23.9427 4.39777 23.5137 4.39576 23.4411C4.43598 22.6435 4.45005 21.9284 4.43799 21.2556C4.44402 18.7739 4.4219 16.967 4.36962 15.7403C4.36962 15.7403 4.36962 15.7403 4.36962 15.7362C4.30729 15.005 4.24495 14.4007 4.17256 13.8367C5.58414 13.4157 7.1023 13.2042 8.68278 13.2082C8.69083 13.2082 8.70088 13.2082 8.70892 13.2082C10.2713 13.2082 11.7714 13.4197 13.1669 13.8367C13.0945 14.4007 13.0321 15.005 12.9698 15.7362C12.9698 15.7362 12.9698 15.7362 12.9698 15.7403H12.9658ZM8.70892 31.2669C7.87042 31.2729 7.21691 31.2709 7.11637 31.2729C6.02451 31.2951 4.70945 31.2729 4.48223 30.9909C4.41788 30.9104 4.17256 29.3271 4.17256 28.5798C4.99297 29.0531 6.86301 29.3009 8.70892 29.2928C10.5287 29.2928 12.3585 29.0471 13.1669 28.5798C13.1669 29.3271 12.9195 30.9124 12.8572 30.9909C12.632 31.2729 11.3169 31.2951 10.2231 31.2729C10.1265 31.2709 9.50922 31.2729 8.70892 31.2669ZM14.689 24.1643C14.6468 24.1522 14.6046 24.1401 14.5624 24.1321C14.5624 24.1321 14.5483 24.1301 14.5302 24.126C14.498 24.122 14.4477 24.116 14.4156 24.1119C14.3995 24.1119 14.3874 24.1079 14.3874 24.1079C14.1783 23.6627 13.8928 23.1954 13.5368 22.72C13.5368 22.72 13.5368 22.716 13.5368 22.714C13.5368 22.7099 13.5368 22.7079 13.5368 22.7039C13.4926 22.581 13.4805 22.4501 13.5007 22.3292C13.6133 22.4561 13.7138 22.5971 13.8103 22.7341C13.9028 22.8671 13.9993 23.004 14.1079 23.1289L14.1139 23.137L14.124 23.141C14.2024 23.1672 14.2889 23.1571 14.3653 23.147L14.4136 23.141V23.1128C14.4236 22.9114 14.4357 22.7079 14.4457 22.5065C14.5242 20.9333 14.6046 19.3057 14.5664 17.7345V17.7043L14.5322 17.7023C14.5181 17.7023 14.504 17.7002 14.49 17.7002C14.4719 17.7002 14.4538 17.7002 14.4337 17.7063C14.1381 17.7969 13.8083 17.8614 13.4805 17.8936C13.4805 17.8594 13.4805 17.8251 13.4805 17.7909C13.4805 17.7164 13.4805 17.6438 13.4886 17.5733C13.7037 17.5411 14.313 17.3558 14.8117 17.2047C15.0248 17.1403 15.2159 17.0818 15.3446 17.0456C15.3687 19.5232 15.4149 21.9002 15.419 22.9013C15.419 22.9235 15.4029 23.0645 15.419 23.0786C15.3566 23.2256 15.3204 23.3868 15.2862 23.5419C15.244 23.7332 15.2018 23.9326 15.1073 24.1059C15.0952 24.116 15.0811 24.128 15.0691 24.1381C15.055 24.1522 15.0389 24.1643 15.0228 24.1784C14.9122 24.2288 14.8016 24.1965 14.685 24.1623L14.689 24.1643ZM13.5389 15.698C13.5389 15.698 13.5389 15.696 13.5368 15.6939C13.6173 14.3343 13.9812 12.9887 14.3331 11.6894C14.4015 11.4396 14.4678 11.1899 14.5342 10.9401C14.5543 10.9461 14.5744 10.9542 14.5945 10.9602C14.5885 11.5061 14.5905 12.0681 14.5945 12.612C14.6026 13.9636 14.6086 15.3596 14.4779 16.683C14.1904 16.8321 13.8666 16.9932 13.5127 17.0919C13.4866 16.8925 13.5047 16.6105 13.5228 16.3365C13.5389 16.0948 13.5549 15.8652 13.5409 15.698H13.5389ZM13.5147 17.1664C13.8928 17.0657 14.2326 16.8905 14.5342 16.7354L14.5523 16.7273V16.7092C14.689 15.3757 14.681 13.9717 14.6729 12.614C14.6709 12.0782 14.6669 11.5263 14.6729 10.9884C14.8801 11.0589 15.0852 11.1335 15.2822 11.208C15.2963 12.1306 15.3224 14.5397 15.3446 16.9811C15.2139 17.0174 15.0128 17.0778 14.7916 17.1463C14.3251 17.2873 13.6977 17.4766 13.4866 17.5109C13.4866 17.5028 13.4866 17.4948 13.4846 17.4867C13.4725 17.3739 13.4624 17.2591 13.5147 17.1664ZM13.4785 21.6101C13.4826 21.4953 13.4846 21.3784 13.4785 21.2616C13.4785 21.2616 13.4785 21.2596 13.4785 21.2576V17.9601C13.8143 17.9279 14.1522 17.8614 14.4498 17.7687C14.4638 17.7667 14.4779 17.7667 14.492 17.7667C14.5282 19.3258 14.4477 20.9413 14.3693 22.5025C14.3593 22.6958 14.3492 22.8892 14.3412 23.0806C14.2768 23.0886 14.2125 23.0947 14.1582 23.0806C14.0536 22.9597 13.9611 22.8268 13.8727 22.6978C13.7641 22.5427 13.6515 22.3856 13.5208 22.2446C13.5208 22.2446 13.5208 22.2406 13.5208 22.2386C13.4645 22.0371 13.4705 21.8176 13.4765 21.6081L13.4785 21.6101ZM15.9116 10.7447C16.3439 10.9743 16.7903 11.214 16.7762 11.6934C16.7622 11.6975 16.7501 11.6975 16.734 11.6995C16.73 11.6995 16.726 11.6995 16.722 11.6995L16.5832 11.6411C16.3479 11.5404 15.6924 11.2382 15.4572 11.1415C15.4471 11.1375 15.4371 11.1335 15.429 11.1294C15.3988 11.1173 15.3787 11.1113 15.3727 11.1113C15.3727 11.1113 14.5644 10.8555 14.5644 10.791C14.5624 10.791 14.5603 10.791 14.5624 10.791C14.5684 10.7709 14.5764 10.7427 14.5845 10.7104C14.6106 10.6077 14.6448 10.4586 14.683 10.3096C14.7031 10.2351 14.7232 10.1625 14.7433 10.0961C14.7473 10.0961 14.7494 10.0941 14.7534 10.092C14.8539 10.2552 15.0952 10.4063 15.3184 10.4123C15.3244 10.4123 15.3285 10.4123 15.3325 10.4123C15.3446 10.4325 15.3667 10.4445 15.3928 10.4466C15.3928 10.4466 15.4009 10.4466 15.4049 10.4466C15.5517 10.5594 15.7326 10.6561 15.9096 10.7507L15.9116 10.7447ZM3.87296 0.967028C5.3147 0.286177 7.03795 0.219702 8.68479 0.217688C8.69284 0.217688 8.70088 0.217688 8.70892 0.217688C10.3397 0.219702 12.0388 0.292219 13.4665 0.967028C14.8861 1.9883 15.5718 3.05994 15.5074 4.15373C15.4913 4.12956 15.4732 4.1074 15.4592 4.08323C15.3265 3.87172 15.232 3.63604 15.1415 3.40439C15.0791 3.24526 15.0168 3.08008 14.9404 2.92497L14.9364 2.91893L14.9303 2.9149C14.8861 2.88469 14.8318 2.88066 14.7856 2.87864C14.4658 2.25822 13.8324 1.87348 13.2191 1.50284C12.9919 1.36385 12.7768 1.23292 12.5757 1.09192C12.5757 1.09192 12.5757 1.09192 12.5757 1.08789C12.455 0.807892 12.1655 0.743433 11.9322 0.689045L11.896 0.680986C11.0414 0.517824 10.1869 0.437252 9.24782 0.437252C9.07087 0.437252 8.8899 0.44128 8.70892 0.447325C8.70892 0.447325 8.69284 0.447325 8.68479 0.447325C8.48371 0.44128 8.28465 0.435238 8.09161 0.435238C7.15257 0.435238 6.29798 0.513796 5.44339 0.678974L5.40719 0.687033C5.17394 0.739405 4.88238 0.805878 4.76374 1.08587C4.76374 1.08587 4.76374 1.08789 4.76374 1.0899C4.56266 1.23292 4.3475 1.36385 4.12028 1.50083C3.50699 1.87147 2.87359 2.25621 2.55387 2.87663C2.50762 2.87864 2.45333 2.88267 2.40909 2.91289L2.40306 2.91692V2.92296C2.32263 3.07807 2.2603 3.24123 2.19796 3.40238C2.10748 3.63403 2.01498 3.87172 1.88026 4.08121C1.86417 4.10538 1.84808 4.12754 1.832 4.15172C1.76966 3.05792 2.45333 1.98629 3.87296 0.965012V0.967028ZM14.494 3.36813C14.4739 3.34799 14.0275 2.92497 13.4906 2.48585C13.3358 2.36096 13.1749 2.23405 13.012 2.11521C12.7727 1.93996 12.5355 1.78284 12.3243 1.67406C12.264 1.64183 12.2037 1.61363 12.1474 1.59147C12.1474 1.59147 12.1474 1.58946 12.1454 1.58744C12.1313 1.47666 12.0911 1.37191 12.0509 1.27119C12.0147 1.18256 11.9785 1.09192 11.9624 0.999254C11.9664 0.989183 11.9684 0.981125 11.9745 0.971054C12.081 0.942852 12.1775 0.991198 12.2801 1.04156C12.3565 1.07983 12.4369 1.11609 12.5234 1.12415C12.5294 1.12818 12.5355 1.13019 12.5435 1.13019C12.7466 1.27321 12.9738 1.4122 13.191 1.54313C13.8023 1.91176 14.4317 2.29448 14.7413 2.90685C14.7313 2.95519 14.7232 3.00353 14.7172 3.05188C14.7011 3.1667 14.683 3.28353 14.6247 3.38223C14.6126 3.39432 14.6006 3.40641 14.5885 3.41849C14.5543 3.42252 14.5302 3.40036 14.496 3.36612L14.494 3.36813ZM8.68479 1.25709C8.67273 1.25709 8.66267 1.25709 8.65061 1.25709C7.50446 1.25709 6.36232 1.36184 5.25638 1.56932C5.27247 1.47464 5.30665 1.38601 5.34486 1.29134C5.38306 1.19868 5.42127 1.10199 5.43736 1.00127V0.995228V0.989185C5.43132 0.97307 5.42529 0.956953 5.41524 0.93681L5.4092 0.926737L5.39915 0.92271C5.36698 0.91264 5.3348 0.908609 5.30464 0.908609C5.20813 0.908609 5.12166 0.950911 5.0352 0.993212C4.97487 1.02343 4.91857 1.05163 4.85825 1.06371C4.97688 0.858252 5.21416 0.801847 5.42529 0.753504L5.45947 0.745447C6.45884 0.554085 7.46223 0.481569 8.59833 0.513798C8.60235 0.513798 8.60637 0.517824 8.6124 0.517824C8.63653 0.517824 8.66066 0.517824 8.68479 0.517824C8.69284 0.517824 8.70088 0.517824 8.70892 0.517824C8.70892 0.517824 8.72099 0.517824 8.72702 0.517824C8.73305 0.517824 8.73506 0.515812 8.7411 0.513798C9.8772 0.481569 10.8826 0.556099 11.88 0.745447L11.9141 0.753504C12.1273 0.801847 12.3625 0.856237 12.4812 1.06371C12.4229 1.04961 12.3646 1.02141 12.3042 0.993212C12.2198 0.950911 12.1313 0.908609 12.0348 0.908609C12.0046 0.908609 11.9724 0.91264 11.9403 0.92271L11.9282 0.926737L11.9222 0.93681C11.9101 0.956953 11.9041 0.97307 11.9001 0.989185V0.995228V1.00127C11.9161 1.10199 11.9544 1.19868 11.9926 1.29134C12.0308 1.384 12.0649 1.47464 12.081 1.56932C10.9811 1.36385 9.84703 1.25911 8.70691 1.25709C8.70691 1.25709 8.69083 1.25709 8.68278 1.25709H8.68479ZM5.19204 1.59147C5.13574 1.61363 5.07541 1.64183 5.01509 1.67406C4.80194 1.78485 4.56467 1.94197 4.3274 2.11521C4.16653 2.23405 4.00366 2.36096 3.84883 2.48585C3.31194 2.92296 2.86756 3.34799 2.84544 3.36813C2.81125 3.40238 2.78712 3.42252 2.75294 3.42051C2.74088 3.40842 2.73082 3.39634 2.71876 3.38425C2.66045 3.28555 2.64235 3.1667 2.62626 3.0539C2.62023 3.00555 2.61219 2.95721 2.60213 2.90886C2.91179 2.2965 3.54318 1.91377 4.15246 1.54515C4.37163 1.4122 4.59684 1.27522 4.79993 1.1322C4.80798 1.1322 4.81401 1.13019 4.82004 1.12616C4.90651 1.1181 4.98694 1.08184 5.06335 1.04357C5.1659 0.993212 5.26242 0.946884 5.36899 0.97307C5.37301 0.983141 5.37703 0.991199 5.38105 1.00127C5.36497 1.09393 5.32877 1.18659 5.29258 1.27321C5.25236 1.37392 5.21014 1.47867 5.19606 1.58946C5.19606 1.58946 5.19405 1.59148 5.19405 1.59349L5.19204 1.59147ZM1.81792 5.82967C1.83602 5.31198 1.85613 4.77616 1.83803 4.26049C1.83803 4.25646 1.83803 4.25243 1.83803 4.2484C1.85613 4.22625 1.8702 4.20207 1.88629 4.17992C2.04715 3.94827 2.15372 3.68439 2.25426 3.42454C2.31459 3.26943 2.37692 3.10828 2.45132 2.9572C2.47947 2.94109 2.51366 2.93908 2.54583 2.93706C2.55387 2.97936 2.56192 3.02166 2.56795 3.06396C2.58605 3.18281 2.60414 3.3077 2.66849 3.41648L2.67452 3.42252C2.6886 3.4346 2.70066 3.44669 2.71474 3.46281L2.72077 3.46885H2.73082C2.77908 3.4796 2.87091 3.44266 3.0063 3.35806C3.0063 3.35806 3.01233 3.35806 3.01636 3.35806C3.01837 3.35806 3.02038 3.35806 3.0244 3.35806C3.02842 3.35806 2.79115 3.59777 3.04049 3.34799C3.7141 2.66915 4.37566 1.98427 5.22019 1.63982C5.22421 1.63982 5.22622 1.64183 5.23024 1.63982C6.35629 1.4263 7.51853 1.31954 8.6868 1.32155C8.69485 1.32155 8.70289 1.32155 8.71093 1.32155C9.86111 1.32155 11.0053 1.42831 12.1132 1.6378C12.1172 1.6378 12.1192 1.6378 12.1233 1.6378C12.9678 1.98226 13.6293 2.66915 14.303 3.34598C14.5523 3.59575 14.315 3.35403 14.319 3.35605C14.3211 3.35605 14.3231 3.35605 14.3271 3.35605C14.3311 3.35605 14.3331 3.35605 14.3371 3.35605C14.4725 3.44199 14.5644 3.4796 14.6126 3.46885H14.6227L14.6287 3.46079C14.6428 3.44468 14.6549 3.43259 14.6689 3.42051L14.675 3.41446C14.7413 3.30569 14.7574 3.18281 14.7755 3.06195C14.7815 3.01965 14.7896 2.97735 14.7976 2.93505C14.8318 2.93505 14.866 2.94109 14.8921 2.95519C14.9665 3.10627 15.0289 3.26741 15.0892 3.42252C15.1897 3.68237 15.2963 3.94625 15.4572 4.1779C15.4732 4.20006 15.4893 4.22423 15.5054 4.24639C15.5054 4.25042 15.5054 4.25445 15.5054 4.25848C15.4893 4.77415 15.5074 5.30997 15.5255 5.82765C15.5637 6.91339 15.6019 8.03539 15.3164 9.07076C15.2983 9.08083 15.2842 9.09695 15.2822 9.11911C15.2742 9.12112 15.2661 9.12313 15.2601 9.12716C15.1656 9.16141 15.0731 9.20774 14.9826 9.25205C14.7936 9.34471 14.5985 9.43939 14.3733 9.43737C14.3673 9.38701 14.3653 9.33665 14.3653 9.28227C14.3633 9.14529 14.3613 9.00227 14.2728 8.88544C14.2728 8.88544 14.2688 8.88343 14.2668 8.88141C14.2567 8.72832 14.1843 8.5994 14.1139 8.4725C14.0737 8.40401 14.0335 8.3315 14.0054 8.25696C14.0054 8.25092 14.0054 8.24286 13.9993 8.23682C13.6655 7.85812 13.1287 7.64259 12.6501 7.46935C12.2499 7.32633 11.8317 7.20749 11.4034 7.11684C10.5589 6.93756 9.654 6.84692 8.71294 6.84692C8.71294 6.84692 8.69686 6.84692 8.68882 6.84692C8.67273 6.84692 8.65664 6.84692 8.64056 6.84692C7.69749 6.84692 6.79062 6.93756 5.94408 7.11684C5.51578 7.20749 5.09753 7.32633 4.69738 7.46935C4.21881 7.64259 3.68193 7.85812 3.34814 8.23682C3.3421 8.24286 3.3421 8.24891 3.3421 8.25696C3.31395 8.3315 3.27374 8.40401 3.23352 8.4725C3.16314 8.59739 3.09076 8.72832 3.0807 8.88141C3.07869 8.88141 3.07668 8.88343 3.07467 8.88544C2.98619 9.00429 2.98418 9.14529 2.98217 9.28227C2.98217 9.33665 2.98016 9.38701 2.97413 9.43737C2.74892 9.43939 2.55387 9.34471 2.36486 9.25205C2.27437 9.20774 2.18389 9.16342 2.08737 9.12716C2.07932 9.12515 2.07128 9.12112 2.06324 9.11911C2.06123 9.09896 2.04715 9.08285 2.02905 9.07076C1.74352 8.03337 1.78173 6.91339 1.81993 5.82765L1.81792 5.82967ZM1.42783 10.7447C1.60478 10.65 1.78575 10.5533 1.93254 10.4405C1.93656 10.4405 1.94058 10.4405 1.9446 10.4405C1.97074 10.4405 1.99286 10.4264 2.00492 10.4063C2.01096 10.4063 2.01498 10.4063 2.02101 10.4063C2.24622 10.4002 2.48752 10.2492 2.58605 10.086C2.59007 10.086 2.59208 10.088 2.5961 10.09C2.61621 10.1565 2.63632 10.229 2.65642 10.3035C2.69463 10.4526 2.72881 10.6037 2.75495 10.7044C2.763 10.7366 2.77104 10.7648 2.77707 10.785C2.77707 10.787 2.77707 10.785 2.77506 10.785C2.77506 10.8494 1.96672 11.1053 1.96672 11.1053C1.96069 11.1053 1.94058 11.1113 1.91042 11.1234C1.90238 11.1274 1.89232 11.1314 1.88227 11.1355C1.647 11.2322 0.993494 11.5343 0.75622 11.635L0.617476 11.6934C0.617476 11.6934 0.60943 11.6934 0.60541 11.6934C0.589323 11.6934 0.577259 11.6894 0.563183 11.6874C0.547096 11.206 0.995504 10.9683 1.42783 10.7386V10.7447Z" fill="#1A1F29"/>
<path d="M2.91417 2.91301L2.93428 2.89488C2.882 2.96136 2.882 3.03387 2.95439 3.07617C3.17758 2.93315 3.36258 2.69143 3.56567 2.5182C3.86528 2.26238 4.29961 2.01461 4.51074 1.69634C4.23124 1.69433 3.85321 2.01058 3.6461 2.16367C3.37665 2.36309 3.07704 2.631 2.91618 2.91301H2.91417Z" fill="white"/>
<path d="M8.70942 13.6537C6.85546 13.6698 5.30916 13.9719 4.8326 14.3809C5.8762 14.1694 7.22545 14.0384 8.70942 14.0243C10.1612 14.0445 11.4823 14.1734 12.5078 14.3809C12.0393 13.978 10.5292 13.6799 8.70942 13.6557V13.6537Z" fill="#FFEC3D"/>
<path d="M8.70873 12.741C11.182 12.7108 13.1667 13.5427 13.3235 11.8063C13.5568 11.2 13.8101 9.96521 13.9609 9.34077C13.5809 10.08 13.1425 11.905 11.9341 12.0843C10.7658 12.2575 9.86896 12.2757 8.70873 12.2535C7.50829 12.2777 6.59941 12.2616 5.40499 12.0843C4.19449 11.905 3.75815 10.078 3.37811 9.34077C3.52892 9.96521 3.78228 11.198 4.01553 11.8063C4.17438 13.5608 6.19926 12.6906 8.70873 12.741Z" fill="#93A3C0"/>
</svg>
