<svg width="24" height="24" viewBox="0 0 24 24" fill="currentColor"
    xmlns="http://www.w3.org/2000/svg">
    <path
        d="M21.7556 3.42268L17.2516 7.92675L19.304 9.97921C19.7257 10.4009 19.4198 11.1275 18.8207 11.1317L13.5025 11.1667C13.1308 11.1692 12.8308 10.87 12.8333 10.4975L12.8683 5.17931C12.8725 4.57932 13.5991 4.27433 14.0208 4.69599L16.0732 6.74844L20.5773 2.24437C20.9031 1.91854 21.4298 1.91854 21.7556 2.24437C22.0815 2.5702 22.0815 3.09685 21.7556 3.42268ZM10.4975 12.8333L5.17931 12.8683C4.57932 12.8725 4.27433 13.5991 4.69599 14.0208L6.74844 16.0732L2.24437 20.5773C1.91854 20.9031 1.91854 21.4298 2.24437 21.7556C2.40687 21.9181 2.6202 21.9998 2.83352 21.9998C3.04685 21.9998 3.26018 21.9181 3.42268 21.7556L7.92675 17.2516L9.97921 19.304C10.4009 19.7257 11.1275 19.4207 11.1317 18.8207L11.1667 13.5025C11.1692 13.1308 10.87 12.8308 10.4975 12.8333Z"
        fill="currentColor" />
</svg>
    