<svg width="20" height="20" viewBox="0 0 20 20" fill="none" xmlns="http://www.w3.org/2000/svg">
<path d="M15.826 4.06818C15.6541 3.60901 15.343 3.21257 14.9346 2.93221C14.5263 2.65184 14.0403 2.50101 13.542 2.5H6.45866C5.965 2.49962 5.48297 2.64714 5.07696 2.92284C4.67094 3.19854 4.36027 3.58931 4.18644 4.04296L2.68713 7.75C2.0112 9.57046 1.66591 11.4933 1.66699 13.4309V15.3243C1.66699 15.3962 1.72529 15.4545 1.7972 15.4545H3.62012C3.69203 15.4545 3.75033 15.5128 3.75033 15.5848V16.7188C3.75033 17.1502 4.10011 17.5 4.53158 17.5H5.74686C6.17833 17.5 6.52811 17.1502 6.52811 16.7187V15.5848C6.52811 15.5128 6.5864 15.4545 6.65832 15.4545H13.3423C13.4143 15.4545 13.4726 15.5128 13.4726 15.5848V16.7188C13.4726 17.1502 13.8223 17.5 14.2538 17.5H15.4691C15.9006 17.5 16.2503 17.1502 16.2503 16.7187V15.5848C16.2503 15.5128 16.3086 15.4545 16.3805 15.4545H18.2035C18.2754 15.4545 18.3337 15.3962 18.3337 15.3243V13.4309C18.334 11.4829 17.9852 9.54999 17.3031 7.72068L15.826 4.06818ZM13.4726 12.3864C13.4726 12.1151 13.5823 11.855 13.7777 11.6632C13.973 11.4714 14.238 11.3636 14.5142 11.3636C14.7905 11.3636 15.0554 11.4714 15.2508 11.6632C15.4461 11.855 15.5559 12.1151 15.5559 12.3864C15.5559 12.6576 15.4461 12.9177 15.2508 13.1095C15.0554 13.3013 14.7905 13.4091 14.5142 13.4091C14.238 13.4091 13.973 13.3013 13.7777 13.1095C13.5823 12.9177 13.4726 12.6576 13.4726 12.3864ZM4.63297 8.47614L6.13366 4.76977C6.15796 4.70423 6.20214 4.64758 6.26026 4.60747C6.31838 4.56736 6.38762 4.54571 6.45866 4.54545H13.542C13.618 4.54731 13.6916 4.57271 13.752 4.61801C13.8125 4.66331 13.8569 4.72621 13.8788 4.79773L15.3566 8.44818C15.4628 8.73523 15.5545 9.02568 15.6385 9.31818H4.36005C4.44477 9.03455 4.53088 8.75295 4.63297 8.47614ZM5.48644 13.4091C5.21017 13.4091 4.94522 13.3013 4.74987 13.1095C4.55452 12.9177 4.44477 12.6576 4.44477 12.3864C4.44477 12.1151 4.55452 11.855 4.74987 11.6632C4.94522 11.4714 5.21017 11.3636 5.48644 11.3636C5.76271 11.3636 6.02766 11.4714 6.22301 11.6632C6.41836 11.855 6.52811 12.1151 6.52811 12.3864C6.52811 12.6576 6.41836 12.9177 6.22301 13.1095C6.02766 13.3013 5.76271 13.4091 5.48644 13.4091Z" fill="currentColor"/>
</svg>
