<svg width="24" height="24" viewBox="0 0 24 24" fill="currentColor" xmlns="http://www.w3.org/2000/svg">
<path fill-rule="evenodd" clip-rule="evenodd" d="M18.6094 4.50763C20.3496 6.05611 21.4371 7.97908 21.8465 10.2771H21.846C21.8902 10.5261 21.9223 10.7774 21.9543 11.0287C21.969 11.1442 21.9837 11.2597 21.9996 11.375V12.625C21.9905 12.699 21.9817 12.773 21.9729 12.8469C21.9526 13.0172 21.9323 13.1874 21.908 13.3573C21.6231 15.3548 20.8199 17.1184 19.4777 18.6241C17.937 20.3528 16.0224 21.4315 13.7406 21.8445C13.4865 21.8904 13.2299 21.9227 12.9733 21.955C12.8569 21.9697 12.7405 21.9844 12.6244 22.0003H11.3744C11.2969 21.9907 11.2194 21.9815 11.142 21.9724C10.9753 21.9527 10.8087 21.933 10.6426 21.9091C8.65293 21.6242 6.89403 20.8273 5.39087 19.4919C3.65489 17.9491 2.57048 16.0308 2.15537 13.7422C2.10956 13.4882 2.07728 13.2317 2.04501 12.9752C2.03031 12.8584 2.01561 12.7416 1.99963 12.625V11.375C2.0133 11.2706 2.02594 11.166 2.03859 11.0615C2.06644 10.8312 2.09428 10.6009 2.13297 10.3724C2.48506 8.2994 3.39342 6.50404 4.8669 5.00452C6.36485 3.48052 8.16959 2.52425 10.2775 2.15341C10.5264 2.10954 10.7775 2.0774 11.0284 2.04528C11.144 2.03048 11.2596 2.01569 11.3749 1.99976H12.6249C12.7351 2.01425 12.8456 2.02749 12.956 2.04073C13.1869 2.0684 13.4176 2.09607 13.6463 2.13518C15.5245 2.45602 17.186 3.24093 18.6094 4.50763ZM7.45134 15.3131C8.24823 15.1673 8.83367 14.5704 8.95398 13.8355L8.9545 13.8344C9.09565 12.973 8.78523 12.3005 8.01542 11.8698C7.81875 11.76 7.60727 11.676 7.39606 11.5922C7.31081 11.5584 7.22561 11.5246 7.14143 11.4891C7.02964 11.4419 6.91707 11.3965 6.80451 11.3511C6.58616 11.2629 6.36787 11.1748 6.15547 11.0745C5.89869 10.9531 5.79921 10.7271 5.82838 10.4442C5.85703 10.1635 6.00651 9.97496 6.26693 9.876C6.53725 9.7734 6.81434 9.77288 7.09195 9.84215C7.48624 9.94059 7.75655 10.1416 7.78208 10.5937C7.79874 10.8911 8.08938 11.1125 8.38001 11.0953C8.69773 11.0766 8.96857 10.8088 8.93106 10.4823C8.89825 10.1979 8.84252 9.89111 8.70241 9.64891C8.27323 8.90566 7.55499 8.65983 6.65705 8.61347C6.61114 8.62137 6.55801 8.62857 6.50008 8.63641C6.3595 8.65545 6.19068 8.6783 6.02838 8.72441C4.72523 9.09421 4.20855 10.6432 5.04659 11.6552C5.36899 12.0443 5.81067 12.2505 6.26954 12.4276C6.35107 12.4591 6.43275 12.4902 6.51444 12.5214C6.83301 12.6428 7.15167 12.7643 7.46176 12.9052C7.72999 13.0271 7.84927 13.2636 7.81176 13.5636C7.77374 13.8693 7.59509 14.06 7.30654 14.1438C6.95549 14.2454 6.60965 14.2173 6.27943 14.06C6.03359 13.9428 5.88515 13.7558 5.86744 13.4693C5.84661 13.1303 5.58358 12.8907 5.26743 12.9021C4.94346 12.9141 4.69293 13.1834 4.70022 13.5261C4.70804 13.8787 4.79658 14.2131 5.01846 14.4917C5.65077 15.285 6.49715 15.4876 7.45134 15.3131ZM12.4218 15.3683C13.4255 15.3209 14.1166 14.6053 14.1317 13.6021L14.1322 13.6016C14.1479 12.5349 14.1458 11.4672 14.1322 10.4005C14.1208 9.51453 13.5515 8.80514 12.715 8.66243C12.4248 8.61271 12.1242 8.61726 11.825 8.62179C11.7386 8.6231 11.6524 8.62441 11.5665 8.62441C10.4691 8.62389 9.729 9.36141 9.72223 10.4557C9.72008 10.8092 9.72064 11.1626 9.7212 11.516C9.72146 11.6767 9.72171 11.8373 9.72171 11.9979H9.72692C9.72692 12.1738 9.72559 12.3496 9.72427 12.5254C9.72128 12.9224 9.71829 13.3193 9.73056 13.7157C9.75504 14.4902 10.2988 15.1715 11.0629 15.3136C11.5046 15.3954 11.9697 15.3897 12.4218 15.3683ZM17.8125 15.3126C18.6407 15.1584 19.198 14.5657 19.3287 13.7568L19.3293 13.7574C19.4553 12.9771 19.1152 12.2834 18.3735 11.8698C18.1749 11.7589 17.9615 11.6744 17.7482 11.5899C17.665 11.557 17.5818 11.5241 17.4995 11.4896C17.386 11.4419 17.2717 11.3962 17.1574 11.3506C16.946 11.2662 16.7349 11.1819 16.5297 11.0849C16.2682 10.962 16.1536 10.7354 16.1865 10.4432C16.2198 10.1463 16.3849 9.95048 16.6646 9.86246C17.0339 9.74631 17.3985 9.77548 17.7454 9.94996C17.9839 10.0698 18.1162 10.2599 18.1329 10.5364C18.1527 10.8687 18.4292 11.1141 18.7407 11.0953C19.0584 11.0766 19.3272 10.8099 19.2918 10.4823C19.2615 10.2041 19.2069 9.90465 19.072 9.6661C18.6449 8.90931 17.9219 8.66139 17.0188 8.61295C16.9726 8.62095 16.9194 8.62803 16.8616 8.63572C16.7198 8.65458 16.5502 8.67714 16.3886 8.72597C15.6146 8.96087 15.1302 9.46766 15.0281 10.2864C14.9307 11.0708 15.2427 11.6724 15.9115 12.0802C16.1312 12.2143 16.373 12.3151 16.612 12.4146C16.6245 12.4198 16.637 12.425 16.6495 12.4302C16.8012 12.4935 16.9553 12.5517 17.1093 12.6099C17.3382 12.6964 17.567 12.7829 17.7881 12.886C18.1079 13.0349 18.2094 13.2615 18.1688 13.5829C18.1323 13.8693 17.9443 14.0683 17.6282 14.1527C17.3224 14.2339 17.0203 14.2131 16.7276 14.0995C16.4328 13.985 16.2469 13.787 16.2234 13.4485C16.2 13.112 15.9208 12.8782 15.6068 12.9026C15.289 12.9271 15.051 13.1938 15.0604 13.5271C15.0708 13.8938 15.1651 14.2381 15.4026 14.524C16.0391 15.2897 16.874 15.4871 17.8125 15.3126ZM11.6765 9.79503C11.9034 9.7935 12.13 9.79198 12.3566 9.79685L12.3572 9.79633C12.7108 9.80414 12.9567 10.0265 12.9598 10.3797C12.9692 11.4599 12.9692 12.5401 12.9598 13.6204C12.9567 13.9647 12.7228 14.1876 12.3754 14.2032C12.0832 14.2162 11.7894 14.2157 11.4972 14.2048C11.1186 14.1907 10.8988 13.9595 10.8957 13.5803C10.8928 13.2069 10.8934 12.8333 10.8941 12.4598C10.8943 12.2997 10.8946 12.1397 10.8946 11.9797C10.8946 11.8106 10.8944 11.6415 10.8942 11.4723C10.8937 11.134 10.8932 10.7955 10.8946 10.4573C10.8962 10.0203 11.1196 9.79841 11.5561 9.7958C11.5962 9.79557 11.6364 9.7953 11.6765 9.79503Z" fill="currentColor"/>
</svg>
